<svg xmlns="http://www.w3.org/2000/svg" xmlns:xlink="http://www.w3.org/1999/xlink" width="54.988" height="58.914" viewBox="0 0 54.988 58.914">
  <defs>
    <clipPath id="clip-path">
      <path id="Path_27900" data-name="Path 27900" d="M0,16.174H54.988V-42.74H0Z" transform="translate(0 42.74)" fill="none"/>
    </clipPath>
  </defs>
  <g id="Group_14196" data-name="Group 14196" transform="translate(-0.001)">
    <path id="Path_27882" data-name="Path 27882" d="M23.31-16.791H46.167V-42.74H23.31Z" transform="translate(7.822 42.74)" fill="#d9e0e3"/>
    <path id="Path_27883" data-name="Path 27883" d="M.489,7.124H23.346V-18.825H.489Z" transform="translate(0.186 51.79)" fill="#d9e0e3"/>
    <g id="Group_14179" data-name="Group 14179" transform="translate(23.386 13.132)">
      <path id="Path_27884" data-name="Path 27884" d="M0,0H8.39" fill="none" stroke="#05596b" stroke-width="0.934"/>
    </g>
    <g id="Group_14180" data-name="Group 14180" transform="translate(23.386 45.876)">
      <path id="Path_27885" data-name="Path 27885" d="M0,0H8.39" fill="none" stroke="#05596b" stroke-width="0.934"/>
    </g>
    <g id="Group_14181" data-name="Group 14181" transform="translate(11.896 26.082)">
      <path id="Path_27886" data-name="Path 27886" d="M0,0V6.383" fill="none" stroke="#05596b" stroke-width="0.934"/>
    </g>
    <g id="Group_14182" data-name="Group 14182" transform="translate(42.451 26.082)">
      <path id="Path_27887" data-name="Path 27887" d="M0,0V6.383" fill="none" stroke="#05596b" stroke-width="0.934"/>
    </g>
    <g id="Group_14195" data-name="Group 14195" transform="translate(0.001 0)" clip-path="url(#clip-path)">
      <g id="Group_14183" data-name="Group 14183" transform="translate(0 32.413)">
        <path id="Path_27888" data-name="Path 27888" d="M6.37,0H-16.176a.659.659,0,0,0-.656.656V25.844a.66.66,0,0,0,.656.658H6.37a.66.66,0,0,0,.656-.658V.656A.659.659,0,0,0,6.37,0M-3.858,18.44A1.117,1.117,0,0,1-4.57,19.5c-.023.01-.047.014-.074.023a.79.79,0,0,1-.1.018l-.106.014a1.033,1.033,0,0,1-.116,0,.624.624,0,0,1-.1-.01.732.732,0,0,1-.106-.023.723.723,0,0,1-.1-.032.453.453,0,0,1-.092-.041.661.661,0,0,1-.092-.051c-.033-.019-.061-.041-.088-.061a.625.625,0,0,1-.079-.069c-.023-.023-.045-.051-.069-.074l-.069-.083a.378.378,0,0,1-.037-.069.86.86,0,0,1-.065-.116.3.3,0,0,1-.019-.065.717.717,0,0,1-.041-.134,1.035,1.035,0,0,1-.022-.208V16.421a.02.02,0,0,1,.014,0c.12.028.244.047.364.07.051,0,.1.018.149.022a3.786,3.786,0,0,0,.517.033,3.9,3.9,0,0,0,.522-.033,1.313,1.313,0,0,0,.143-.028c.125-.018.245-.037.365-.065a.018.018,0,0,1,.014,0Zm.014-3.4a3.013,3.013,0,0,1-1.059.194,2.864,2.864,0,0,1-.707-.088,3.069,3.069,0,0,1-.693-.259h0a5.373,5.373,0,0,1-2.518-4.816c0-2.846,1.76-5.162,3.923-5.162S-.979,7.228-.979,10.075A5.373,5.373,0,0,1-3.5,14.891a2.722,2.722,0,0,1-.347.153M5.713,25.188H5.089V22.074a4.41,4.41,0,0,0-4.4-4.405H-2.546V15.857a6.738,6.738,0,0,0,2.88-5.782C.333,6.5-2.014,3.6-4.9,3.6s-5.237,2.9-5.237,6.474a6.741,6.741,0,0,0,2.88,5.782v1.811h-3.23a4.405,4.405,0,0,0-4.4,4.405v3.114h-.63V1.312H5.713Z" transform="translate(16.832)" fill="#303030"/>
      </g>
      <g id="Group_14184" data-name="Group 14184" transform="translate(10.884 48.834)">
        <path id="Path_27889" data-name="Path 27889" d="M.574,0V2.019A1.117,1.117,0,0,1-.138,3.078c-.023.01-.047.014-.074.023a.609.609,0,0,1-.1.018l-.106.014a1.008,1.008,0,0,1-.114,0,.624.624,0,0,1-.1-.01A.694.694,0,0,1-.739,3.1a.671.671,0,0,1-.1-.032.422.422,0,0,1-.092-.041.591.591,0,0,1-.092-.051c-.033-.019-.061-.041-.088-.061a.531.531,0,0,1-.079-.069c-.023-.023-.045-.051-.069-.074l-.069-.083a.378.378,0,0,1-.037-.069A.86.86,0,0,1-1.432,2.5a.3.3,0,0,1-.019-.065A.717.717,0,0,1-1.493,2.3a1.035,1.035,0,0,1-.023-.208V0A.021.021,0,0,1-1.5,0c.12.028.244.047.364.07.051,0,.1.018.149.022A3.786,3.786,0,0,0-.471.13,3.9,3.9,0,0,0,.051.1,1.313,1.313,0,0,0,.195.069C.32.051.44.032.56,0A.018.018,0,0,1,.574,0" transform="translate(1.516)" fill="#fff"/>
      </g>
      <g id="Group_14185" data-name="Group 14185" transform="translate(6.654 35.946)">
        <path id="Path_27890" data-name="Path 27890" d="M2.933,1.8A6.719,6.719,0,0,1-.5,7.914a4,4,0,0,1-.471.194,4.386,4.386,0,0,1-1.442.247,4.124,4.124,0,0,1-.962-.112,4.345,4.345,0,0,1-.944-.329h-.007A6.718,6.718,0,0,1-7.751,1.8c0-3.616,2.4-6.556,5.341-6.556S2.933-1.816,2.933,1.8" transform="translate(7.751 4.756)" fill="#fff"/>
      </g>
      <g id="Group_14186" data-name="Group 14186" transform="translate(0 0.001)">
        <path id="Path_27891" data-name="Path 27891" d="M6.37,0H-16.176a.656.656,0,0,0-.656.656V25.84a.656.656,0,0,0,.656.656H6.37a.656.656,0,0,0,.656-.656V.656A.656.656,0,0,0,6.37,0M-3.858,18.436a1.114,1.114,0,0,1-.711,1.059.392.392,0,0,1-.074.022c-.032.01-.065.014-.1.023s-.074,0-.106.01h-.116c-.033-.006-.07-.006-.1-.014a.955.955,0,0,1-.106-.019c-.033-.008-.069-.022-.1-.032l-.092-.041c-.032-.019-.065-.033-.092-.051a.607.607,0,0,1-.088-.065c-.028-.023-.055-.041-.079-.065s-.045-.051-.069-.079-.047-.055-.069-.083a.347.347,0,0,1-.037-.07.844.844,0,0,1-.065-.114.384.384,0,0,1-.019-.061.872.872,0,0,1-.041-.134,1.09,1.09,0,0,1-.022-.214V16.417a.017.017,0,0,0,.014,0,3.379,3.379,0,0,0,.364.069c.051.01.1.019.149.028a4.584,4.584,0,0,0,.517.033,4.725,4.725,0,0,0,.522-.033l.143-.028a3.165,3.165,0,0,0,.365-.069.018.018,0,0,0,.014,0Zm.014-3.4a3.02,3.02,0,0,1-1.059.2,3.075,3.075,0,0,1-.707-.088,3.375,3.375,0,0,1-.693-.263h0a5.37,5.37,0,0,1-2.518-4.816c0-2.846,1.76-5.162,3.923-5.162S-.979,7.224-.979,10.071A5.37,5.37,0,0,1-3.5,14.887a2.918,2.918,0,0,1-.347.152M5.713,25.188H5.089V22.068a4.412,4.412,0,0,0-4.4-4.4H-2.546V15.857a6.752,6.752,0,0,0,2.88-5.787C.333,6.5-2.014,3.6-4.9,3.6S-10.14,6.5-10.14,10.071a6.756,6.756,0,0,0,2.88,5.787v1.807h-3.23a4.408,4.408,0,0,0-4.4,4.4v3.119h-.63V1.312H5.713Z" transform="translate(16.832)" fill="#99b83a"/>
      </g>
      <g id="Group_14187" data-name="Group 14187" transform="translate(10.884 16.417)">
        <path id="Path_27892" data-name="Path 27892" d="M.574,0V2.019A1.112,1.112,0,0,1-.138,3.078.392.392,0,0,1-.212,3.1c-.033.01-.065.014-.1.023s-.073,0-.106.008H-.53a.626.626,0,0,1-.1-.014A.683.683,0,0,1-.739,3.1c-.033-.01-.07-.023-.1-.033S-.9,3.041-.933,3.027a.958.958,0,0,1-.092-.051.519.519,0,0,1-.088-.065.936.936,0,0,1-.079-.065,1,1,0,0,1-.069-.079c-.023-.028-.047-.055-.069-.083a.378.378,0,0,1-.037-.069A.86.86,0,0,1-1.432,2.5a.311.311,0,0,1-.019-.061.787.787,0,0,1-.041-.134,1.065,1.065,0,0,1-.023-.212V0A.021.021,0,0,0-1.5,0a3.386,3.386,0,0,0,.364.07c.051.008.1.018.149.028A4.932,4.932,0,0,0-.471.134,5.085,5.085,0,0,0,.051.1L.195.074A3.167,3.167,0,0,0,.56,0,.018.018,0,0,0,.574,0" transform="translate(1.516)" fill="#a2c6be"/>
      </g>
      <g id="Group_14188" data-name="Group 14188" transform="translate(8.005 4.909)">
        <path id="Path_27893" data-name="Path 27893" d="M2.154,1.417A5.37,5.37,0,0,1-.364,6.233a2.918,2.918,0,0,1-.347.152,3.02,3.02,0,0,1-1.059.2A3.075,3.075,0,0,1-2.477,6.5a3.375,3.375,0,0,1-.693-.263h0A5.37,5.37,0,0,1-5.693,1.417c0-2.846,1.76-5.162,3.923-5.162S2.154-1.429,2.154,1.417" transform="translate(5.693 3.745)" fill="#a2c6be"/>
      </g>
      <g id="Group_14189" data-name="Group 14189" transform="translate(30.461 0.001)">
        <path id="Path_27894" data-name="Path 27894" d="M6.37,0H-16.176a.653.653,0,0,0-.656.656V25.84a.653.653,0,0,0,.656.656H6.37a.652.652,0,0,0,.652-.656V.656A.652.652,0,0,0,6.37,0M-3.858,18.436a1.12,1.12,0,0,1-.711,1.059.615.615,0,0,1-.079.022c-.033.01-.065.014-.1.023s-.069,0-.106.01h-.11c-.037-.006-.07-.006-.106-.014a.833.833,0,0,1-.1-.019c-.037-.008-.069-.022-.1-.032s-.065-.028-.092-.041-.065-.033-.1-.051a.913.913,0,0,1-.084-.065c-.028-.023-.055-.041-.079-.065a.625.625,0,0,1-.069-.079.912.912,0,0,1-.069-.083.479.479,0,0,1-.043-.07.6.6,0,0,1-.059-.114c-.01-.019-.014-.043-.023-.061-.014-.047-.032-.088-.041-.134a1.09,1.09,0,0,1-.019-.214V16.417a.021.021,0,0,0,.015,0,3.2,3.2,0,0,0,.364.069l.143.028a4.683,4.683,0,0,0,.522.033,4.672,4.672,0,0,0,.518-.033c.051-.008.1-.018.147-.028a3.4,3.4,0,0,0,.365-.069.018.018,0,0,0,.014,0Zm.014-3.4a3.02,3.02,0,0,1-1.059.2,3.111,3.111,0,0,1-.711-.088,3.345,3.345,0,0,1-.693-.263,4.359,4.359,0,0,1-1.825-1.9,6.328,6.328,0,0,1-.693-2.911c0-2.846,1.76-5.162,3.923-5.162S-.979,7.224-.979,10.071A5.373,5.373,0,0,1-3.5,14.887a2.507,2.507,0,0,1-.342.152M5.713,25.188H5.085V22.068a4.409,4.409,0,0,0-4.4-4.4H-2.546V15.857A6.749,6.749,0,0,0,.329,10.071C.329,6.5-2.019,3.6-4.9,3.6S-10.14,6.5-10.14,10.071a6.756,6.756,0,0,0,2.88,5.787v1.807h-3.231a4.412,4.412,0,0,0-4.4,4.4v3.119h-.624V1.312H5.713Z" transform="translate(16.832)" fill="#05596b"/>
      </g>
      <g id="Group_14190" data-name="Group 14190" transform="translate(41.345 16.417)">
        <path id="Path_27895" data-name="Path 27895" d="M.574,0V2.019A1.117,1.117,0,0,1-.138,3.078.566.566,0,0,1-.216,3.1c-.033.01-.065.014-.1.023s-.069,0-.106.008H-.53a.677.677,0,0,1-.106-.014.632.632,0,0,1-.1-.018c-.037-.01-.069-.023-.1-.033s-.065-.028-.092-.041S-1,3-1.029,2.976a.722.722,0,0,1-.084-.065.936.936,0,0,1-.079-.065.541.541,0,0,1-.069-.079.912.912,0,0,1-.069-.083.786.786,0,0,1-.043-.069A.612.612,0,0,1-1.432,2.5c-.01-.018-.014-.041-.023-.061-.014-.045-.032-.087-.041-.134a1.067,1.067,0,0,1-.019-.212V0A.021.021,0,0,0-1.5,0a3.167,3.167,0,0,0,.365.07L-.994.1A5.038,5.038,0,0,0-.471.134,5.028,5.028,0,0,0,.047.1C.1.092.144.083.195.074A3.41,3.41,0,0,0,.56,0,.018.018,0,0,0,.574,0" transform="translate(1.516)" fill="#167c80"/>
      </g>
      <g id="Group_14191" data-name="Group 14191" transform="translate(37.091 3.435)">
        <path id="Path_27896" data-name="Path 27896" d="M2.889,1.828A6.868,6.868,0,0,1-.495,8.041a3.5,3.5,0,0,1-.458.2,4.208,4.208,0,0,1-1.42.256,4.309,4.309,0,0,1-.955-.114,4.567,4.567,0,0,1-.929-.339A5.743,5.743,0,0,1-6.7,5.584a7.927,7.927,0,0,1-.93-3.756c0-3.672,2.363-6.659,5.263-6.659S2.889-1.844,2.889,1.828" transform="translate(7.635 4.831)" fill="#167c80"/>
      </g>
      <g id="Group_14192" data-name="Group 14192" transform="translate(30.461 32.413)">
        <path id="Path_27897" data-name="Path 27897" d="M6.37,0H-16.176a.657.657,0,0,0-.656.656V25.844a.657.657,0,0,0,.656.658H6.37a.656.656,0,0,0,.652-.658V.656A.656.656,0,0,0,6.37,0M-3.858,18.44A1.123,1.123,0,0,1-4.57,19.5c-.029.01-.051.014-.079.023a.812.812,0,0,1-.1.018c-.032.006-.069.01-.106.014a.971.971,0,0,1-.11,0,.675.675,0,0,1-.106-.01.643.643,0,0,1-.1-.023.587.587,0,0,1-.1-.032.371.371,0,0,1-.092-.041.924.924,0,0,1-.1-.051c-.029-.019-.057-.041-.084-.061a.625.625,0,0,1-.079-.069c-.028-.023-.045-.051-.069-.074a.913.913,0,0,1-.069-.083.554.554,0,0,1-.043-.069.612.612,0,0,1-.059-.116c-.01-.019-.014-.041-.023-.065a1.263,1.263,0,0,1-.041-.134,1.035,1.035,0,0,1-.019-.208V16.421a.021.021,0,0,1,.015,0c.12.028.24.047.364.07.047,0,.1.018.143.022a3.867,3.867,0,0,0,.522.033,3.849,3.849,0,0,0,.518-.033,1.385,1.385,0,0,0,.147-.028c.12-.018.245-.037.365-.065a.018.018,0,0,1,.014,0Zm.014-3.4a3.013,3.013,0,0,1-1.059.194,2.9,2.9,0,0,1-.711-.088,3.045,3.045,0,0,1-.693-.259,4.355,4.355,0,0,1-1.825-1.9,6.35,6.35,0,0,1-.693-2.913c0-2.846,1.76-5.162,3.923-5.162S-.979,7.228-.979,10.075A5.377,5.377,0,0,1-3.5,14.891a2.357,2.357,0,0,1-.342.153M5.713,25.188H5.085V22.074a4.406,4.406,0,0,0-4.4-4.405H-2.546V15.857A6.735,6.735,0,0,0,.329,10.075C.329,6.5-2.019,3.6-4.9,3.6s-5.237,2.9-5.237,6.474a6.741,6.741,0,0,0,2.88,5.782v1.811h-3.231a4.41,4.41,0,0,0-4.4,4.405v3.114h-.624V1.312H5.713Z" transform="translate(16.832)" fill="#579a5d"/>
      </g>
      <g id="Group_14193" data-name="Group 14193" transform="translate(41.345 48.834)">
        <path id="Path_27898" data-name="Path 27898" d="M.574,0V2.019A1.123,1.123,0,0,1-.138,3.078c-.028.01-.051.014-.079.023a.609.609,0,0,1-.1.018c-.032.006-.069.01-.106.014a.971.971,0,0,1-.11,0,.675.675,0,0,1-.106-.01.644.644,0,0,1-.1-.023.587.587,0,0,1-.1-.032.371.371,0,0,1-.092-.041.924.924,0,0,1-.1-.051c-.029-.019-.057-.041-.084-.061a.531.531,0,0,1-.079-.069c-.028-.023-.045-.051-.069-.074a.912.912,0,0,1-.069-.083.786.786,0,0,1-.043-.069A.612.612,0,0,1-1.432,2.5c-.01-.019-.014-.041-.023-.065A1.263,1.263,0,0,1-1.5,2.3a1.035,1.035,0,0,1-.019-.208V0A.021.021,0,0,1-1.5,0c.12.028.24.047.365.07.045,0,.1.018.142.022A3.867,3.867,0,0,0-.471.13,3.849,3.849,0,0,0,.047.1,1.386,1.386,0,0,0,.195.069C.315.051.44.032.56,0A.018.018,0,0,1,.574,0" transform="translate(1.516)" fill="#99b83a"/>
      </g>
      <g id="Group_14194" data-name="Group 14194" transform="translate(38.467 37.326)">
        <path id="Path_27899" data-name="Path 27899" d="M2.154,1.417A5.38,5.38,0,0,1-.37,6.233a2.508,2.508,0,0,1-.342.152,3.007,3.007,0,0,1-1.059.194,2.832,2.832,0,0,1-.711-.088,3.04,3.04,0,0,1-.693-.258A4.366,4.366,0,0,1-5,4.328a6.345,6.345,0,0,1-.693-2.911c0-2.846,1.76-5.162,3.923-5.162S2.154-1.429,2.154,1.417" transform="translate(5.693 3.745)" fill="#99b83a"/>
      </g>
    </g>
  </g>
</svg>
