<svg xmlns="http://www.w3.org/2000/svg" xmlns:xlink="http://www.w3.org/1999/xlink" width="54.926" height="55.284" viewBox="0 0 54.926 55.284">
  <defs>
    <clipPath id="clip-path">
      <path id="Path_27912" data-name="Path 27912" d="M0,15.177H54.926V-40.107H0Z" transform="translate(0 40.107)" fill="none"/>
    </clipPath>
  </defs>
  <g id="Group_14563" data-name="Group 14563" transform="translate(-1029.191 -1129.859)">
    <g id="Group_14207" data-name="Group 14207" transform="translate(1029.191 1129.859)">
      <path id="Path_27901" data-name="Path 27901" d="M.459,14.371H54.12V-39.648H.459Z" transform="translate(0.174 40.281)" fill="#d9e0e3"/>
      <g id="Group_14206" data-name="Group 14206" transform="translate(0 0)" clip-path="url(#clip-path)">
        <path id="Path_27902" data-name="Path 27902" d="M.459,14.371H54.118V-39.648H.459Z" transform="translate(0.174 40.281)" fill="none" stroke="#303030" stroke-width="0.919"/>
        <g id="Group_14197" data-name="Group 14197" transform="translate(4.802 27.035)">
          <path id="Path_27903" data-name="Path 27903" d="M.017.231c.015.03.032.061.05.09C.072.328.075.336.08.343S1.536,2.287,1.536,8.717c0,6.913,14.246,9.042,16.216,9.3l3.328,3.328,1.006,1.006a.585.585,0,0,0,.416.172h.227a.583.583,0,0,0,.416-.172l1.006-1.006,3.328-3.328c1.97-.261,16.216-2.39,16.216-9.3,0-6.43,1.442-8.355,1.451-8.367A.576.576,0,0,0,45.237.2s0-.008,0-.011A.6.6,0,0,0,45.277,0c0-.021,0-.041,0-.062a.573.573,0,0,0-.028-.143c-.007-.021-.014-.041-.022-.062a.3.3,0,0,0-.014-.037.613.613,0,0,0-.092-.121s0-.01-.008-.014h0a.609.609,0,0,0-.175-.117L44.875-.58a.572.572,0,0,0-.145-.028.53.53,0,0,0-.066,0,.222.222,0,0,0-.043,0C43.951-.531,28.2,1.449,28.2,8.717c0,6.167-1.326,8.189-1.442,8.355L23.2,20.631l-.044-11.71a5.22,5.22,0,0,1-.591.036,5.166,5.166,0,0,1-.587-.036l.044,11.7-3.548-3.548c-.135-.193-1.445-2.226-1.445-8.357C17.029,1.449,1.281-.531.609-.611c-.014,0-.028,0-.041,0a.4.4,0,0,0-.07,0A.5.5,0,0,0,.37-.582a.38.38,0,0,0-.076.026.556.556,0,0,0-.138.091c-.01.008-.023.012-.033.022a.552.552,0,0,0-.044.066.716.716,0,0,0-.05.063C.025-.3.024-.3.019-.288a.573.573,0,0,0-.039.1A.707.707,0,0,0-.037-.1a.651.651,0,0,0-.007.1A.613.613,0,0,0-.018.139.575.575,0,0,0,.017.231m42.5,8.486c0,4.942-9.576,7.164-13.616,7.882l4.553-4.552h3.525a.59.59,0,1,0,0-1.18H34.632l1.9-1.9h3.526a.589.589,0,0,0,0-1.179H37.715l5.427-5.425a27.468,27.468,0,0,0-.626,6.359m-13.135,0c0-4.94,9.575-7.162,13.615-7.88L36.883,6.95V4.6a.59.59,0,0,0-1.18,0V8.13l-1.9,1.9V7.687a.589.589,0,0,0-1.179,0v3.526l-3.864,3.864a27.472,27.472,0,0,0,.626-6.36m-26.666,0a27.482,27.482,0,0,0-.626-6.36L7.515,7.784H5.169a.589.589,0,1,0,0,1.179H8.694l1.9,1.9H8.253a.59.59,0,1,0,0,1.18h3.526L16.33,16.6c-4.04-.717-13.615-2.937-13.615-7.882m13.134,0a27.379,27.379,0,0,0,.627,6.36l-3.865-3.864V7.687a.589.589,0,0,0-1.179,0v2.347l-1.9-1.906V4.6a.589.589,0,1,0-1.179,0V6.95L2.235.835c4.04.717,13.615,2.937,13.615,7.882" transform="translate(0.044 0.612)" fill="#303030"/>
        </g>
        <g id="Group_14198" data-name="Group 14198" transform="translate(24.664 12.991)">
          <path id="Path_27904" data-name="Path 27904" d="M.5,4-.127-9.267a1.258,1.258,0,0,1,.638-.11.47.47,0,0,1,.4.251,1.416,1.416,0,0,0,.983.754A2.046,2.046,0,0,0,3.01-8.512L2.418,4H3.6l.64-13.522a.592.592,0,0,0-.321-.553.591.591,0,0,0-.637.065,1.94,1.94,0,0,1-1.156.484c-.036-.007-.1-.021-.176-.157a1.651,1.651,0,0,0-1.325-.866,2.236,2.236,0,0,0-1.8.616.6.6,0,0,0-.141.411L-.68,4Z" transform="translate(1.32 10.563)" fill="#303030"/>
        </g>
        <g id="Group_14199" data-name="Group 14199" transform="translate(25.858 14.169)">
          <path id="Path_27905" data-name="Path 27905" d="M.554.278A1.419,1.419,0,0,1-.429-.476a.473.473,0,0,0-.4-.251,1.255,1.255,0,0,0-.638.112l.626,13.263H1.081L1.672.139A2.019,2.019,0,0,1,.554.278" transform="translate(1.464 0.734)" fill="#fff"/>
        </g>
        <g id="Group_14200" data-name="Group 14200" transform="translate(17.633 5.11)">
          <path id="Path_27906" data-name="Path 27906" d="M1.246,6.226v.351a.59.59,0,0,1,.59-.59H4.378L3.739-7.534a.59.59,0,0,1,.141-.411,2.238,2.238,0,0,1,1.8-.616A1.657,1.657,0,0,1,7-7.7c.073.136.141.15.178.157a1.937,1.937,0,0,0,1.155-.484.6.6,0,0,1,.637-.065.589.589,0,0,1,.321.553L8.658,5.988h2.48a.589.589,0,0,1,.589.59v-.23a10.6,10.6,0,0,1,2.4-6.729,9.834,9.834,0,0,0,2.24-6.243,9.867,9.867,0,0,0-3.1-7.164,9.758,9.758,0,0,0-7.357-2.645A9.93,9.93,0,0,0-3.279-7.142,9.842,9.842,0,0,0-1.2-.557,10.926,10.926,0,0,1,1.246,6.226" transform="translate(3.292 16.453)" fill="#a2c6be"/>
        </g>
        <g id="Group_14201" data-name="Group 14201" transform="translate(33.601 28.484)">
          <path id="Path_27907" data-name="Path 27907" d="M1.061,1.881a.589.589,0,1,1,1.179,0V4.227l1.9-1.9V-1.2a.59.59,0,0,1,.59-.59.59.59,0,0,1,.59.59V1.143L11.437-4.97C7.4-4.253-2.177-2.03-2.177,2.91A27.472,27.472,0,0,1-2.8,9.27L1.061,5.407Z" transform="translate(2.803 4.97)" fill="#99b83a"/>
        </g>
        <g id="Group_14202" data-name="Group 14202" transform="translate(33.747 30.005)">
          <path id="Path_27908" data-name="Path 27908" d="M2.218,2.66H-1.307L-5.86,7.211c4.04-.718,13.615-2.94,13.615-7.88a27.379,27.379,0,0,1,.627-6.36L2.955-1.6H5.3a.59.59,0,0,1,.59.59.59.59,0,0,1-.59.59H1.776l-1.9,1.9H2.218a.589.589,0,1,1,0,1.179" transform="translate(5.86 7.029)" fill="#579a5d"/>
        </g>
        <g id="Group_14203" data-name="Group 14203" transform="translate(7.08 28.482)">
          <path id="Path_27909" data-name="Path 27909" d="M1.679,1.035a.589.589,0,1,1,1.179,0V4.559l1.9,1.906V4.118a.59.59,0,0,1,1.18,0V7.644l3.864,3.864a27.472,27.472,0,0,1-.626-6.36C9.18.2-.4-2.017-4.436-2.734L1.679,3.381Z" transform="translate(4.436 2.734)" fill="#579a5d"/>
        </g>
        <g id="Group_14204" data-name="Group 14204" transform="translate(6.935 30.004)">
          <path id="Path_27910" data-name="Path 27910" d="M3.91,3.91-.643-.643H-4.168a.589.589,0,0,1-.59-.589.59.59,0,0,1,.59-.59h2.346l-1.9-1.9H-7.253a.589.589,0,0,1-.589-.59.588.588,0,0,1,.589-.589h2.347l-5.427-5.427a27.472,27.472,0,0,1,.626,6.36C-9.706.972-.13,3.193,3.91,3.91" transform="translate(10.332 10.332)" fill="#99b83a"/>
        </g>
        <g id="Group_14205" data-name="Group 14205" transform="translate(22.172 27.552)">
          <path id="Path_27911" data-name="Path 27911" d="M1.277,2.475a5.167,5.167,0,0,0,.587.034,5.583,5.583,0,0,0,.591-.034,5.248,5.248,0,0,0,4.649-5.2V-5.952a.589.589,0,0,0-.59-.589h-9.3a.588.588,0,0,0-.589.589V-2.73a5.246,5.246,0,0,0,4.652,5.2" transform="translate(3.375 6.541)" fill="#05596b"/>
        </g>
      </g>
    </g>
  </g>
</svg>
