<svg xmlns="http://www.w3.org/2000/svg" xmlns:xlink="http://www.w3.org/1999/xlink" width="55.006" height="56.053" viewBox="0 0 55.006 56.053">
  <defs>
    <clipPath id="clip-path">
      <path id="Path_27970" data-name="Path 27970" d="M0,15.388H55.006V-40.665H0Z" transform="translate(0 40.665)" fill="none"/>
    </clipPath>
  </defs>
  <g id="Group_14564" data-name="Group 14564" transform="translate(-1029.111 -1381.345)">
    <g id="Group_14258" data-name="Group 14258" transform="translate(1029.111 1381.345)">
      <path id="Path_27943" data-name="Path 27943" d="M.489,14.341H54.148V-39.678H.489Z" transform="translate(0.185 41.038)" fill="#d9e0e3"/>
      <g id="Group_14257" data-name="Group 14257" transform="translate(0 0)" clip-path="url(#clip-path)">
        <path id="Path_27944" data-name="Path 27944" d="M.488,14.342H54.147V-39.677H.488Z" transform="translate(0.185 41.039)" fill="none" stroke="#303030" stroke-linejoin="round" stroke-width="0.977"/>
        <g id="Group_14232" data-name="Group 14232" transform="translate(11.51 32.738)">
          <path id="Path_27945" data-name="Path 27945" d="M.625.406A2.021,2.021,0,0,1,1.134.231a4.26,4.26,0,0,1,.245-.646,3.688,3.688,0,0,1,.179-.327.025.025,0,0,1,.006-.012l-.008.012H-1.5c-.045-.116-.1-.226-.15-.332.054.106.1.216.149.332a4.114,4.114,0,0,1,.143.411h0A5.277,5.277,0,0,1-1.2.406H.62C.609.412.6.422.587.428A.351.351,0,0,1,.625.406" transform="translate(1.652 1.074)" fill="#303030"/>
        </g>
        <g id="Group_14233" data-name="Group 14233" transform="translate(42.981 12.223)">
          <path id="Path_27946" data-name="Path 27946" d="M0,.786a.574.574,0,1,0,1.148,0V-1.5a.573.573,0,0,0-.573-.573A.573.573,0,0,0,0-1.5Z" transform="translate(0 2.076)" fill="#303030"/>
        </g>
        <g id="Group_14234" data-name="Group 14234" transform="translate(46.221 10.88)">
          <path id="Path_27947" data-name="Path 27947" d="M.046.269,1.663,1.886a.574.574,0,1,0,.812-.812L.858-.543a.573.573,0,0,0-.812,0,.573.573,0,0,0,0,.812" transform="translate(0.122 0.711)" fill="#303030"/>
        </g>
        <g id="Group_14235" data-name="Group 14235" transform="translate(38.124 10.88)">
          <path id="Path_27948" data-name="Path 27948" d="M.713.046A.573.573,0,0,0-.1.046L-1.716,1.665a.572.572,0,0,0,0,.811.569.569,0,0,0,.405.17A.572.572,0,0,0-.9,2.475L.713.858a.573.573,0,0,0,0-.812" transform="translate(1.884 0.122)" fill="#303030"/>
        </g>
        <g id="Group_14236" data-name="Group 14236" transform="translate(40.994 29.398)">
          <path id="Path_27949" data-name="Path 27949" d="M0,.158A.574.574,0,0,0,.575.733H3.3a.575.575,0,0,0,0-1.15H.575A.574.574,0,0,0,0,.158" transform="translate(0 0.417)" fill="#303030"/>
        </g>
        <g id="Group_14237" data-name="Group 14237" transform="translate(1.34 6.77)">
          <path id="Path_27950" data-name="Path 27950" d="M0,7.222V8.37H1.351A4.575,4.575,0,0,1,1.5,7.627c.054-.149.094-.284.149-.405ZM15.74-5.709H11.106V-7.222c.014,0,.028-.014.041-.026l2.4-2.405.824-.824.487-.487a.562.562,0,0,0,0-.811.562.562,0,0,0-.811,0L11.106-8.83v-9.688a.575.575,0,0,0-.582-.568.571.571,0,0,0-.567.568v9.364l-.932-.932L8.2-10.91l-.864-.866a.578.578,0,0,0-.824,0,.59.59,0,0,0,0,.811l.824.824.838.824L9.958-7.532v1.824H0v1.148H9.958v3.555h-3.7a.574.574,0,0,0-.568.58.572.572,0,0,0,.568.568H16.944a.574.574,0,0,0,.58-.568.576.576,0,0,0-.58-.58H11.106V-4.561h4.648a12.81,12.81,0,0,1,5.77,1.42A20.84,20.84,0,0,1,27.118,1.1c.229-.123.473-.244.7-.351.135-.068.27-.109.393-.176C24.252-3.6,20.064-5.709,15.74-5.709M52.3,8.37V7.222H48.128V-4.046a.576.576,0,0,0-.582-.58.573.573,0,0,0-.567.58V7.222H37.062V-1.83a.574.574,0,0,0-.568-.582.576.576,0,0,0-.58.582V7.222H17.321a1.841,1.841,0,0,1,.175.324,3.386,3.386,0,0,1,.136.324.231.231,0,0,1,.014.1c.012.041.04.068.054.108.026.069.054.149.08.23a.543.543,0,0,1,.123.068H43.966a7.646,7.646,0,0,0-1.432,4.864,4.182,4.182,0,0,0,1.9,2.918c1.945,1.311,2.946,2.715,2.986,4.161a5.14,5.14,0,0,1-1.85,3.607l-2.743-1.553A37.5,37.5,0,0,0,24.2,17.3H15.754V10.694a.574.574,0,0,0-1.148,0V17.3H6.553V7.951a.574.574,0,0,0-1.148,0V17.3H0v1.15H5.4v1.283c0,.04.012.081.012.108H3.756a.575.575,0,1,0,0,1.15H8.35a.575.575,0,0,0,0-1.15h-1.8V18.451h8.053v2.2a.4.4,0,0,0,.012.121h-2.66a.584.584,0,0,0-.582.568.535.535,0,0,0,.176.405.474.474,0,0,0,.189.135.551.551,0,0,0,.216.041H18.4a.622.622,0,0,0,.23-.041.442.442,0,0,0,.176-.135.537.537,0,0,0,.174-.405.573.573,0,0,0-.58-.568H15.74a.361.361,0,0,0,.014-.121v-2.2H24.2a36.448,36.448,0,0,1,18.066,4.918l7.823,4.43,1.891,1.068c.041.028.1.04.135.068.055,0,.1.014.15.014h.04V27.733l-5.689-3.216A6.037,6.037,0,0,0,48.573,20.3c-.04-1.839-1.216-3.555-3.486-5.108a2.993,2.993,0,0,1-1.4-2.121c-.27-1.9,1.19-4.053,1.676-4.7Z" transform="translate(0 19.085)" fill="#303030"/>
        </g>
        <g id="Group_14238" data-name="Group 14238" transform="translate(1.339 34.224)">
          <path id="Path_27951" data-name="Path 27951" d="M1.484,1.265V5.588h-5.4V-3.343h1.352a1.453,1.453,0,0,0-.041.351v.028a3.459,3.459,0,0,0-.014.378c0,2.163,1.19,3.851,2.715,3.851Z" transform="translate(3.921 3.343)" fill="#05596b"/>
        </g>
        <g id="Group_14239" data-name="Group 14239" transform="translate(44.989 34.225)">
          <path id="Path_27952" data-name="Path 27952" d="M2.376,0V19.361l-5.687-3.216A6.037,6.037,0,0,0-1.354,11.93c-.04-1.837-1.216-3.554-3.485-5.107A2.991,2.991,0,0,1-6.245,4.7C-6.515,2.8-5.055.648-4.569,0Z" transform="translate(6.278)" fill="#05596b"/>
        </g>
        <g id="Group_14240" data-name="Group 14240" transform="translate(17.096 34.219)">
          <path id="Path_27953" data-name="Path 27953" d="M5.692,0H-12.889l.019.012a2.215,2.215,0,0,1,.321.2c.015.011.03.023.045.033a2.714,2.714,0,0,1,.289.262l.041.044a3.245,3.245,0,0,1,.255.317c.012.018.023.034.034.052a3.726,3.726,0,0,1,.219.369c.01.019.018.037.026.055a3.948,3.948,0,0,1,.179.419c.007.018.012.037.018.054a4.55,4.55,0,0,1,.135.466c0,.015.007.032.01.047.036.167.066.336.087.513,0,.01,0,.019,0,.029a5.34,5.34,0,0,1,.03.561c0,2.043-1.137,3.645-2.591,3.645h-1.274V8.94H-6.6a37.5,37.5,0,0,1,18.635,5.07l2.733,1.545a5.133,5.133,0,0,0,1.855-3.6c-.034-1.446-1.038-2.848-2.983-4.171a4.138,4.138,0,0,1-1.9-2.911A7.686,7.686,0,0,1,13.166,0Z" transform="translate(15.042)" fill="#167c7f"/>
        </g>
        <g id="Group_14241" data-name="Group 14241" transform="translate(7.898 34.22)">
          <path id="Path_27954" data-name="Path 27954" d="M.383,1.266h-1.4V5.6H7.034V3.73H5.761c-1.454,0-2.591-1.6-2.591-3.645A5.19,5.19,0,0,1,3.2-.448c0-.028,0-.057.008-.085.019-.164.047-.324.08-.48L3.307-1.1c.037-.156.081-.306.131-.451.007-.019.015-.037.022-.055a3.724,3.724,0,0,1,.17-.4.439.439,0,0,1,.022-.044,3.687,3.687,0,0,1,.216-.368c.017-.023.032-.045.045-.068a3.314,3.314,0,0,1,.249-.31l.051-.054a2.612,2.612,0,0,1,.292-.263l.015-.011a2.526,2.526,0,0,1,.317-.2l.033-.019H3.053c.008.052.011.108.017.16a5.527,5.527,0,0,1,.037.605c0,2.157-1.2,3.846-2.724,3.846" transform="translate(1.013 3.345)" fill="#05596b"/>
        </g>
        <g id="Group_14242" data-name="Group 14242" transform="translate(1.339 21.295)">
          <path id="Path_27955" data-name="Path 27955" d="M7.445,1.554c-.23.121-.459.244-.689.378A23.1,23.1,0,0,0,4.594,3.3L-1.661,7.674H-2.35c0-.012,0-.012-.014-.012a.477.477,0,0,0-.069-.109,1.709,1.709,0,0,0-.134-.2.687.687,0,0,0-.1-.1c-.04-.054-.1-.108-.135-.161A.74.74,0,0,0-2.9,7a1.84,1.84,0,0,0-.149-.135.859.859,0,0,0-.109-.081c-.054-.026-.108-.068-.161-.094s-.068-.04-.109-.068-.121-.055-.175-.081a1.089,1.089,0,0,1-.108-.04c-.069-.014-.136-.041-.2-.055-.04,0-.066-.012-.094-.012A2.377,2.377,0,0,0-4.324,6.4a1.969,1.969,0,0,0-.3.028c-.041,0-.068.012-.109.012-.068.014-.135.041-.189.055l-.121.04c-.054.026-.108.054-.176.081-.04.028-.068.04-.108.068s-.109.068-.161.094-.069.055-.109.081A.733.733,0,0,0-5.743,7a.74.74,0,0,0-.108.1c-.041.054-.1.094-.135.149a.751.751,0,0,1-.1.108c-.04.068-.1.135-.135.2a.292.292,0,0,0-.068.109s-.014,0-.014.012H-9.35c-.054-.121-.1-.229-.149-.338a.4.4,0,0,0-.04-.068,2.221,2.221,0,0,0-.135-.243.5.5,0,0,1-.069-.109c-.04-.054-.094-.121-.134-.175s-.054-.068-.081-.108a1.615,1.615,0,0,1-.135-.149.582.582,0,0,0-.1-.081.764.764,0,0,0-.147-.135.647.647,0,0,0-.1-.081,1.181,1.181,0,0,0-.163-.108.333.333,0,0,0-.094-.055,1.917,1.917,0,0,0-.272-.135c-.378-1.512-1.377-2.5-2.553-2.5a2.858,2.858,0,0,0-2.514,2.378,2.469,2.469,0,0,0-.338.1c-.04.014-.066.04-.108.054a1.489,1.489,0,0,0-.2.1l-.121.08a1.923,1.923,0,0,0-.175.123c-.041.026-.081.068-.123.1l-.161.161a.425.425,0,0,0-.109.108,2.18,2.18,0,0,0-.149.19.473.473,0,0,0-.094.135,1.725,1.725,0,0,0-.135.2c-.028.054-.068.094-.1.147-.04.081-.081.176-.121.258-.014.04-.041.094-.054.135-.014.014-.014.014-.014.026h-1.649V-4.107h9.959V-.553h-3.7a.573.573,0,0,0-.567.58.57.57,0,0,0,.567.568H-2.729a.573.573,0,0,0,.58-.568.576.576,0,0,0-.58-.58H-8.566V-4.107h4.647a12.8,12.8,0,0,1,5.77,1.418A20.847,20.847,0,0,1,7.445,1.554" transform="translate(19.673 4.107)" fill="#167c7f"/>
        </g>
        <g id="Group_14243" data-name="Group 14243" transform="translate(25.599 11.22)">
          <path id="Path_27956" data-name="Path 27956" d="M.605,1.83H6.9A2.207,2.207,0,0,0,9.1-.375,2.209,2.209,0,0,0,7.219-2.556,2.445,2.445,0,0,0,4.872-4.284a2.364,2.364,0,0,0-.531.059,2.442,2.442,0,0,0-1.624-.612A2.462,2.462,0,0,0,.265-2.553,2.209,2.209,0,0,0-1.6-.375,2.208,2.208,0,0,0,.605,1.83" transform="translate(1.6 4.837)" fill="#fff"/>
        </g>
        <g id="Group_14244" data-name="Group 14244" transform="translate(7.022 0)">
          <path id="Path_27957" data-name="Path 27957" d="M1.331,0A4.844,4.844,0,0,0,.756,9.654V7.339a.575.575,0,0,1,1.15,0V9.654A4.844,4.844,0,0,0,1.331,0" transform="translate(3.516)" fill="#99b73a"/>
        </g>
        <g id="Group_14245" data-name="Group 14245" transform="translate(13.152 8.771)">
          <path id="Path_27958" data-name="Path 27958" d="M0,1.124A4.073,4.073,0,0,0,.9,3.679l.819-.82.522-.522a.574.574,0,0,1,.812.812l-.488.488-.83.83a4.081,4.081,0,0,0,2.356.75A4.093,4.093,0,1,0,0,1.124" transform="translate(0 2.969)" fill="#99b73a"/>
        </g>
        <g id="Group_14246" data-name="Group 14246" transform="translate(3.105 9.076)">
          <path id="Path_27959" data-name="Path 27959" d="M0,1.124A4.1,4.1,0,0,0,4.093,5.216,4.069,4.069,0,0,0,6.406,4.5l-.833-.834-.82-.82a.574.574,0,0,1,.811-.812l.871.87.82.819A4.092,4.092,0,1,0,0,1.124" transform="translate(0 2.969)" fill="#99b73a"/>
        </g>
        <g id="Group_14247" data-name="Group 14247" transform="translate(33.517 19.413)">
          <path id="Path_27960" data-name="Path 27960" d="M.589.595C-.637.846-1.55,2.285-1.555,4.082c0,.006,0,.011,0,.018,0,.163.01.324.025.482a4.828,4.828,0,0,0,.181.924c.008.029.018.057.026.084.022.063.043.125.065.187.012.032.026.062.039.094.022.055.044.11.07.164a.711.711,0,0,0,.044.092c.025.052.05.1.077.152.017.029.032.058.05.087.029.048.058.1.09.143a.873.873,0,0,0,.05.074c.036.052.072.1.109.146.014.019.028.039.043.057a2.685,2.685,0,0,0,.34.345c.017.015.034.029.052.043.043.036.087.069.131.1l.07.045c.041.025.083.051.124.074.026.015.052.028.077.04.041.021.084.04.125.058l.083.032c.044.017.087.029.131.043.028.008.054.017.081.023.048.011.1.019.147.028.023,0,.047.008.072.011a1.719,1.719,0,0,0,.223.014H2.182V3.036a.574.574,0,1,1,1.148,0V7.641H4.544a1.865,1.865,0,0,0,.249-.017l.08-.014c.054-.01.109-.021.161-.034.032-.008.061-.019.092-.03A1.473,1.473,0,0,0,5.27,7.5c.029-.012.061-.026.09-.041.047-.021.091-.043.134-.066a.929.929,0,0,0,.088-.052c.044-.028.085-.054.127-.084s.055-.04.083-.062.084-.068.124-.1c.025-.021.048-.043.072-.066.044-.04.085-.085.125-.13.019-.022.04-.041.058-.063.048-.055.094-.116.136-.175L6.34,6.61a3.577,3.577,0,0,0,.3-.513c0-.006,0-.01.006-.015.041-.087.08-.175.116-.266.007-.018.014-.039.021-.055.028-.08.057-.16.08-.244.008-.025.015-.05.023-.076.022-.079.041-.156.061-.237.007-.03.012-.059.019-.09.015-.079.029-.157.041-.237.006-.034.011-.068.015-.1A5.143,5.143,0,0,0,7.069,4.1a5.491,5.491,0,0,0-.032-.568A3.354,3.354,0,0,0,5.282.709,2.674,2.674,0,0,0,2.92-1.572,2.639,2.639,0,0,0,.589.595" transform="translate(1.556 1.572)" fill="#59995b"/>
        </g>
        <g id="Group_14248" data-name="Group 14248" transform="translate(43.913 16.484)">
          <path id="Path_27961" data-name="Path 27961" d="M2.73,1.8a5.707,5.707,0,0,1-.189,1.46v.012c0,.028-.014.041-.028.068v.014a4.291,4.291,0,0,1-.27.729,2.32,2.32,0,0,1-.189.365,1.145,1.145,0,0,1-.1.135,1.726,1.726,0,0,1-.149.2,1.041,1.041,0,0,1-.094.135,1.594,1.594,0,0,0-.149.163l-.121.121c-.054.041-.109.1-.163.135a.889.889,0,0,1-.121.1c-.068.04-.121.081-.176.108-.04.028-.094.054-.135.081S.73,5.68.663,5.708c-.04.014-.081.04-.121.054a1.39,1.39,0,0,1-.23.054A.247.247,0,0,1,.2,5.843a3.121,3.121,0,0,1-.338.026H-1.661V.559a.576.576,0,0,0-.58-.58.573.573,0,0,0-.568.58v5.31H-4.337a2.87,2.87,0,0,1-.338-.026.247.247,0,0,1-.108-.028,1.39,1.39,0,0,1-.23-.054c-.04-.014-.081-.04-.121-.054-.068-.028-.135-.054-.189-.081a1.057,1.057,0,0,1-.135-.081,1.21,1.21,0,0,1-.176-.108.889.889,0,0,1-.121-.1c-.054-.04-.108-.094-.163-.135l-.121-.121c-.054-.054-.094-.109-.149-.163A1.051,1.051,0,0,1-6.3,4.788c-.04-.068-.1-.135-.135-.2a.477.477,0,0,1-.1-.135,2.32,2.32,0,0,1-.189-.365,5.148,5.148,0,0,1-.3-.811V3.263a5.647,5.647,0,0,1-.2-1.46c0-2.094,1.082-3.784,2.514-4.026.419-1.541,1.458-2.54,2.662-2.54C-.809-4.764.244-3.711.649-2.1,1.878-1.629,2.73-.062,2.73,1.8" transform="translate(7.215 4.764)" fill="#59995b"/>
        </g>
        <g id="Group_14249" data-name="Group 14249" transform="translate(38.401 24.524)">
          <path id="Path_27962" data-name="Path 27962" d="M2.3.712A2.576,2.576,0,0,1,1.966.685.247.247,0,0,1,1.858.658,1.544,1.544,0,0,1,1.628.6C1.587.591,1.547.563,1.507.551,1.439.523,1.37.5,1.318.47A1.19,1.19,0,0,1,1.181.388,1.332,1.332,0,0,1,1.006.281a.812.812,0,0,1-.121-.1C.83.146.776.091.722.051L.6-.071C.547-.125.506-.18.452-.233A1.157,1.157,0,0,1,.345-.368C.3-.436.25-.5.21-.571a.451.451,0,0,1-.1-.135,2.325,2.325,0,0,1-.189-.365,5.293,5.293,0,0,1-.3-.811H-2.385a3.865,3.865,0,0,1,.04.568A3.837,3.837,0,0,1-2.4-.639a.228.228,0,0,1-.014.1c-.014.08-.026.161-.04.243,0,.028-.014.054-.014.081-.028.081-.041.161-.068.243,0,.028-.014.055-.014.081-.028.081-.054.163-.081.23-.014.026-.014.04-.026.068-.041.081-.068.175-.109.256l-.014.014a2.726,2.726,0,0,1-.3.514l-.041.04A.8.8,0,0,1-3.25,1.4c-.014.028-.04.041-.054.068-.04.041-.081.1-.121.135a.391.391,0,0,0-.081.068c-.04.028-.081.068-.121.1s-.054.04-.081.068l-.121.081c-.028.014-.068.04-.1.054s-.081.04-.135.068l-.081.04c-.054.014-.094.041-.149.055a.326.326,0,0,0-.094.026.659.659,0,0,1-.163.028.167.167,0,0,1-.081.014,1.611,1.611,0,0,1-.243.026H-6.087V6.671H3.831V.712ZM-.2,4.144H-2.925a.573.573,0,0,1-.568-.58A.571.571,0,0,1-2.925,3H-.2a.645.645,0,0,1,.405.161.642.642,0,0,1,.161.407.652.652,0,0,1-.161.419A.645.645,0,0,1-.2,4.144" transform="translate(6.087 1.882)" fill="#99b73a"/>
        </g>
        <g id="Group_14250" data-name="Group 14250" transform="translate(40.236 4.839)">
          <path id="Path_27963" data-name="Path 27963" d="M0,.911A3.319,3.319,0,1,0,3.318-2.407,3.322,3.322,0,0,0,0,.911" transform="translate(0 2.407)" fill="#99b73a"/>
        </g>
        <g id="Group_14251" data-name="Group 14251" transform="translate(1.339 44.305)">
          <path id="Path_27964" data-name="Path 27964" d="M14.348,2.878H-37.915V-7.606h5.4v1.283c0,.04.014.081.014.108h-1.662a.577.577,0,0,0-.58.58.575.575,0,0,0,.58.569h4.594A.573.573,0,0,0-29-5.635a.575.575,0,0,0-.568-.58h-1.8V-7.606h8.053v2.2a.361.361,0,0,0,.014.121h-2.662a.583.583,0,0,0-.58.568.534.534,0,0,0,.175.405.474.474,0,0,0,.189.135.551.551,0,0,0,.216.041h6.445a.614.614,0,0,0,.229-.041.442.442,0,0,0,.176-.135.538.538,0,0,0,.175-.405.574.574,0,0,0-.58-.568h-2.662a.4.4,0,0,0,.012-.121v-2.2h8.446A36.439,36.439,0,0,1,4.349-2.688L12.173,1.73l1.891,1.081a.522.522,0,0,0,.284.068" transform="translate(37.915 7.606)" fill="#99b73a"/>
        </g>
        <g id="Group_14252" data-name="Group 14252" transform="translate(2.63 28.793)">
          <path id="Path_27965" data-name="Path 27965" d="M1.446,2.756h1.4c1.526,0,2.724-1.689,2.724-3.846A5.527,5.527,0,0,0,5.529-1.7c-.007-.052-.008-.108-.018-.16a5.009,5.009,0,0,0-.16-.737C5.31-2.736,5.26-2.872,5.208-3c-.045-.116-.1-.227-.15-.334-.012-.025-.026-.048-.04-.073-.044-.081-.088-.163-.135-.238-.022-.036-.045-.068-.068-.1-.043-.063-.085-.125-.131-.183C4.658-3.966,4.63-4,4.6-4.032c-.044-.054-.09-.1-.136-.152-.03-.032-.059-.062-.091-.091-.048-.045-.1-.09-.147-.131l-.094-.076c-.055-.041-.114-.079-.172-.114-.028-.018-.057-.039-.085-.054a2.111,2.111,0,0,0-.269-.132c-.389-1.508-1.385-2.5-2.554-2.5A2.864,2.864,0,0,0-1.47-4.9a2.094,2.094,0,0,0-.329.1c-.037.014-.07.032-.106.047a2.287,2.287,0,0,0-.211.1c-.04.022-.08.05-.119.074-.062.04-.121.08-.181.127-.041.03-.079.065-.117.1-.057.05-.11.1-.163.153-.039.039-.074.077-.11.117-.051.058-.1.119-.147.181-.033.044-.066.087-.1.135-.047.066-.091.138-.134.211-.029.047-.057.092-.084.143q-.066.126-.124.261c-.021.044-.043.085-.062.134,0,.007,0,.012-.007.021-.052.132-.1.267-.145.411a5.051,5.051,0,0,0-.161.737c-.015.117-.028.234-.037.356a.153.153,0,0,1,0,.023c-.01.128-.014.256-.014.386,0,2.157,1.2,3.846,2.724,3.846H.3V-2.262a.573.573,0,0,1,.573-.575.574.574,0,0,1,.575.575V2.756Z" transform="translate(3.822 7.282)" fill="#59995b"/>
        </g>
        <g id="Group_14253" data-name="Group 14253" transform="translate(12.08 31.803)">
          <path id="Path_27966" data-name="Path 27966" d="M1.377,2.606H2.65C4.1,2.606,5.243,1,5.243-1.039a5.34,5.34,0,0,0-.03-.561c0-.008,0-.019,0-.029a4.82,4.82,0,0,0-.087-.514c0-.012-.006-.029-.008-.044a4.81,4.81,0,0,0-.134-.466.511.511,0,0,1-.019-.054,3.948,3.948,0,0,0-.179-.419c-.01-.019-.018-.039-.026-.055a3.5,3.5,0,0,0-.219-.371C4.526-3.57,4.514-3.585,4.5-3.6a3.264,3.264,0,0,0-.255-.318c-.015-.014-.028-.029-.041-.044a3.012,3.012,0,0,0-.289-.261c-.015-.011-.03-.023-.045-.033a2.439,2.439,0,0,0-.321-.2.139.139,0,0,1-.025-.012c-.043-.019-.084-.041-.128-.059-.021-.08-.048-.157-.073-.236a.59.59,0,0,1-.054-.106.413.413,0,0,1-.012-.091c-.043-.113-.088-.223-.138-.328S3-5.514,2.941-5.619l-.007-.012c-.021-.034-.044-.065-.068-.1-.045-.069-.091-.138-.142-.2-.028-.036-.058-.07-.087-.1-.047-.055-.094-.109-.143-.159-.033-.034-.066-.063-.1-.1-.05-.044-.1-.09-.153-.13-.034-.028-.07-.054-.108-.08-.052-.036-.106-.07-.163-.1a1.27,1.27,0,0,0-.112-.062,1.656,1.656,0,0,0-.175-.079c-.037-.014-.073-.03-.112-.041a2.037,2.037,0,0,0-.2-.054c-.032-.007-.065-.017-.1-.021a1.854,1.854,0,0,0-.3-.028,1.851,1.851,0,0,0-.3.028c-.034,0-.068.014-.1.021-.068.015-.134.032-.2.052-.04.012-.076.029-.113.044a1.615,1.615,0,0,0-.174.076c-.039.019-.077.041-.114.065-.055.032-.108.063-.16.1s-.074.055-.112.083-.1.083-.146.125-.07.063-.1.1-.092.1-.139.154c-.03.036-.062.07-.091.109-.048.061-.092.127-.136.194-.025.036-.048.069-.072.106L-1-5.619c-.063.1-.123.212-.179.327a4.412,4.412,0,0,0-.245.646,1.986,1.986,0,0,0-.509.175.343.343,0,0,1-.039.021,2.309,2.309,0,0,0-.316.2l-.014.011a2.638,2.638,0,0,0-.294.265l-.051.052a2.779,2.779,0,0,0-.248.31c-.017.022-.032.045-.047.068a3.309,3.309,0,0,0-.216.368c-.008.014-.014.03-.022.045-.062.127-.119.261-.171.4-.007.019-.015.037-.021.057a4.052,4.052,0,0,0-.13.449c-.008.03-.015.061-.022.091-.034.156-.061.317-.08.48,0,.029-.006.057-.008.085a5.211,5.211,0,0,0-.029.533C-3.638,1-2.5,2.606-1.047,2.606H.228V-2.14A.573.573,0,0,1,.8-2.714a.573.573,0,0,1,.575.573V2.606Z" transform="translate(3.638 6.886)" fill="#59995b"/>
        </g>
        <g id="Group_14254" data-name="Group 14254" transform="translate(49.467 24.604)">
          <path id="Path_27967" data-name="Path 27967" d="M1.146,0V8.472H-3.029V2.513H-1.5a3.121,3.121,0,0,0,.338-.026.247.247,0,0,0,.108-.028,1.39,1.39,0,0,0,.23-.054c.04-.014.081-.04.121-.054.068-.028.135-.054.189-.081s.1-.054.135-.081c.055-.026.109-.068.176-.108a.889.889,0,0,0,.121-.1c.054-.04.109-.094.163-.135L.2,1.73A1.754,1.754,0,0,1,.35,1.567a1.041,1.041,0,0,0,.094-.135,1.726,1.726,0,0,0,.149-.2,1.145,1.145,0,0,0,.1-.135A2.32,2.32,0,0,0,.876.729,4.248,4.248,0,0,0,1.146,0" transform="translate(3.029)" fill="#99b73a"/>
        </g>
        <g id="Group_14255" data-name="Group 14255" transform="translate(19.355 25.067)">
          <path id="Path_27968" data-name="Path 27968" d="M.55,2.2h15.9V-2.246H15.234a1.72,1.72,0,0,1-.223-.015c-.023,0-.047-.008-.072-.011-.048-.008-.1-.017-.146-.028l-.083-.023-.132-.041L14.5-2.4a1.292,1.292,0,0,1-.127-.058l-.077-.04c-.043-.023-.083-.048-.123-.074-.025-.015-.048-.029-.07-.045-.045-.03-.088-.065-.132-.1l-.054-.043a2.677,2.677,0,0,1-.339-.345c-.015-.018-.028-.037-.043-.057-.037-.047-.073-.094-.109-.145l-.05-.076c-.03-.047-.061-.094-.088-.143-.018-.029-.034-.058-.051-.087-.026-.05-.052-.1-.077-.152-.017-.029-.03-.061-.045-.092-.025-.054-.047-.109-.069-.164-.012-.032-.026-.062-.037-.094-.023-.061-.044-.124-.065-.187-.008-.028-.019-.055-.028-.084a4.7,4.7,0,0,1-.179-.924c-.015-.159-.026-.32-.026-.482,0-.007,0-.012,0-.018A21.607,21.607,0,0,0,8.743-4.441c-.128.059-.259.11-.386.172Q8-4.1,7.65-3.916t-.685.371C6.23-3.132,5.5-2.673,4.8-2.179L-1.453,2.2Z" transform="translate(1.453 5.806)" fill="#99b73a"/>
        </g>
        <g id="Group_14256" data-name="Group 14256" transform="translate(53.558 24.504)">
          <path id="Path_27969" data-name="Path 27969" d="M.008,0c0,.028-.014.041-.028.068V0Z" transform="translate(0.02)" fill="#167c7f"/>
        </g>
      </g>
    </g>
  </g>
</svg>
