<svg xmlns="http://www.w3.org/2000/svg" width="46" height="46" viewBox="0 0 46 46">
  <g id="Group_16221" data-name="Group 16221" transform="translate(800 -5798)">
    <rect id="Rectangle_4299" data-name="Rectangle 4299" width="46" height="46" transform="translate(-800 5798)" fill="#045a6b"/>
    <g id="Group_16093" data-name="Group 16093" transform="translate(7286.267 -1122.242)">
      <path id="Path_31428" data-name="Path 31428" d="M51.875-254.621H22.937v-2.556H51.875Z" transform="translate(-8100.204 7208.482)" fill="#96b93c"/>
      <g id="Group_16078" data-name="Group 16078" transform="translate(-8071.975 6942.205)">
        <path id="Path_31429" data-name="Path 31429" d="M-1.378-2.617c0-.664,0-1.329,0-1.994a.257.257,0,0,0-.155-.26C-2.21-5.242-2.895-5.606-3.562-6A2.64,2.64,0,0,1-4.954-8.331c-.008-.321,0-.643,0-.965,0-.122.034-.154.147-.082.831.53,1.672,1.046,2.5,1.588a2.03,2.03,0,0,1,.978,1.839c-.008.326,0,.654,0,.981,0,.118.042.159.157.157.473-.006.386.045.394-.378.006-.358-.02-.72.015-1.075a1.981,1.981,0,0,1,.939-1.5c.83-.542,1.672-1.066,2.509-1.6.137-.087.16-.075.157.086a8.337,8.337,0,0,1-.052,1.452,2.623,2.623,0,0,1-1.3,1.8c-.675.4-1.37.769-2.06,1.145a.281.281,0,0,0-.169.285c0,1.319,0,2.637,0,3.956,0,.234,0,.234-.239.234-.4,0-.4,0-.4-.394v-1.82" transform="translate(4.958 9.42)" fill="#96b93c"/>
      </g>
      <g id="Group_16079" data-name="Group 16079" transform="translate(-8062.925 6943.898)">
        <path id="Path_31430" data-name="Path 31430" d="M-1.377-2.3c0-.39,0-.781,0-1.171a.234.234,0,0,0-.14-.237C-2.2-4.077-2.89-4.444-3.562-4.839A2.635,2.635,0,0,1-4.954-7.185c-.006-.311,0-.622,0-.934,0-.157.027-.17.162-.084.825.521,1.655,1.033,2.47,1.569A2.041,2.041,0,0,1-1.333-4.8c-.006.332,0,.664,0,1,0,.118.04.158.156.155.477-.012.386.064.394-.389.007-.369-.02-.741.019-1.106a2.006,2.006,0,0,1,.976-1.5C1.024-7.169,1.847-7.682,2.668-8.2c.055-.035.16-.132.16.03a6.631,6.631,0,0,1-.072,1.623A2.635,2.635,0,0,1,1.471-4.855C.792-4.461.1-4.087-.59-3.712a.258.258,0,0,0-.156.26c0,.765,0,1.53,0,2.294,0,.22,0,.22-.22.22-.413,0-.413,0-.413-.408V-2.3" transform="translate(4.958 8.26)" fill="#96b93c"/>
      </g>
      <g id="Group_16080" data-name="Group 16080" transform="translate(-8069.615 6932.242)">
        <path id="Path_31431" data-name="Path 31431" d="M0-1.135a2.422,2.422,0,0,1,.447-1.4c.328-.491.664-.976.993-1.467.069-.1.113-.12.188-.006.351.526.72,1.041,1.058,1.575A2.582,2.582,0,0,1,2.36.724c-.237.248-.485.485-.725.729-.058.06-.107.1-.181.017C1.175,1.182.878.911.615.609A2.493,2.493,0,0,1,0-1.135" transform="translate(0.001 4.083)" fill="#96b93c"/>
      </g>
      <g id="Group_16081" data-name="Group 16081" transform="translate(-8060.576 6937.13)">
        <path id="Path_31432" data-name="Path 31432" d="M-1.187-1.082A2.682,2.682,0,0,1-1.94.951c-.227.228-.459.451-.681.684-.079.082-.129.1-.214.007-.254-.268-.528-.517-.773-.792a2.555,2.555,0,0,1-.256-3.107c.337-.529.7-1.04,1.053-1.559.048-.07.087-.124.158-.018.37.552.751,1.1,1.109,1.655a2.166,2.166,0,0,1,.357,1.1" transform="translate(4.274 3.894)" fill="#96b93c"/>
      </g>
      <g id="Group_16082" data-name="Group 16082" transform="translate(-8062.925 6940.702)">
        <path id="Path_31433" data-name="Path 31433" d="M-1.393-1.482v.569c0,.225-.008.23-.2.124l-1.6-.89a4.807,4.807,0,0,1-.867-.546,2.638,2.638,0,0,1-.951-2.023c0-.321,0-.643,0-.964,0-.117.024-.16.142-.085.853.545,1.719,1.069,2.559,1.633a1.98,1.98,0,0,1,.921,1.74c0,.147,0,.3,0,.443" transform="translate(5.015 5.336)" fill="#96b93c"/>
      </g>
      <g id="Group_16083" data-name="Group 16083" transform="translate(-8058.753 6940.696)">
        <path id="Path_31434" data-name="Path 31434" d="M0-1.466a4.449,4.449,0,0,1,.044-.872A1.981,1.981,0,0,1,.9-3.586c.852-.564,1.722-1.1,2.584-1.65.061-.039.137-.084.135.045a8.913,8.913,0,0,1-.045,1.483A2.623,2.623,0,0,1,2.265-1.876c-.68.4-1.379.771-2.071,1.153C.009-.621,0-.626,0-.839c0-.195,0-.39,0-.627" transform="translate(0 5.277)" fill="#96b93c"/>
      </g>
      <g id="Group_16084" data-name="Group 16084" transform="translate(-8067.805 6935.803)">
        <path id="Path_31435" data-name="Path 31435" d="M0-1.467a4.318,4.318,0,0,1,.044-.86A1.983,1.983,0,0,1,.887-3.583c.858-.565,1.732-1.107,2.6-1.657.053-.034.131-.081.129.036a5.807,5.807,0,0,1-.128,1.835A2.7,2.7,0,0,1,2.233-1.858C1.558-1.469.872-1.1.189-.721.011-.623,0-.629,0-.828s0-.4,0-.638" transform="translate(0 5.278)" fill="#96b93c"/>
      </g>
      <g id="Group_16085" data-name="Group 16085" transform="translate(-8071.976 6939.003)">
        <path id="Path_31436" data-name="Path 31436" d="M-1.393-1.483c0,.206,0,.411,0,.617,0,.171-.014.18-.166.1-.641-.354-1.277-.716-1.922-1.062a3,3,0,0,1-1.14-1.044,2.542,2.542,0,0,1-.387-1.317c-.009-.337,0-.674,0-1.012,0-.152.023-.162.152-.08.833.526,1.673,1.043,2.5,1.584a2.015,2.015,0,0,1,.971,1.808c0,.137,0,.274,0,.411" transform="translate(5.015 5.338)" fill="#96b93c"/>
      </g>
      <g id="Group_16086" data-name="Group 16086" transform="translate(-8071.976 6935.804)">
        <path id="Path_31437" data-name="Path 31437" d="M-1.393-1.482c0,.216,0,.432,0,.648,0,.111-.027.147-.136.086-.731-.409-1.479-.789-2.191-1.228A2.591,2.591,0,0,1-5.01-4.218c-.009-.326,0-.654,0-.98,0-.153.025-.167.151-.087.846.535,1.7,1.059,2.532,1.614a1.981,1.981,0,0,1,.935,1.763c0,.142,0,.285,0,.427" transform="translate(5.015 5.333)" fill="#96b93c"/>
      </g>
      <g id="Group_16087" data-name="Group 16087" transform="translate(-8067.807 6939)">
        <path id="Path_31438" data-name="Path 31438" d="M0-1.467a6.408,6.408,0,0,1,.015-.685,2.088,2.088,0,0,1,1-1.519c.812-.521,1.628-1.034,2.444-1.548.054-.035.157-.133.157.033A8.2,8.2,0,0,1,3.572-3.7,2.632,2.632,0,0,1,2.247-1.865C1.575-1.47.885-1.1.2-.727,0-.615,0-.616,0-.856v-.611" transform="translate(0.003 5.28)" fill="#96b93c"/>
      </g>
    </g>
  </g>
</svg>
