<svg xmlns="http://www.w3.org/2000/svg" xmlns:xlink="http://www.w3.org/1999/xlink" width="271.401" height="287.423" viewBox="0 0 271.401 287.423">
  <defs>
    <clipPath id="clip-path">
      <rect id="Rectangle_4398" data-name="Rectangle 4398" width="271.401" height="287.423" fill="none" stroke="#96b93c" stroke-width="2"/>
    </clipPath>
  </defs>
  <g id="Group_16176" data-name="Group 16176" opacity="0.369">
    <path id="Path_31905" data-name="Path 31905" d="M46.891,1.27,35.07,13.952,23.263,1.27V13.952L.5,24.9V59.676l11.8,12.67V83.293H35.07v23.656H58.715v11.807L70.694,141.69h34.595v35.452L93.462,188.111l11.826,12.676h23.65V188.111h11.8v12.676l11.826,10.942v11.824l11.824,11.821V246.5h11.121l11.8,12.5,11.824,11.124v11.826l11.829-11.826h11.816l3.131-1.549,4.685-19.809-6.259-13.392V211.729l11.821-10.942,10.95-12.676h10.269V165.343h11.8V141.69h-11.8l11.8-22.934V72.346L245.553,49.4l-10.947-12.67L222.782,24.9H210.967L199.137,36.725H187.314V24.9l-34.75-10.947H140.738L128.938,24.9V36.725H82.517V24.9L70.694,13.952H58.715V1.27Z" transform="translate(0.861 2.188)" fill="none" stroke="#96b93c" stroke-width="2"/>
    <g id="Group_16173" data-name="Group 16173" transform="translate(0 0)">
      <g id="Group_16172" data-name="Group 16172" clip-path="url(#clip-path)">
        <path id="Path_31906" data-name="Path 31906" d="M269.179,72.346,245.553,49.4l-10.947-12.67L222.782,24.9H210.964L199.135,36.726H187.314V24.9l-34.75-10.947H140.738L128.936,24.9V36.726H82.518V24.9L70.694,13.952H58.715V1.271H46.891L35.07,13.952,23.263,1.271V13.952L.5,24.9V59.676l11.8,12.67V83.293H35.07v23.653H58.715v11.81l11.979,22.931h34.592v35.455L93.465,188.109l11.821,12.679h23.65V188.109h11.8v12.679l11.826,10.939v11.826l11.824,11.818V246.5h11.121l11.8,12.5,11.821,11.121v11.826l11.829-11.826h11.818l3.128-1.546,4.688-19.809-6.259-13.395V211.726l11.821-10.939,10.947-12.679h10.272V165.343h11.8V141.688h-11.8l11.8-22.931V72.346Z" transform="translate(0.862 2.189)" fill="none" stroke="#96b93c" stroke-miterlimit="10" stroke-width="2"/>
      </g>
    </g>
    <path id="Path_31907" data-name="Path 31907" d="M46.891,1.27,35.07,13.952,23.263,1.27V13.952L.5,24.9V59.676l11.8,12.67V83.293H35.07v23.656H58.715v11.807L70.694,141.69h34.595v35.452L93.462,188.111l11.826,12.676h23.65V188.111h11.8v12.676l11.826,10.942v11.824l11.824,11.821V246.5h11.121l11.8,12.5,11.824,11.124v11.826l11.829-11.826h11.816l3.131-1.549,4.685-19.809-6.259-13.392V211.729l11.821-10.942,10.95-12.676h10.269V165.343h11.8V141.69h-11.8l11.8-22.934V72.346L245.553,49.4l-10.947-12.67L222.782,24.9H210.967L199.137,36.725H187.314V24.9l-34.75-10.947H140.738L128.938,24.9V36.725H82.517V24.9L70.694,13.952H58.715V1.27Z" transform="translate(0.861 2.188)" fill="none" stroke="#96b93c" stroke-width="2"/>
    <g id="Group_16175" data-name="Group 16175" transform="translate(0 0)">
      <g id="Group_16174" data-name="Group 16174" clip-path="url(#clip-path)">
        <path id="Path_31908" data-name="Path 31908" d="M269.179,72.346,245.553,49.4l-10.947-12.67L222.782,24.9H210.964L199.135,36.726H187.314V24.9l-34.75-10.947H140.738L128.936,24.9V36.726H82.518V24.9L70.694,13.952H58.715V1.271H46.891L35.07,13.952,23.263,1.271V13.952L.5,24.9V59.676l11.8,12.67V83.293H35.07v23.653H58.715v11.81l11.979,22.931h34.592v35.455L93.465,188.109l11.821,12.679h23.65V188.109h11.8v12.679l11.826,10.939v11.826l11.824,11.818V246.5h11.121l11.8,12.5,11.821,11.121v11.826l11.829-11.826h11.818l3.128-1.546,4.688-19.809-6.259-13.395V211.726l11.821-10.939,10.947-12.679h10.272V165.343h11.8V141.688h-11.8l11.8-22.931V72.346Z" transform="translate(0.862 2.189)" fill="none" stroke="#96b93c" stroke-miterlimit="10" stroke-width="2"/>
      </g>
    </g>
  </g>
</svg>
