<svg xmlns="http://www.w3.org/2000/svg" width="405.265" height="257.127" viewBox="0 0 405.265 257.127">
  <g id="Group_16191" data-name="Group 16191" transform="translate(1.661 1.108)" opacity="0.37">
    <path id="Path_31922" data-name="Path 31922" d="M24.781,15.755h0Zm229.8-7.287-7.754,7.287L231.909,31.247,216.434,46.73l-15.5,7.741-7.287,6.735H178.174l-15.5-6.735H101.193L94.015,46.73H47.549L39.805,39V15.755H32.517L16.576,31.247,9.287,39H1.1L9.287,54.472V69.514l7.288,7.174v8.3H32.517l7.288,7.172-7.288,7.749v7.745l-15.941,7.292V138.17H9.287v38.158l15.494,7.736,7.736,7.738,7.288,7.845,7.743,7.2,7.18,7.736v15.479l-7.18,7.288v8.218h61.386l7.848,7.274,15.492-7.274v-8.218h7.178l7.75-7.288,7.724,7.288v-7.288h7.743l7.743,7.288h7.761v8.218l15.474-8.218h30.516l7.745-7.288h30.408l7.852-7.741-7.852-7.738v-7.736h15.017v-7.2l9.809-.551,3.066-13.441h8.318l2.053-1.591,7.74-7.736h23.237v7.736h46.008V160.829h-7.75l-7.749-7.162v-7.754H346.579l-7.276,7.754v-23.23l7.276-7.287h7.743v-8.205l7.743-7.292-7.743-7.745V84.988h7.743V54.472h30.973l7.167-7.741-8.187-20.151V23.961L362.066,13.146l-8.769-2.51H339.865l-16.514,2.51L316.07,8.469H293.4L285.663.731Z" transform="translate(0.861 0.574)" fill="none" stroke="#96b93c" stroke-width="2"/>
    <path id="Path_31923" data-name="Path 31923" d="M202.471,56.019l15.347-7.658,15.8-15.726L248.5,17.187l7.517-7.076,30.145-7.5,7.609,7.609h22.811l7.36,4.73,16.785-2.567h13.267l8.539,2.438L391.7,25.359v1.794l7.995,19.9-6.311,6.809H361.749V84.386H354v16.582l7.231,7.231L354,115.017v7.529h-7.048l-7.97,7.977v26.694l8.962-9.552h13.8v7.1l8.466,7.82h7.03v20.879H333.593v-7.738h-24.9l-7.97,7.986-1.737,1.343h-8.853l-3.082,13.5-10.03.56v7.131H262v9.415l7.36,7.242-6.662,6.568H232.3l-7.747,7.288H194.512l-14.3,7.435v-7.435h-8.475L164,229.466h-9.4V235.2l-6.541-6.175-8.216,7.729H131.96v8.651l-14.1,6.605-7.609-7.039H49.586v-6.561l7.178-7.288V214.7l-7.554-8.143-7.684-7.131-7.313-7.877-7.731-7.738-15.155-7.638V139.918h7.287V116.28l15.938-7.3v-8.032L42.307,92.7l-8.455-8.318H18.613v-7.62L11.327,69.59V55.042L3.921,40.752h6.735l7.6-8.088,15.6-15.155h5.631V40.062l8.439,8.419h46.44l7.178,7.74h61.741l15.285,6.634,16.407.1ZM286.876,0l-32.02,7.977-8.016,7.536L231.933,30.99,216.6,46.337l-15.321,7.647L194.05,60.6H179.283L164,53.964l-61.429-.1-7.18-7.738H48.9l-7.058-7.04V15.154h-16.2V17.51h4.832l-13.894,13.5L9.643,38.4H0l8.972,16.94V70.584l7.287,7.178v8.981H32.9l6.118,6.017-6.819,7.251v7.461l-15.936,7.3v22.793H8.972v40.065L24.946,185.6l7.563,7.574,7.353,7.913,7.683,7.131,6.866,7.4v14.546l-7.178,7.287v9.875h62.1l8.089,7.5,16.894-7.932V239.11h6.468l7.279-6.846,8.9,8.4v-8.842h6.1l7.738,7.287h7.057v9l16.949-9h30.689l7.745-7.287h30.413l9.054-8.926-8.355-8.236V208.6h15.026v-7.26l9.568-.544,3.064-13.387h7.784l2.485-1.932,7.388-7.4h21.569v7.738H379.6v-25.59h-8.464l-7.032-6.495V145.31H346.935l-5.6,5.961V131.5l6.589-6.6h8.428V116.03l8.262-7.775-8.262-8.262V86.743H364.1V56.221h30.311l8.023-8.669-8.382-20.629V23.7L363.249,12.587l-8.924-2.56-13.776.011-16.075,2.447-7.2-4.62H294.745Z" fill="none" stroke="#96b93c" stroke-width="2"/>
  </g>
</svg>
