<svg xmlns="http://www.w3.org/2000/svg" xmlns:xlink="http://www.w3.org/1999/xlink" width="331.081" height="215.079" viewBox="0 0 331.081 215.079">
  <defs>
    <clipPath id="clip-path">
      <rect id="Rectangle_4408" data-name="Rectangle 4408" width="331.081" height="215.079" fill="none" stroke="#96b93c" stroke-width="2"/>
    </clipPath>
  </defs>
  <g id="Group_16227" data-name="Group 16227" opacity="0.371">
    <g id="Group_16226" data-name="Group 16226" clip-path="url(#clip-path)">
      <path id="Path_31969" data-name="Path 31969" d="M265.527,12.9l1.432,2.036c.378.538.252.649,1.005.625,1.363-.044,2.56-.552,4-.428l5.21.451c1.071.134,1.623.392,2.01-.625.189-.5.281-1.666.878-1.84a2.376,2.376,0,0,1,1.871.949l1.2,3.321.054.153c.551,1.578.74,2.878,2.845,2.149,2.3-.8,3.935.235,6.03-1.539.579-.1.945-.642,1.352-1l1.143-1c.362-.315,1.3.883,1.49,1.157a6.048,6.048,0,0,1,.67,2.707,6.281,6.281,0,0,0,.762,2.465,17.518,17.518,0,0,1,1.04,3.737,12.275,12.275,0,0,0,.243,1.574c.126.41,1.147.493,1.571.741a19.626,19.626,0,0,0,3.489,2.013c3.388,1.363,5.954,3.957,9.761,3.957l3.766.255a25.634,25.634,0,0,1,4.471,1.169,19.262,19.262,0,0,0,5.152.034l2.9-.243a11.369,11.369,0,0,0-.335,1.261c0,.565.6,1.32.046,1.77a1.217,1.217,0,0,0-.428,1.365c.185.785-.106,2.025.451,2.65.379.426.287.288.08.752a3.68,3.68,0,0,0-.1,1.308,3.391,3.391,0,0,0,.035,2.418c.38,1.058,1.693,1.7,1.756,2.87.064,1.2-.886,2.4-.994,3.61a4.406,4.406,0,0,1-.67,1.342,8.4,8.4,0,0,0-1.1,2.083,3.953,3.953,0,0,1-.786,1.1c-.42.421-1,.692-1.421,1.111-1.67,1.272-1.911,2.214-2.507,4.015-.192,0-.141-.8-.231-.833v-.034c-.2-.065-.464-.534-.832-.648-.558-.173-1.174-.17-1.756-.347-.432-.132-.9-.787-1.213-1.1a2.1,2.1,0,0,0-1.7-.544,9.576,9.576,0,0,1-1.814-.6,7.971,7.971,0,0,0-3.558.787c-.559.264-.488.139-1,.139-.3,0-.4.3-.728.359-.506.092-2.017.439-2.426.185-1.028-.638-1.407-.811-2.415.2s-1.863,1-2.576,2.43a6.325,6.325,0,0,0-.853,2.637,2.042,2.042,0,0,1-.181.543,13.124,13.124,0,0,0-.708,1.367l-.947,2.823c-.192.573-.479.7-.751,1.145s.086.955-.381,1.527a3.554,3.554,0,0,1-.7.347c-.275.085-.449-.07-.716-.07-.44,0-.951.475-1.375.613a5.037,5.037,0,0,0-1.929,1.076c-.488.489-.746.576-1.294.231-.941-.428-.489-1.944-2.149-1.168-.772.361-.589,1.03-1.768,1.03-.664,0-1.063-.622-1.791-.37-.387.134-.567.485-1.028.509-1.309.07-2.681-.265-4.043-.2a5.781,5.781,0,0,0-2.357.416c0,.031,0,.035.034.035.125.507,2.277-.229,2.553-.208l5.811.428a6,6,0,0,0,2.877-.556c1.035-.336,1.257.657,2.16.717.523.127.37.35.716.544s1.564.258,1.629.463a4.96,4.96,0,0,1-.289,1.354c-.066.346,0,.718-.081,1.064a2.838,2.838,0,0,1-.347.659,5.529,5.529,0,0,0-.335,1.284l-.416,1.828a14.184,14.184,0,0,1-.485,1.886,4.125,4.125,0,0,1-.831.96c-.47.471-.3,1.892-.3,2.534a28.054,28.054,0,0,0,.555,4.027,3.031,3.031,0,0,1,.023,2.2,10.545,10.545,0,0,0-.046,3.483l.1,1.192c.055.628-.145.463-.635.463a2.938,2.938,0,0,0-.294,1.032,11.621,11.621,0,0,0-.029,1.2c.205.974,1.09,3.61.589,4.5-.453.807-.034,1.963.185,2.823.06.234.319,1.449.023,1.6a13.336,13.336,0,0,1-1.617-.1c-.922,0-1.693-.278-2.576-.278-.358,0-.327.319-.751.046-.186-.12-.276.014-.462.023a4.423,4.423,0,0,1-1.259-.255c-.923-.158-1.964-.664-2.646.324a3.521,3.521,0,0,0-.45,2.325,2.287,2.287,0,0,1,.566.567c.1.025.1.136.1.208-.226.075-.443-.046-.52.243-.084.315-.145.98-.566.509-.4-.452-.7-.095-1.074.093,0,1.267-1.673.361-2.334.8-.76.5-.4,3.556-.289,4.3.174.578.862.965.913,1.527.045.507-.8-.11-.971-.243-.777-.618-2.4-.238-3.292.185-.864.409-1.647-.317-2.634-.046-1.286.352-1.975,2.668-1.975,3.853,0,1.327-.49.6-.866,1.169-.188.281-.654-.11-.947.185-.278.279-.323.93-.439,1.308.2.385.746,1.234,1.178,1.377.927.307.111-1.018.682-1.018.192.761,1.153.884,1.548,1.5.112.177.2.582.462.6.858.065.435-.84.993-1.053.584-.222.174-.3.174-.764,0-.167.58.333.658.382.236.146,1.488.761,1.629.2.054-.217-.281-.2-.07-.5.071-.1.042-.578.2-.578.015-.044.214.2.254.231.6.442.466.754,1.409.833.852.345.568-.5.913-.463.087.01.134.316.358.347a5.446,5.446,0,0,1,.647.023v.058c-.83.21.119,2.69.97,2.881.5.112.969-.443,1.028-.891.031-.236-.094-1.25.139-1.25.005.021,0,.018.023.023.095.386.508.366.508.937a3.657,3.657,0,0,0,.208,1.1,5.273,5.273,0,0,1,.982.081c.019.077.26.464.173.486-.018.075-.978.063-1.109.741-.12.621.936.592.936.914-.635.16-.609.98-.312,1.388.134.613.914,2.349,1.606,2.349.468,0,.5-.637.947-.637a4.389,4.389,0,0,1,.89.046c.1.285-.724.917-.3,1.342.261.262.923.249.786.671-.541,0-.6.332-1.132.44-.05.2.2.193.139.416-.067.239-.7.361-.9.648-.363.526.566,1.228.07,1.6-.753.559.175,1.458.728,1.689.635.469.271.432.682,1.007.591.828,1.4.928,1.917,1.782.362.6.888.85,1.225,1.539a2.44,2.44,0,0,0,1.005,1.261c.673.318.574,1,1.155,1.2.251.089.761.323.843.59.116.378.481.607.554.9a1.71,1.71,0,0,0,.82,1.412c.5.238.982-.292,1.028.359.022.309.61.778.8,1.064.57.873.534,1.324,1.583,1.585.16.04.01.794.173,1.087.34.613.8,1.123,1.121,1.794.152.319.164.753.312,1.087.129.293.449.637.624.937.473.885-.853.506-1.305.475-.038,0-1.687-.662-1.687-.208-.016,0-.018.015-.023.034-.312.311-.9,1.078-1.33.6-.372-.416-.584.266-.9.266-.284,0-.451-.525-.624-.012-.214.636-.779.084-.994-.243-.355-.54-.147-1.048-.947-1.076-.52-.018-.507-.242-.855-.474-.174-.116-.5.005-.7-.011-.422.162-.312,1.109-.889.613-.347-.3-.747-.5-.635.231.059.389-.266.508-.266.8,0,.414.325.332.116.775-.414.877.528.312.739.764.533,1.14-1.339-.014-1.363.555-.034.779-.248.249-.566.116-.482-.2-.74.252-.74-.59,0-.909-.614-.015-.751-.023-.307-.02-.177-.5-.231-.66-.119-.36-1.69.36-1.259-.428.135-.248.244-.509-.185-.509-.457,0-.39.547-.786.486l-1.051-.162c-1.229-.189-.829.365-1.629.949a2.261,2.261,0,0,1-.878.266c-.646-.432-.391.018-1.074.15-.313.12-.578-.139-.786-.046s.092.428.092.521c0,.42-.841.914-1.017.486-.1-.24-.351-.359-.45-.034-.085.279-.415.9-.751.6-.567-.5-.819.439-.647.891.155.407-.474.314-.474.463s.2.251.312.312c.39.218-.207.521-.462.417a5.056,5.056,0,0,1-1.814-2.742c-.283-.355-.451-.677-.878-.822a.268.268,0,0,0-.035-.115c-.565,0-.658.516-1.525.185-.382-.146-1.086-.52-1.086-.995-.021-.005-.018,0-.023-.023-1.305,0-.948-1.342-1.664-1.342-1.177,0-.61-1.2-1.837-1.446-.131-.534-.008-.717-.381-1.122-.238-.259-.1-1.016-.266-1.365-.682-1.443-.956-1.111-2.4-1.354a2.755,2.755,0,0,0-.208-.636c-.012-.113-.187-.686-.289-.717-.271-.084-.49.128-.647-.231-.2-.469-.713-.124-.924-.705-.157-.432-.318-.228-.716-.3-.558-.1-.349-.74-.74-.6a6.105,6.105,0,0,1-.959.394c-.3.049-.491-.419-.5-.417l-1.1.579c-.065.034-.036.381-.081.5-.186.561-.351.81-.936.81-.529,0,.006.644.185.914.558.842-1.012.626-1.271-.151-.336,0-.615.392-.924.336-.411-.075-.452-.458-.878-.139-.577.434-1.3-.749-1.571-1.191-.325-.525-1.237-.325-1.814-.463a1.79,1.79,0,0,0-.691-.052c-.47.072-.717.4-1.377.677-.364.153-.756,0-1.086.081l-.011.012c0,.481.315,1.163.139,1.6a7.391,7.391,0,0,1-1.12,1.712c-.353.146-.779-.356-1.051.116-.2.354.045.811-.046,1.169-.227.89-1.391,1.186-2.172,1.273-1.077.119-1.148.509-2.068.9a5.018,5.018,0,0,1-1.455.15c-.6.089-.829.544-1.363.729-1.483.514-2.695-.956-4.009-.277-.278.235-.836,1.216-1.04,1.261a4.571,4.571,0,0,1-1.432-.289.933.933,0,0,0-.716-.312,2.259,2.259,0,0,1-1.282.023c-.737-.368-.684.247-1.155.058l-.809-.324c-.686-.275-1.311-1.007-1.583-.116a8.613,8.613,0,0,1-2.414,2.406l-.743.9a5.9,5.9,0,0,1,.43.826c.155.373.554.3.554.764,0,.415-.009.463-.323.717-.936.758.066.716.347,1.377.268.632-.6.378-.762.706-.105.212.06.443-.092.694l-.682.671a4.693,4.693,0,0,0-.393.648,2.687,2.687,0,0,0-.173.521,2.639,2.639,0,0,1-.1.393l-8.86.174a6.715,6.715,0,0,1-.636,1.018c-.246.349-.236.807-.462,1.134a7.588,7.588,0,0,0-.924,2.349,9.7,9.7,0,0,0-.2,1.458l.926,1.206a3.262,3.262,0,0,0-1,.287,3.618,3.618,0,0,1-1.814.312,4.714,4.714,0,0,1-2.241-1.007c-.379-.262-.862-.646-1.337-.968l-.581.471a8.455,8.455,0,0,1-2.518-.324,3.056,3.056,0,0,0-2.588.926c-.456.482-.12.8-.9.729-.822-.075-.741-.114-1.421.3-.34.207-.1.567-.15.763a5.733,5.733,0,0,1-.635-.011,2.186,2.186,0,0,0,.277,1.041c.044.492.357.76.092,1.273-.179.346-.011.489.185.822.173.3.7,1.115,1.12.983.3-.094,0,1.021.266,1.088.028.116.624,0,.716-.012a5.465,5.465,0,0,0,.647-.1c.4-.552.028-.278.786-.278.209.843-.163,1.6.9,1.955a9.6,9.6,0,0,1-.266,2.65c-.364,1.277,1.069.671,1.629.856a5.46,5.46,0,0,0,.069,1.446c.062.24.357.928.347,1.053a1.359,1.359,0,0,1-.5.694c-.28.177-.277.587-.277.879,0,.777-.892.376-1.028.648-.07,0,.063.715.1.879.023,0,.017-.006.023.012.565,0,1.444,1.493,1.687,1.932.255.107.362.659.693.741,0,.623-2.434-.225-1.964,1.666.148.6-.6,2.5-1.167,2.65-1.186.313.459,1.353-1.144,1.388l-1.051.023a1.013,1.013,0,0,1-1.086.613c-.843-.249-.912.087-1.606.058-.333-.014-.388-.454-.8-.266l-1.282.59c-.72.331-.165,1.188-1.109,1.215a2.9,2.9,0,0,1-2.121.327,2.685,2.685,0,0,0-1.171.159c-.606.249-2.19,1.321-2.726.59-.44-.6-.289-.667-.289-1.365-.367-.122-1.113.181-1.178-.359s-.889-.788-1.305-.926c-.288-.1-.2.417-.37.59-.258.257-.908.263-1.224.393-.919.378,0,1.04-1.456.636-.335-.093-.612.224-.889.405-.354.231-.91-.249-1.386-.162a3.423,3.423,0,0,0-.566,1c-.111.365.1.706.046.937l-.011.012c-.913,0-.548-.18-1.074-.648a2.869,2.869,0,0,0-1.652-.613l-.035-.254c-.924-.186-1.2.575-2.022.74a3.02,3.02,0,0,1-2.068-.729.8.8,0,0,0-1.1-.393,3,3,0,0,0-1.34,1.886c-.223,1.625-.469.78-1.294.428-.641-.274-1.18-.042-1.837-.127-.427.314-1.082.307-1.374.729-.22.316-.961.008-1.109.139-.111.1-.073.649-.162.671l-1.317.266c-.533.108-.729.407-1.386.382-.8-.03-1.118.343-1.987.625-.241.078-.14.339-.335.44-.316.162-1.475-.266-1.894-.266-.32,0-.132.524-.6.567-.382.035-.675-.279-.982-.475-.405-.257-1.349-.143-1.848-.266-.321-1.3-.475-2.285-1.64-3.17-.927-.309-1.167-.366-1.167-1.249-.229-.057-.545.063-.728-.012s-.14-.447-.37-.382c-.863.246-.563-.253-1.167-.6-.294-.17-.67-.275-.67-.694a2.636,2.636,0,0,0,.035-.474c0-.026-.012-.032-.012-.058-.633,0-.614.152-1.1.475a3.435,3.435,0,0,1-1.317-.417c-.841-.628-.62-1.838-1.975-1.735a2.909,2.909,0,0,1-2.137-.613A4.45,4.45,0,0,1,138,204.7c-.492-.305-1.756-.168-1.756-1.284-.5,0-.831-.14-1.178.208s-.528,1.023-1.016.926a1.747,1.747,0,0,1-.959-.312c-.324-.324-.808-.221-1.248-.255-.124-.009-.508-.211-.554-.116-.255.525.132,1.131-.231,1.654-.445.644.172,2.086-.67,2.048a6.613,6.613,0,0,1-2.484-1.99c-.049-.173-.621-.193-.82-.254-.041-.463.217-.777-.231-1.088s-.3-.425-.323-.9c-.039-.719-1.222-.939-1.768-.694s-1-.616-1.236-.393c-.473.439-1.156.906-1.156-.162,0-1.434-1.765.682-2.507-.174a2.994,2.994,0,0,1-.566-1.666c0-1.075.1-.989-.9-1.342-.519-.184-.708-1.487-.982-2.036-.4-.516.424-1.251-.243-1.863a1.226,1.226,0,0,1-.358-1.573.52.52,0,0,0-.358-.613c0-.015-.008-.02-.011-.035a1.793,1.793,0,0,0-.543-.116l-.012-.012c0-.2-.1-.47-.1-.625-.236-.141-.722.4-.866.532-.266.245-.63-.065-.878.231-.2.238-.316.253-.52.023-.071-.08-.356.1-.462.116-.227.176-.948.873-.912,1.168.064.535.027.624-.439.972-.243.181-.372-.226-.554-.3-.351-.144-.625.308-.8.058-.341-.5-.568.113-.855-.717-.142-.413-1.612.176-1.687.37a2.781,2.781,0,0,1-.693.983c-.438.232-.487-.376-.855-.475-.847-.225-.8.353-1.375.44a1.786,1.786,0,0,0-.762.289c-.288.272-.275.3-.4-.093a5.908,5.908,0,0,1-.289-.949.741.741,0,0,0-.139-1.18c-.237-.174-.6-.627-.9-.683-.256-.046-.358-.095-.358-.359s.251-.641-.058-.729l-.4-.115a1.4,1.4,0,0,1-.82.544,3.721,3.721,0,0,0-.324.683,1.912,1.912,0,0,1-.393.486c-.676.5-.884-.647-1.247.266a1.612,1.612,0,0,1-.716.8c-.551.36-.018.753-.2,1.2-.546,1.381-1.193-.5-1.225-.521a.846.846,0,0,1-.508-.764c-.02-.175-.833-.087-.982-.035-.644.229-.239-.36-.866-.312s-1.384-.626-1.514-.613c-.9.091-.937.924-1.27,1.435-.2.3-.546.2-.659.637a1.884,1.884,0,0,0,.312,1.3c.181.411-.173.975-.1,1.168.147.409.383.537.462,1.007.12.718-.327.6-.867.856l-.561.514c-.1-.215-.441.018-.629-.19-.408-.452-.226.026-.67-.22-.207-.115-.079-.41-.142-.622l-.4.437c-.39.515-.525.16-.878.486-.433.4-.67,1.168-1.386.868-.256-.107-.511-.577-.762-.59-.828-.044-.295-.388-.577-.775-.1-.135-.451.144-.393-.2.077-.454-.017-.492-.324-.764-.15-.132-.582-.625-.7-.544-.907.606.293,2.361-1.525,2.059-.789-.131-.688.359-1.478.359-.439,0-.1.19-.324.393a4.963,4.963,0,0,1-2.206.347c-.955.1-1.813,2.8-2.253,2.8s-.465-.544-1.086-.544c-1.54,0-5.069-1.062-5.2,1.342-.042.789-.827.72-1.363.671l-1.652-.15c-.965-.088-.267-.983-1.479-.66-.726.194-1.894-.348-1.894-1.226-.4,0-.944.355-1.329.185a6.347,6.347,0,0,1-3.154-.115c-.663-.146-1.072.5-1.513.289-.466-.22-.607-.161-.809.324a7,7,0,0,1-1.409.949c-.453.18-1.532,1.379-1.733,1.308-.7-.248-.47-2.638-.924-2.754a7.655,7.655,0,0,0-2.195.185c-.663.1-.953.848-1.456,1.3-.44.393-1.344.146-1.386,1.076-.034.746.113,2.01-.647,2.429-.379.153-.676.533-1.005.671-.243.1-.511-.03-.774.081-.709.3-1.208-.216-2.01-.139-1.988.19-3.3.616-5.221-.44-1.181-.65-1.325.113-2.5-.116-.514-.1-.732-.479-1.236-.1-.267.2-1.544-.349-1.756-.59l.266-.567c.042-.473.773-.4.832-.879a11.027,11.027,0,0,0-.058-1.4c0-.282.116-.545.1-.8a1.418,1.418,0,0,1-.023-.474c-.046-.568-.654-.854-.474-1.446a9.476,9.476,0,0,1,.89-1.412c.465-.84-.39-1.472-.312-2.43.017-.21-.248-.169-.324-.312-.1-.2,0-.674,0-.9,0-.532.14-.485.451-.822.536-.582-.513-1.848-.612-2.464.253-.51.564-.039.739-.405.148-.31-.275-.575.034-.96.217-.269-.4-1.77-.716-1.944-.561-.31-.518-.447-.428-1.157a19.192,19.192,0,0,0,.012-2.5c0-1.144,1.625-.574,1.7-.8.031,0,.042-.012.07-.012.142-.573-.045-1.25.45-1.747.2-.2.551-.242.659-.5a6.084,6.084,0,0,0,.831-1.435c.2-.4.554-.1.786-.567a4.76,4.76,0,0,0-.612-2.811c-.6-.4-.5-.749-.635-1.423a3.359,3.359,0,0,0-.89,0,5.913,5.913,0,0,1-.924-.185c-1.22-.156-.523-.66-.82-1.516-.136-.39-.883-.754-.9-1.342-.255-.408.018-.925-.185-1.331-.235-.47-.16-1-.416-1.458-.478-.858-.546-2.037-1.721-2.037l-.012-.011c-.091-.359.009-.783-.046-1.157a5.845,5.845,0,0,0-.393-1.076c-.035-.1.013-.547-.046-.567l-.739-.706c-.487-.465-.15-.6,0-1.111-.263-.794.248-1.673.012-2.36-.152-.44-.064-1.362-.266-1.609-.262-.32-.821-.092-.577-.671.164-.39.405-.566.289-1.03-.721-.178-1.068.116-1.8.092-.949-.03-1.131-.684-1.479-1.4-.242-.5-.474.008-.831.208-.3.167-1.351-.234-1.663-.382-.433-.2-.893.12-1.294-.266l-.82-1.5c-.587-.144-1.35.44-2.253.2-1.086-.293-1.266-1.051-2-1.678-.633-.542-1.178-.359-1.883-.625-.328-.124-.305-.574-.485-.787-.2-.235-.813-.11-1.144-.359a5.3,5.3,0,0,1-.982-1.134c-.445-.63-.75-.455-1.34-.636-.064-.02-.712-.859-.947-1.03-.289-.209.081-.573.081-.8,0-.3-.384-.611-.4-.937-.231-.871.178-1.27-.855-1.643-1.238-.447-.812.254-1.12-1.053-.132-.558-.72-.8-.855-1.3-.063-.233-.023-.542-.173-.729a5.868,5.868,0,0,1-.566-.66c-.205-.334-.539-.188-.623-.347-.311-.589.02-.423-.589-.833a1.912,1.912,0,0,1-.716-1.249c-.174-.694-.548-.208-.728-.683a8.611,8.611,0,0,1-.37-.868l-.935-.231.2-.567c.2-.359.733-.25,1.086-.359.278-.086.681-.073.832-.359s.218-.174.416-.011a.382.382,0,0,0,.577-.231c.5-.32.364,1.334,1.5.2a1.738,1.738,0,0,0,.578-2.187c-.082-.172.444-.873.508-1.134,1.066-.209.474-.427.474-1.134a5.9,5.9,0,0,1,1.156-.289c.354-.021,1,.34,1.144-.023.109-.286-.022-.721.046-1.03.129-.582.658-.584.774-.983.177-.614-.043-1.09.346-1.678.174-.262-.127-.493-.127-.775,0-.365.407-.689.543-1.041.855-1.142-.623-2.878-1.455-3.714-.336-.338-.752-.148-1.144-.671a3.605,3.605,0,0,0-1.317-1.353c-.308-.182-.188-.566-.67-.81-.464-.235-.913-.046-1.386-.046a2.65,2.65,0,0,1,.173-1.643c.836-.907.481-.857.7-1.921,0-.338.13-1.126.474-1.25.323-.116.258-.318.1-.486a1.324,1.324,0,0,0-.32-.243c-.435-.231.511-1.4.624-1.724.1-.3.269-1.349-.347-1.2-.867.206.476-1.114.509-1.261a3.225,3.225,0,0,1,.393-1.111c.464-.879.417-.034.82-.44.091-.092,0-.568-.046-.694-.1-.313.066-.29.15-.544s-.258-.489-.393-.671a7.728,7.728,0,0,1-1.906-3.124c-.172-.954-1.19-1-.866-2.314.33-.065,1.172-.637,1.34-.521.435.3.941-.173,1.179-.532.864-1.309,1.606-.808,1.606-2.534.281-.07.473-.522.751-.451a5.441,5.441,0,0,1,1.1.555c.483.281,1.461,1.046,1.282.116-.35-1.826,1.072-1.622,2.206-1.782.118.357,1.254,1.3,1.71,1.146,1.372-.46,1.08,1.48,1.675.6.663-.276.451-1.3,1.051-.763.583.524.361-.725.751-.394.209.178.561.292.658-.092.364,0,.593.484.993.058.286-.3.12-.883.485-1,.239-.073.129-.509.2-.694.032-.09.206-.153.219-.208.358-.044.8-.853.8-1.169,0-.183-.148-.165-.173-.289-.17-.024-.336-.438-.4-.567-.242-.666.584-.494.751-1.168.067-.268.029-1.635.127-1.712.659-.519,3.284-1.042,3.5-1.863a2.063,2.063,0,0,1,.531-.972c.528-.414,1.791-.8,1.975-1.469a2.536,2.536,0,0,1,.555-1.111,2.946,2.946,0,0,0,.15-.613,3.176,3.176,0,0,1,.855-1.446,3.848,3.848,0,0,1,1.075-.532,1.735,1.735,0,0,0,.82-.416c.263-.214,1-.831,1.04-1.157s-.129-.733.162-.972c.525-.432.279-1.107.381-1.655.018-.252.184-.674,0-.879-.162-.181-.365-.333-.254-.544.231-.439.689-.791.912-1.3a.4.4,0,0,0-.045-.4,4.21,4.21,0,0,0-2.681-.975c-1.411.207-1.317-.59-2.472-1.2-.739-.392-.516-.565-.855-1.168-.285-.507-.886-.806-1.248-1.261-.252-.317-.177-1.423-.578-1.458-.905-.079-.95-.449-.8-1.319-.583-.752-.371-2.614-1.271-2.962-.928-.359-2.443-1.365-2.692-2.384a4.963,4.963,0,0,0-.139-.822,4.135,4.135,0,0,0-1.208-.506c-.386-.149-.73-.338-.8-.628-.021-.006-.018,0-.023-.023h-.023c-.018-.053-.155.011-.2.023a.759.759,0,0,1-.439.023c-1.145,0-2.48-.065-2.611-1.412l-.081-.833-.589-.22-.635-.289c-.219-.1-.85.285-1.351.162-1.037-.255-1.578-1.54-1.86-2.407-1.221,0-2.6.355-2.6-1.342-.12-.024-.232-.134-.346-.162a10.2,10.2,0,0,0-.393-1.631c-.364-.686-.786-1.1-.786-1.9s.093-.517-.324-1.145a2.559,2.559,0,0,1-.381-1.065c-.132-.694.155-.667.416-1.145.386-.708-.993-.639-.416-1.284.417-.466.247-1.825-.427-2.048a1.894,1.894,0,0,1,.5-.613.081.081,0,0,1,.034-.069c0-.061,0-.027.046-.139a4.128,4.128,0,0,0-.566-1.516c0-.063-.059-.06-.069-.093-.977-.242-1.594-.126-1.964-1.261-.025,0-.051.01-.058-.012-2.345,0-1.413-3.669-2.437-3.922-.155-.629.325-1.279.393-1.909.063-.584-.478-.336-.89-.879a3.756,3.756,0,0,0-.762-1.527,7.013,7.013,0,0,1-.635-1.4c-.288-.655.009-1.131.323-1.689a9.444,9.444,0,0,0,1.282-5.114,3.2,3.2,0,0,0,.139-.96c-.015-.3-.239-.436-.15-.81.129-.547.583-.8.831-1.25.182-.332-.211-.523.231-1.018a4.968,4.968,0,0,0,.046-1.446c0-.326-.2-.588-.2-.9,0-.29.584-.584.428-.74-.442-.444-.248-.219-.139-.66.366-.046.748-.252,1.144-.312.607-.093.155-.689.555-.671l.751.034c.376.018.756-.081,1.132-.081a10.345,10.345,0,0,0,1.652-.023c.227-.071,1.165-.089,1.19-.44.017-.234.393-.555.266-.729-.148-.2-.148-.163-.127-.416.03-.364-.227-.327-.335-.544-.2-.392.56-.416.774-.405.622.033.758-.31,1.352-.243.186.021.479.193.6.034.176-.229-.116-.49.347-.578.573-.11,1.663.473,1.663-.486.134-.333.13-.449-.22-.567,0-.323-.042-.976.185-1.2.173-.173-.416-.882-.416-1.227a13.385,13.385,0,0,1,.324-2.638c.573-.145.481-.325.162-.729-.475-.6-.19-.471-.07-.949.021-.005.018,0,.023-.023.942-.233,1.013-1.267,1.317-2.013.15-.369.439-.47.589-.752l.751-.59c.663,1.266,1.712.933,3.061.983,1.541.058,3.038,2.543,4.309,3.425.758.526,2.132.655,2.715,1.273.716.758,1.745,1.428,2.449,2.2.734.8,3.593.592,4.563.8,2.724.578,3.181,2.3,1.976,4.582A4.069,4.069,0,0,1,34.141,16c-.662.283-1.438.022-2.126.151a5.665,5.665,0,0,0-2.114.856,9.862,9.862,0,0,0-1.1.613c-1.123.942-.7,2.795-1.213,4.108-.627,1.594-1.548,2.531-1.305,4.4a5.365,5.365,0,0,0,1.779,2.615,4.3,4.3,0,0,0,2.23.521c1.4.181,2.226,1.109,3.546,1.516a13.767,13.767,0,0,0,3.276.54A12.952,12.952,0,0,0,39.5,31.23c1.26-.176,2.3,0,3.512-.636l5.118-2.684c1.95-1.023,5.457-.21,7.659-.266a5.168,5.168,0,0,1,2.68.185,3.969,3.969,0,0,0,1.929.6,3.2,3.2,0,0,1,2.3,1.053,6.992,6.992,0,0,0,2.588,1.562,6.157,6.157,0,0,0,2.822.589,13.653,13.653,0,0,0,1.879-.323,9.292,9.292,0,0,1,3.674-.3c1.29.283,1.793,1.652,3.234,1.99.245.058.481.126.709.2,1.4.464,2.543,1.161,4.073,1.6,2.6.751,5.153.445,7.775,1.608,1.208.536,2,1.947,3.223,2.175a19.212,19.212,0,0,1,2.183.255c.644.2,1.008.8,1.663.926a10.425,10.425,0,0,0,4.679-.59,6.451,6.451,0,0,1,3.038-.52c.179.023.336.053.482.082a2.318,2.318,0,0,0,1.343-.024c1.161-.376,1.389-1.2,2.761-1.2.809,0,1.638-1.357,2.31-1.77.907-.558,1.837-1.564,2.969-1.62a15.151,15.151,0,0,1,2.657.382c2.976.4,3.978,1.167,6.25,3.193a8.791,8.791,0,0,0,2.83,1.816c1.8.624,2.707-.839,4.008-1.566a2.919,2.919,0,0,1,.925-.343c.969-.17,1.637.342,2.553.521.959.187,2.241-.5,3.177-.729,1.135-.276,2.678-.948,3.8-.752.767.134,1.42,1.126,2.056,1.573,1.305.919,2.532,1.913,4.286,1.481,1.6-.394,2.268-1.275,4.044-.825a12.1,12.1,0,0,1,4.019,1.9l1.483.984,1.393.925c1.29.857,2.363,1.736,4,1.736,1.915,0,3.062-1.538,4.84-1.747a26.72,26.72,0,0,1,2.737.129,2.968,2.968,0,0,0,1.317-.233c1.994-.968,3.606-2.606,5.834-3.147.947-.23,1.938.089,2.911-.127a7.641,7.641,0,0,0,2.854-1.828c.787-.62.725-2.376,1.917-2.6.81-.154,1.343-.07,1.976-.729.762-.794,1.057-1.979,1.871-2.719a7.462,7.462,0,0,0,1.132-1.146c.381-.573.428-1.4.866-1.839.323-.32.848-1.02,1.155-1.4,1.472-1.823,3.9-2.352,5.522-3.9,1.241-1.187,1.508-3.677,3.015-4.454,1.063-.548,1.708-1.226,3.107-1.226.656,0,1.121.466,1.848.162l3.073-1.284c1.182-.494,2.1-1.627,3.281-2.152a4.725,4.725,0,0,1,1.924-.384c1.776-.013,3.546.664,5.2-.044a10.266,10.266,0,0,1,4.055-1.18c1.338,0,2.071.48,3.5.162.651-.145,1.294-.324,1.941-.486l1.016-.255a21.024,21.024,0,0,1,2.842-.879,7.377,7.377,0,0,0,4.02-1.157,25.819,25.819,0,0,1,4.187-2.343c1.99-.287,3.975-1.139,6.105-1.139,1.562,0,3.494-1.277,4.794-.59a4.118,4.118,0,0,0,1.964.474c.826-.023,1.431-.224,2.091.255a5.252,5.252,0,0,0,3.951,1.215c.342-.036,1.681-.709,2.339-.862.433.825.243,1.159.295,2.065.024.415.523.815.554,1.261.025.353-.1.6.277.694a19.3,19.3,0,0,1,2.206.9,5.317,5.317,0,0,1,.89.347c.256.158.338.448.531.671" transform="translate(-0.502 -0.501)" fill="none" stroke="#96b93c" stroke-width="2" fill-rule="evenodd"/>
      <path id="Path_31970" data-name="Path 31970" d="M265.527,12.9l1.432,2.036c.378.538.252.649,1.005.625,1.363-.044,2.56-.552,4-.428l5.21.451c1.071.134,1.623.392,2.01-.625.189-.5.281-1.666.878-1.84a2.376,2.376,0,0,1,1.871.949l1.2,3.321.054.153c.551,1.578.74,2.878,2.845,2.149,2.3-.8,3.935.235,6.03-1.539.579-.1.945-.642,1.352-1l1.143-1c.362-.315,1.3.883,1.49,1.157a6.048,6.048,0,0,1,.67,2.707,6.281,6.281,0,0,0,.762,2.465,17.518,17.518,0,0,1,1.04,3.737,12.275,12.275,0,0,0,.243,1.574c.126.41,1.147.493,1.571.741a19.626,19.626,0,0,0,3.489,2.013c3.388,1.363,5.954,3.957,9.761,3.957l3.766.255a25.634,25.634,0,0,1,4.471,1.169,19.262,19.262,0,0,0,5.152.034l2.9-.243a11.369,11.369,0,0,0-.335,1.261c0,.565.6,1.32.046,1.77a1.217,1.217,0,0,0-.428,1.365c.185.785-.106,2.025.451,2.65.379.426.287.288.08.752a3.68,3.68,0,0,0-.1,1.308,3.391,3.391,0,0,0,.035,2.418c.38,1.058,1.693,1.7,1.756,2.87.064,1.2-.886,2.4-.994,3.61a4.406,4.406,0,0,1-.67,1.342,8.4,8.4,0,0,0-1.1,2.083,3.953,3.953,0,0,1-.786,1.1c-.42.421-1,.692-1.421,1.111-1.67,1.272-1.911,2.214-2.507,4.015-.192,0-.141-.8-.231-.833v-.034c-.2-.065-.464-.534-.832-.648-.558-.173-1.174-.17-1.756-.347-.432-.132-.9-.787-1.213-1.1a2.1,2.1,0,0,0-1.7-.544,9.576,9.576,0,0,1-1.814-.6,7.971,7.971,0,0,0-3.558.787c-.559.264-.488.139-1,.139-.3,0-.4.3-.728.359-.506.092-2.017.439-2.426.185-1.028-.638-1.407-.811-2.415.2s-1.863,1-2.576,2.43a6.325,6.325,0,0,0-.853,2.637,2.042,2.042,0,0,1-.181.543,13.124,13.124,0,0,0-.708,1.367l-.947,2.823c-.192.573-.479.7-.751,1.145s.086.955-.381,1.527a3.554,3.554,0,0,1-.7.347c-.275.085-.449-.07-.716-.07-.44,0-.951.475-1.375.613a5.037,5.037,0,0,0-1.929,1.076c-.488.489-.746.576-1.294.231-.941-.428-.489-1.944-2.149-1.168-.772.361-.589,1.03-1.768,1.03-.664,0-1.063-.622-1.791-.37-.387.134-.567.485-1.028.509-1.309.07-2.681-.265-4.043-.2a5.781,5.781,0,0,0-2.357.416c0,.031,0,.035.034.035.125.507,2.277-.229,2.553-.208l5.811.428a6,6,0,0,0,2.877-.556c1.035-.336,1.257.657,2.16.717.523.127.37.35.716.544s1.564.258,1.629.463a4.96,4.96,0,0,1-.289,1.354c-.066.346,0,.718-.081,1.064a2.838,2.838,0,0,1-.347.659,5.529,5.529,0,0,0-.335,1.284l-.416,1.828a14.184,14.184,0,0,1-.485,1.886,4.125,4.125,0,0,1-.831.96c-.47.471-.3,1.892-.3,2.534a28.054,28.054,0,0,0,.555,4.027,3.031,3.031,0,0,1,.023,2.2,10.545,10.545,0,0,0-.046,3.483l.1,1.192c.055.628-.145.463-.635.463a2.938,2.938,0,0,0-.294,1.032,11.621,11.621,0,0,0-.029,1.2c.205.974,1.09,3.61.589,4.5-.453.807-.034,1.963.185,2.823.06.234.319,1.449.023,1.6a13.336,13.336,0,0,1-1.617-.1c-.922,0-1.693-.278-2.576-.278-.358,0-.327.319-.751.046-.186-.12-.276.014-.462.023a4.423,4.423,0,0,1-1.259-.255c-.923-.158-1.964-.664-2.646.324a3.521,3.521,0,0,0-.45,2.325,2.287,2.287,0,0,1,.566.567c.1.025.1.136.1.208-.226.075-.443-.046-.52.243-.084.315-.145.98-.566.509-.4-.452-.7-.095-1.074.093,0,1.267-1.673.361-2.334.8-.76.5-.4,3.556-.289,4.3.174.578.862.965.913,1.527.045.507-.8-.11-.971-.243-.777-.618-2.4-.238-3.292.185-.864.409-1.647-.317-2.634-.046-1.286.352-1.975,2.668-1.975,3.853,0,1.327-.49.6-.866,1.169-.188.281-.654-.11-.947.185-.278.279-.323.93-.439,1.308.2.385.746,1.234,1.178,1.377.927.307.111-1.018.682-1.018.192.761,1.153.884,1.548,1.5.112.177.2.582.462.6.858.065.435-.84.993-1.053.584-.222.174-.3.174-.764,0-.167.58.333.658.382.236.146,1.488.761,1.629.2.054-.217-.281-.2-.07-.5.071-.1.042-.578.2-.578.015-.044.214.2.254.231.6.442.466.754,1.409.833.852.345.568-.5.913-.463.087.01.134.316.358.347a5.446,5.446,0,0,1,.647.023v.058c-.83.21.119,2.69.97,2.881.5.112.969-.443,1.028-.891.031-.236-.094-1.25.139-1.25.005.021,0,.018.023.023.095.386.508.366.508.937a3.657,3.657,0,0,0,.208,1.1,5.273,5.273,0,0,1,.982.081c.019.077.26.464.173.486-.018.075-.978.063-1.109.741-.12.621.936.592.936.914-.635.16-.609.98-.312,1.388.134.613.914,2.349,1.606,2.349.468,0,.5-.637.947-.637a4.389,4.389,0,0,1,.89.046c.1.285-.724.917-.3,1.342.261.262.923.249.786.671-.541,0-.6.332-1.132.44-.05.2.2.193.139.416-.067.239-.7.361-.9.648-.363.526.566,1.228.07,1.6-.753.559.175,1.458.728,1.689.635.469.271.432.682,1.007.591.828,1.4.928,1.917,1.782.362.6.888.85,1.225,1.539a2.44,2.44,0,0,0,1.005,1.261c.673.318.574,1,1.155,1.2.251.089.761.323.843.59.116.378.481.607.554.9a1.71,1.71,0,0,0,.82,1.412c.5.238.982-.292,1.028.359.022.309.61.778.8,1.064.57.873.534,1.324,1.583,1.585.16.04.01.794.173,1.087.34.613.8,1.123,1.121,1.794.152.319.164.753.312,1.087.129.293.449.637.624.937.473.885-.853.506-1.305.475-.038,0-1.687-.662-1.687-.208-.016,0-.018.015-.023.034-.312.311-.9,1.078-1.33.6-.372-.416-.584.266-.9.266-.284,0-.451-.525-.624-.012-.214.636-.779.084-.994-.243-.355-.54-.147-1.048-.947-1.076-.52-.018-.507-.242-.855-.474-.174-.116-.5.005-.7-.011-.422.162-.312,1.109-.889.613-.347-.3-.747-.5-.635.231.059.389-.266.508-.266.8,0,.414.325.332.116.775-.414.877.528.312.739.764.533,1.14-1.339-.014-1.363.555-.034.779-.248.249-.566.116-.482-.2-.74.252-.74-.59,0-.909-.614-.015-.751-.023-.307-.02-.177-.5-.231-.66-.119-.36-1.69.36-1.259-.428.135-.248.244-.509-.185-.509-.457,0-.39.547-.786.486l-1.051-.162c-1.229-.189-.829.365-1.629.949a2.261,2.261,0,0,1-.878.266c-.646-.432-.391.018-1.074.15-.313.12-.578-.139-.786-.046s.092.428.092.521c0,.42-.841.914-1.017.486-.1-.24-.351-.359-.45-.034-.085.279-.415.9-.751.6-.567-.5-.819.439-.647.891.155.407-.474.314-.474.463s.2.251.312.312c.39.218-.207.521-.462.417a5.056,5.056,0,0,1-1.814-2.742c-.283-.355-.451-.677-.878-.822a.268.268,0,0,0-.035-.115c-.565,0-.658.516-1.525.185-.382-.146-1.086-.52-1.086-.995-.021-.005-.018,0-.023-.023-1.305,0-.948-1.342-1.664-1.342-1.177,0-.61-1.2-1.837-1.446-.131-.534-.008-.717-.381-1.122-.238-.259-.1-1.016-.266-1.365-.682-1.443-.956-1.111-2.4-1.354a2.755,2.755,0,0,0-.208-.636c-.012-.113-.187-.686-.289-.717-.271-.084-.49.128-.647-.231-.2-.469-.713-.124-.924-.705-.157-.432-.318-.228-.716-.3-.558-.1-.349-.74-.74-.6a6.105,6.105,0,0,1-.959.394c-.3.049-.491-.419-.5-.417l-1.1.579c-.065.034-.036.381-.081.5-.186.561-.351.81-.936.81-.529,0,.006.644.185.914.558.842-1.012.626-1.271-.151-.336,0-.615.392-.924.336-.411-.075-.452-.458-.878-.139-.577.434-1.3-.749-1.571-1.191-.325-.525-1.237-.325-1.814-.463a1.79,1.79,0,0,0-.691-.052c-.47.072-.717.4-1.377.677-.364.153-.756,0-1.086.081l-.011.012c0,.481.315,1.163.139,1.6a7.391,7.391,0,0,1-1.12,1.712c-.353.146-.779-.356-1.051.116-.2.354.045.811-.046,1.169-.227.89-1.391,1.186-2.172,1.273-1.077.119-1.148.509-2.068.9a5.018,5.018,0,0,1-1.455.15c-.6.089-.829.544-1.363.729-1.483.514-2.695-.956-4.009-.277-.278.235-.836,1.216-1.04,1.261a4.571,4.571,0,0,1-1.432-.289.933.933,0,0,0-.716-.312,2.259,2.259,0,0,1-1.282.023c-.737-.368-.684.247-1.155.058l-.809-.324c-.686-.275-1.311-1.007-1.583-.116a8.613,8.613,0,0,1-2.414,2.406l-.743.9a5.9,5.9,0,0,1,.43.826c.155.373.554.3.554.764,0,.415-.009.463-.323.717-.936.758.066.716.347,1.377.268.632-.6.378-.762.706-.105.212.06.443-.092.694l-.682.671a4.693,4.693,0,0,0-.393.648,2.687,2.687,0,0,0-.173.521,2.639,2.639,0,0,1-.1.393l-8.86.174a6.715,6.715,0,0,1-.636,1.018c-.246.349-.236.807-.462,1.134a7.588,7.588,0,0,0-.924,2.349,9.7,9.7,0,0,0-.2,1.458l.926,1.206a3.262,3.262,0,0,0-1,.287,3.618,3.618,0,0,1-1.814.312,4.714,4.714,0,0,1-2.241-1.007c-.379-.262-.862-.646-1.337-.968l-.581.471a8.455,8.455,0,0,1-2.518-.324,3.056,3.056,0,0,0-2.588.926c-.456.482-.12.8-.9.729-.822-.075-.741-.114-1.421.3-.34.207-.1.567-.15.763a5.733,5.733,0,0,1-.635-.011,2.186,2.186,0,0,0,.277,1.041c.044.492.357.76.092,1.273-.179.346-.011.489.185.822.173.3.7,1.115,1.12.983.3-.094,0,1.021.266,1.088.028.116.624,0,.716-.012a5.465,5.465,0,0,0,.647-.1c.4-.552.028-.278.786-.278.209.843-.163,1.6.9,1.955a9.6,9.6,0,0,1-.266,2.65c-.364,1.277,1.069.671,1.629.856a5.46,5.46,0,0,0,.069,1.446c.062.24.357.928.347,1.053a1.359,1.359,0,0,1-.5.694c-.28.177-.277.587-.277.879,0,.777-.892.376-1.028.648-.07,0,.063.715.1.879.023,0,.017-.006.023.012.565,0,1.444,1.493,1.687,1.932.255.107.362.659.693.741,0,.623-2.434-.225-1.964,1.666.148.6-.6,2.5-1.167,2.65-1.186.313.459,1.353-1.144,1.388l-1.051.023a1.013,1.013,0,0,1-1.086.613c-.843-.249-.912.087-1.606.058-.333-.014-.388-.454-.8-.266l-1.282.59c-.72.331-.165,1.188-1.109,1.215a2.9,2.9,0,0,1-2.121.327,2.685,2.685,0,0,0-1.171.159c-.606.249-2.19,1.321-2.726.59-.44-.6-.289-.667-.289-1.365-.367-.122-1.113.181-1.178-.359s-.889-.788-1.305-.926c-.288-.1-.2.417-.37.59-.258.257-.908.263-1.224.393-.919.378,0,1.04-1.456.636-.335-.093-.612.224-.889.405-.354.231-.91-.249-1.386-.162a3.423,3.423,0,0,0-.566,1c-.111.365.1.706.046.937l-.011.012c-.913,0-.548-.18-1.074-.648a2.869,2.869,0,0,0-1.652-.613l-.035-.254c-.924-.186-1.2.575-2.022.74a3.02,3.02,0,0,1-2.068-.729.8.8,0,0,0-1.1-.393,3,3,0,0,0-1.34,1.886c-.223,1.625-.469.78-1.294.428-.641-.274-1.18-.042-1.837-.127-.427.314-1.082.307-1.374.729-.22.316-.961.008-1.109.139-.111.1-.073.649-.162.671l-1.317.266c-.533.108-.729.407-1.386.382-.8-.03-1.118.343-1.987.625-.241.078-.14.339-.335.44-.316.162-1.475-.266-1.894-.266-.32,0-.132.524-.6.567-.382.035-.675-.279-.982-.475-.405-.257-1.349-.143-1.848-.266-.321-1.3-.475-2.285-1.64-3.17-.927-.309-1.167-.366-1.167-1.249-.229-.057-.545.063-.728-.012s-.14-.447-.37-.382c-.863.246-.563-.253-1.167-.6-.294-.17-.67-.275-.67-.694a2.636,2.636,0,0,0,.035-.474c0-.026-.012-.032-.012-.058-.633,0-.614.152-1.1.475a3.435,3.435,0,0,1-1.317-.417c-.841-.628-.62-1.838-1.975-1.735a2.909,2.909,0,0,1-2.137-.613A4.45,4.45,0,0,1,138,204.7c-.492-.305-1.756-.168-1.756-1.284-.5,0-.831-.14-1.178.208s-.528,1.023-1.016.926a1.747,1.747,0,0,1-.959-.312c-.324-.324-.808-.221-1.248-.255-.124-.009-.508-.211-.554-.116-.255.525.132,1.131-.231,1.654-.445.644.172,2.086-.67,2.048a6.613,6.613,0,0,1-2.484-1.99c-.049-.173-.621-.193-.82-.254-.041-.463.217-.777-.231-1.088s-.3-.425-.323-.9c-.039-.719-1.222-.939-1.768-.694s-1-.616-1.236-.393c-.473.439-1.156.906-1.156-.162,0-1.434-1.765.682-2.507-.174a2.994,2.994,0,0,1-.566-1.666c0-1.075.1-.989-.9-1.342-.519-.184-.708-1.487-.982-2.036-.4-.516.424-1.251-.243-1.863a1.226,1.226,0,0,1-.358-1.573.52.52,0,0,0-.358-.613c0-.015-.008-.02-.011-.035a1.793,1.793,0,0,0-.543-.116l-.012-.012c0-.2-.1-.47-.1-.625-.236-.141-.722.4-.866.532-.266.245-.63-.065-.878.231-.2.238-.316.253-.52.023-.071-.08-.356.1-.462.116-.227.176-.948.873-.912,1.168.064.535.027.624-.439.972-.243.181-.372-.226-.554-.3-.351-.144-.625.308-.8.058-.341-.5-.568.113-.855-.717-.142-.413-1.612.176-1.687.37a2.781,2.781,0,0,1-.693.983c-.438.232-.487-.376-.855-.475-.847-.225-.8.353-1.375.44a1.786,1.786,0,0,0-.762.289c-.288.272-.275.3-.4-.093a5.908,5.908,0,0,1-.289-.949.741.741,0,0,0-.139-1.18c-.237-.174-.6-.627-.9-.683-.256-.046-.358-.095-.358-.359s.251-.641-.058-.729l-.4-.115a1.4,1.4,0,0,1-.82.544,3.721,3.721,0,0,0-.324.683,1.912,1.912,0,0,1-.393.486c-.676.5-.884-.647-1.247.266a1.612,1.612,0,0,1-.716.8c-.551.36-.018.753-.2,1.2-.546,1.381-1.193-.5-1.225-.521a.846.846,0,0,1-.508-.764c-.02-.175-.833-.087-.982-.035-.644.229-.239-.36-.866-.312s-1.384-.626-1.514-.613c-.9.091-.937.924-1.27,1.435-.2.3-.546.2-.659.637a1.884,1.884,0,0,0,.312,1.3c.181.411-.173.975-.1,1.168.147.409.383.537.462,1.007.12.718-.327.6-.867.856l-.561.514c-.1-.215-.441.018-.629-.19-.408-.452-.226.026-.67-.22-.207-.115-.079-.41-.142-.622l-.4.437c-.39.515-.525.16-.878.486-.433.4-.67,1.168-1.386.868-.256-.107-.511-.577-.762-.59-.828-.044-.295-.388-.577-.775-.1-.135-.451.144-.393-.2.077-.454-.017-.492-.324-.764-.15-.132-.582-.625-.7-.544-.907.606.293,2.361-1.525,2.059-.789-.131-.688.359-1.478.359-.439,0-.1.19-.324.393a4.963,4.963,0,0,1-2.206.347c-.955.1-1.813,2.8-2.253,2.8s-.465-.544-1.086-.544c-1.54,0-5.069-1.062-5.2,1.342-.042.789-.827.72-1.363.671l-1.652-.15c-.965-.088-.267-.983-1.479-.66-.726.194-1.894-.348-1.894-1.226-.4,0-.944.355-1.329.185a6.347,6.347,0,0,1-3.154-.115c-.663-.146-1.072.5-1.513.289-.466-.22-.607-.161-.809.324a7,7,0,0,1-1.409.949c-.453.18-1.532,1.379-1.733,1.308-.7-.248-.47-2.638-.924-2.754a7.655,7.655,0,0,0-2.195.185c-.663.1-.953.848-1.456,1.3-.44.393-1.344.146-1.386,1.076-.034.746.113,2.01-.647,2.429-.379.153-.676.533-1.005.671-.243.1-.511-.03-.774.081-.709.3-1.208-.216-2.01-.139-1.988.19-3.3.616-5.221-.44-1.181-.65-1.325.113-2.5-.116-.514-.1-.732-.479-1.236-.1-.267.2-1.544-.349-1.756-.59l.266-.567c.042-.473.773-.4.832-.879a11.027,11.027,0,0,0-.058-1.4c0-.282.116-.545.1-.8a1.418,1.418,0,0,1-.023-.474c-.046-.568-.654-.854-.474-1.446a9.476,9.476,0,0,1,.89-1.412c.465-.84-.39-1.472-.312-2.43.017-.21-.248-.169-.324-.312-.1-.2,0-.674,0-.9,0-.532.14-.485.451-.822.536-.582-.513-1.848-.612-2.464.253-.51.564-.039.739-.405.148-.31-.275-.575.034-.96.217-.269-.4-1.77-.716-1.944-.561-.31-.518-.447-.428-1.157a19.192,19.192,0,0,0,.012-2.5c0-1.144,1.625-.574,1.7-.8.031,0,.042-.012.07-.012.142-.573-.045-1.25.45-1.747.2-.2.551-.242.659-.5a6.084,6.084,0,0,0,.831-1.435c.2-.4.554-.1.786-.567a4.76,4.76,0,0,0-.612-2.811c-.6-.4-.5-.749-.635-1.423a3.359,3.359,0,0,0-.89,0,5.913,5.913,0,0,1-.924-.185c-1.22-.156-.523-.66-.82-1.516-.136-.39-.883-.754-.9-1.342-.255-.408.018-.925-.185-1.331-.235-.47-.16-1-.416-1.458-.478-.858-.546-2.037-1.721-2.037l-.012-.011c-.091-.359.009-.783-.046-1.157a5.845,5.845,0,0,0-.393-1.076c-.035-.1.013-.547-.046-.567l-.739-.706c-.487-.465-.15-.6,0-1.111-.263-.794.248-1.673.012-2.36-.152-.44-.064-1.362-.266-1.609-.262-.32-.821-.092-.577-.671.164-.39.405-.566.289-1.03-.721-.178-1.068.116-1.8.092-.949-.03-1.131-.684-1.479-1.4-.242-.5-.474.008-.831.208-.3.167-1.351-.234-1.663-.382-.433-.2-.893.12-1.294-.266l-.82-1.5c-.587-.144-1.35.44-2.253.2-1.086-.293-1.266-1.051-2-1.678-.633-.542-1.178-.359-1.883-.625-.328-.124-.305-.574-.485-.787-.2-.235-.813-.11-1.144-.359a5.3,5.3,0,0,1-.982-1.134c-.445-.63-.75-.455-1.34-.636-.064-.02-.712-.859-.947-1.03-.289-.209.081-.573.081-.8,0-.3-.384-.611-.4-.937-.231-.871.178-1.27-.855-1.643-1.238-.447-.812.254-1.12-1.053-.132-.558-.72-.8-.855-1.3-.063-.233-.023-.542-.173-.729a5.868,5.868,0,0,1-.566-.66c-.205-.334-.539-.188-.623-.347-.311-.589.02-.423-.589-.833a1.912,1.912,0,0,1-.716-1.249c-.174-.694-.548-.208-.728-.683a8.611,8.611,0,0,1-.37-.868l-.935-.231.2-.567c.2-.359.733-.25,1.086-.359.278-.086.681-.073.832-.359s.218-.174.416-.011a.382.382,0,0,0,.577-.231c.5-.32.364,1.334,1.5.2a1.738,1.738,0,0,0,.578-2.187c-.082-.172.444-.873.508-1.134,1.066-.209.474-.427.474-1.134a5.9,5.9,0,0,1,1.156-.289c.354-.021,1,.34,1.144-.023.109-.286-.022-.721.046-1.03.129-.582.658-.584.774-.983.177-.614-.043-1.09.346-1.678.174-.262-.127-.493-.127-.775,0-.365.407-.689.543-1.041.855-1.142-.623-2.878-1.455-3.714-.336-.338-.752-.148-1.144-.671a3.605,3.605,0,0,0-1.317-1.353c-.308-.182-.188-.566-.67-.81-.464-.235-.913-.046-1.386-.046a2.65,2.65,0,0,1,.173-1.643c.836-.907.481-.857.7-1.921,0-.338.13-1.126.474-1.25.323-.116.258-.318.1-.486a1.324,1.324,0,0,0-.32-.243c-.435-.231.511-1.4.624-1.724.1-.3.269-1.349-.347-1.2-.867.206.476-1.114.509-1.261a3.225,3.225,0,0,1,.393-1.111c.464-.879.417-.034.82-.44.091-.092,0-.568-.046-.694-.1-.313.066-.29.15-.544s-.258-.489-.393-.671a7.728,7.728,0,0,1-1.906-3.124c-.172-.954-1.19-1-.866-2.314.33-.065,1.172-.637,1.34-.521.435.3.941-.173,1.179-.532.864-1.309,1.606-.808,1.606-2.534.281-.07.473-.522.751-.451a5.441,5.441,0,0,1,1.1.555c.483.281,1.461,1.046,1.282.116-.35-1.826,1.072-1.622,2.206-1.782.118.357,1.254,1.3,1.71,1.146,1.372-.46,1.08,1.48,1.675.6.663-.276.451-1.3,1.051-.763.583.524.361-.725.751-.394.209.178.561.292.658-.092.364,0,.593.484.993.058.286-.3.12-.883.485-1,.239-.073.129-.509.2-.694.032-.09.206-.153.219-.208.358-.044.8-.853.8-1.169,0-.183-.148-.165-.173-.289-.17-.024-.336-.438-.4-.567-.242-.666.584-.494.751-1.168.067-.268.029-1.635.127-1.712.659-.519,3.284-1.042,3.5-1.863a2.063,2.063,0,0,1,.531-.972c.528-.414,1.791-.8,1.975-1.469a2.536,2.536,0,0,1,.555-1.111,2.946,2.946,0,0,0,.15-.613,3.176,3.176,0,0,1,.855-1.446,3.848,3.848,0,0,1,1.075-.532,1.735,1.735,0,0,0,.82-.416c.263-.214,1-.831,1.04-1.157s-.129-.733.162-.972c.525-.432.279-1.107.381-1.655.018-.252.184-.674,0-.879-.162-.181-.365-.333-.254-.544.231-.439.689-.791.912-1.3a.4.4,0,0,0-.045-.4,4.21,4.21,0,0,0-2.681-.975c-1.411.207-1.317-.59-2.472-1.2-.739-.392-.516-.565-.855-1.168-.285-.507-.886-.806-1.248-1.261-.252-.317-.177-1.423-.578-1.458-.905-.079-.95-.449-.8-1.319-.583-.752-.371-2.614-1.271-2.962-.928-.359-2.443-1.365-2.692-2.384a4.963,4.963,0,0,0-.139-.822,4.135,4.135,0,0,0-1.208-.506c-.386-.149-.73-.338-.8-.628-.021-.006-.018,0-.023-.023h-.023c-.018-.053-.155.011-.2.023a.759.759,0,0,1-.439.023c-1.145,0-2.48-.065-2.611-1.412l-.081-.833-.589-.22-.635-.289c-.219-.1-.85.285-1.351.162-1.037-.255-1.578-1.54-1.86-2.407-1.221,0-2.6.355-2.6-1.342-.12-.024-.232-.134-.346-.162a10.2,10.2,0,0,0-.393-1.631c-.364-.686-.786-1.1-.786-1.9s.093-.517-.324-1.145a2.559,2.559,0,0,1-.381-1.065c-.132-.694.155-.667.416-1.145.386-.708-.993-.639-.416-1.284.417-.466.247-1.825-.427-2.048a1.894,1.894,0,0,1,.5-.613.081.081,0,0,1,.034-.069c0-.061,0-.027.046-.139a4.128,4.128,0,0,0-.566-1.516c0-.063-.059-.06-.069-.093-.977-.242-1.594-.126-1.964-1.261-.025,0-.051.01-.058-.012-2.345,0-1.413-3.669-2.437-3.922-.155-.629.325-1.279.393-1.909.063-.584-.478-.336-.89-.879a3.756,3.756,0,0,0-.762-1.527,7.013,7.013,0,0,1-.635-1.4c-.288-.655.009-1.131.323-1.689a9.444,9.444,0,0,0,1.282-5.114,3.2,3.2,0,0,0,.139-.96c-.015-.3-.239-.436-.15-.81.129-.547.583-.8.831-1.25.182-.332-.211-.523.231-1.018a4.968,4.968,0,0,0,.046-1.446c0-.326-.2-.588-.2-.9,0-.29.584-.584.428-.74-.442-.444-.248-.219-.139-.66.366-.046.748-.252,1.144-.312.607-.093.155-.689.555-.671l.751.034c.376.018.756-.081,1.132-.081a10.345,10.345,0,0,0,1.652-.023c.227-.071,1.165-.089,1.19-.44.017-.234.393-.555.266-.729-.148-.2-.148-.163-.127-.416.03-.364-.227-.327-.335-.544-.2-.392.56-.416.774-.405.622.033.758-.31,1.352-.243.186.021.479.193.6.034.176-.229-.116-.49.347-.578.573-.11,1.663.473,1.663-.486.134-.333.13-.449-.22-.567,0-.323-.042-.976.185-1.2.173-.173-.416-.882-.416-1.227a13.385,13.385,0,0,1,.324-2.638c.573-.145.481-.325.162-.729-.475-.6-.19-.471-.07-.949.021-.005.018,0,.023-.023.942-.233,1.013-1.267,1.317-2.013.15-.369.439-.47.589-.752l.751-.59c.663,1.266,1.712.933,3.061.983,1.541.058,3.038,2.543,4.309,3.425.758.526,2.132.655,2.715,1.273.716.758,1.745,1.428,2.449,2.2.734.8,3.593.592,4.563.8,2.724.578,3.181,2.3,1.976,4.582A4.069,4.069,0,0,1,34.141,16c-.662.283-1.438.022-2.126.151a5.665,5.665,0,0,0-2.114.856,9.862,9.862,0,0,0-1.1.613c-1.123.942-.7,2.795-1.213,4.108-.627,1.594-1.548,2.531-1.305,4.4a5.365,5.365,0,0,0,1.779,2.615,4.3,4.3,0,0,0,2.23.521c1.4.181,2.226,1.109,3.546,1.516a13.767,13.767,0,0,0,3.276.54A12.952,12.952,0,0,0,39.5,31.23c1.26-.176,2.3,0,3.512-.636l5.118-2.684c1.95-1.023,5.457-.21,7.659-.266a5.168,5.168,0,0,1,2.68.185,3.969,3.969,0,0,0,1.929.6,3.2,3.2,0,0,1,2.3,1.053,6.992,6.992,0,0,0,2.588,1.562,6.157,6.157,0,0,0,2.822.589,13.653,13.653,0,0,0,1.879-.323,9.292,9.292,0,0,1,3.674-.3c1.29.283,1.793,1.652,3.234,1.99.245.058.481.126.709.2,1.4.464,2.543,1.161,4.073,1.6,2.6.751,5.153.445,7.775,1.608,1.208.536,2,1.947,3.223,2.175a19.212,19.212,0,0,1,2.183.255c.644.2,1.008.8,1.663.926a10.425,10.425,0,0,0,4.679-.59,6.451,6.451,0,0,1,3.038-.52c.179.023.336.053.482.082a2.318,2.318,0,0,0,1.343-.024c1.161-.376,1.389-1.2,2.761-1.2.809,0,1.638-1.357,2.31-1.77.907-.558,1.837-1.564,2.969-1.62a15.151,15.151,0,0,1,2.657.382c2.976.4,3.978,1.167,6.25,3.193a8.791,8.791,0,0,0,2.83,1.816c1.8.624,2.707-.839,4.008-1.566a2.919,2.919,0,0,1,.925-.343c.969-.17,1.637.342,2.553.521.959.187,2.241-.5,3.177-.729,1.135-.276,2.678-.948,3.8-.752.767.134,1.42,1.126,2.056,1.573,1.305.919,2.532,1.913,4.286,1.481,1.6-.394,2.268-1.275,4.044-.825a12.1,12.1,0,0,1,4.019,1.9l1.483.984,1.393.925c1.29.857,2.363,1.736,4,1.736,1.915,0,3.062-1.538,4.84-1.747a26.72,26.72,0,0,1,2.737.129,2.968,2.968,0,0,0,1.317-.233c1.994-.968,3.606-2.606,5.834-3.147.947-.23,1.938.089,2.911-.127a7.641,7.641,0,0,0,2.854-1.828c.787-.62.725-2.376,1.917-2.6.81-.154,1.343-.07,1.976-.729.762-.794,1.057-1.979,1.871-2.719a7.462,7.462,0,0,0,1.132-1.146c.381-.573.428-1.4.866-1.839.323-.32.848-1.02,1.155-1.4,1.472-1.823,3.9-2.352,5.522-3.9,1.241-1.187,1.508-3.677,3.015-4.454,1.063-.548,1.708-1.226,3.107-1.226.656,0,1.121.466,1.848.162l3.073-1.284c1.182-.494,2.1-1.627,3.281-2.152a4.725,4.725,0,0,1,1.924-.384c1.776-.013,3.546.664,5.2-.044a10.266,10.266,0,0,1,4.055-1.18c1.338,0,2.071.48,3.5.162.651-.145,1.294-.324,1.941-.486l1.016-.255a21.024,21.024,0,0,1,2.842-.879,7.377,7.377,0,0,0,4.02-1.157,25.819,25.819,0,0,1,4.187-2.343c1.99-.287,3.975-1.139,6.105-1.139,1.562,0,3.494-1.277,4.794-.59a4.118,4.118,0,0,0,1.964.474c.826-.023,1.431-.224,2.091.255a5.252,5.252,0,0,0,3.951,1.215c.342-.036,1.681-.709,2.339-.862.433.825.243,1.159.295,2.065.024.415.523.815.554,1.261.025.353-.1.6.277.694a19.3,19.3,0,0,1,2.206.9,5.317,5.317,0,0,1,.89.347C265.251,12.39,265.333,12.68,265.527,12.9Z" transform="translate(-0.502 -0.501)" fill="none" stroke="#96b93c" stroke-linejoin="round" stroke-width="2"/>
    </g>
  </g>
</svg>
