<svg xmlns="http://www.w3.org/2000/svg" width="30.718" height="19.628" viewBox="0 0 30.718 19.628">
  <path id="Icon_zocial-email" data-name="Icon zocial-email" d="M.072,21.957V5.806q0-.028.089-.533L10.2,13.405.19,22.518a2.264,2.264,0,0,1-.118-.561ZM1.4,4.152a1.341,1.341,0,0,1,.5-.084H28.954a1.763,1.763,0,0,1,.533.084l-10.072,8.16-1.333,1.009-2.636,2.047-2.636-2.047-1.333-1.009Zm.03,19.46,10.1-9.169,3.91,3,3.91-3,10.1,9.169a1.494,1.494,0,0,1-.5.084H1.909a1.409,1.409,0,0,1-.474-.084ZM20.689,13.405,30.7,5.274a1.592,1.592,0,0,1,.089.533V21.957a2.043,2.043,0,0,1-.089.561Z" transform="translate(-0.072 -4.068)" fill="#045a6b"/>
</svg>
