<svg xmlns="http://www.w3.org/2000/svg" width="477.491" height="358.574" viewBox="0 0 477.491 358.574">
  <g id="Group_16211" data-name="Group 16211" transform="translate(1 0.996)" opacity="0.372">
    <path id="Path_31932" data-name="Path 31932" d="M1547.624,1239.683l-1.8.966-.726.832-.9.9h-3.479v-.9l-1.018-.832-1.8.832-.78-.832v-.966h-1.746v-1.561l-.9-.951-1.019-.846-.779,1.8-.832.781v-.781l-.846-.951h-1.019v-.846h-.781v2.578l-.9.78-1.732.966v.832h-1.865l-.9.9v.9l-1.678.9v.9l1.678-.9h1.8l.967.9,1.732.847.9-.847v.847l.781,1.732-.781.9.781,1.748-.781.951v.847h2.646l.832.9,2.7-.9.848-2.646.9-.9.78-.9,1.8-.834v.834l1.018.9.78-2.629v-.847l1.8-1.8h1.8v.9h3.478l1.746-.9v-.9l-.846-.9v-.832h.846v-.966h-2.7Z" transform="translate(-1206.831 -980.226)" fill="none" stroke="#96b93c" stroke-width="2"/>
    <path id="Path_31933" data-name="Path 31933" d="M1153.912,701.813v1.851l-1.8.779h1.8l.832.966v.833l.965-.833v-.966h2.579v-.779l.834-.9,1.03-.95-1.864-.847-2.579,1.8-.965-1.8Z" transform="translate(-913.461 -555.763)" fill="none" stroke="#96b93c" stroke-width="2"/>
    <path id="Path_31934" data-name="Path 31934" d="M1167.513,682.613l.846-.9v-.726l-1.745-.9-.834.9h-.965v.726h1.8v1.733Z" transform="translate(-923.533 -539.209)" fill="none" stroke="#96b93c" stroke-width="2"/>
    <path id="Path_31935" data-name="Path 31935" d="M1596.251,121.545l1.864.9,1.678.779.9-.779-.9-.9.9-1.8v-1.8l-.9-1.614h-1.678l-1.864-.846h-.953v.846l-.78,1.614v1.8l1.733.847Z" transform="translate(-1264.226 -91.562)" fill="none" stroke="#96b93c" stroke-width="2"/>
    <path id="Path_31936" data-name="Path 31936" d="M19.677,291.725v-.055l1.478.739Zm115.667-13.371h2.488l.171.171h-2.577ZM29.415,271.181v-.546h.034v.578Zm104.012-1.714h.861l.184.185h-.846Zm-.7-.648v-.014l.184.184Zm-112.2-3.449.048.022v.544h-.048Zm116.7-5.165.368.389h-.368Zm11.345-.511v-1.541l.036.036v1.541Zm-10.688-33.75.763.227h-.521Zm.684-6.4h.321v.344Zm11.974-18.8.028-.03.8.8v.113Zm1.9-8.778.667.619-.02.018Zm13.529-2.984-.3-.293.872.435v1.094Zm1.814-10.494h.1l.222.3ZM271.394,155.6l.779-.675h.118l-.9.779Zm-6.362-2.422h.119l.876,1.7-.1.046Zm4.509.06.12-.06v.9h-.12Zm-8.041-.959v-.9h.121v.9l.9.9h-.065Zm-4.316-1.737.057-.061.9.9h-.119Zm1.911.006v-.067l1.626.9h-.12Zm13.077-.067-.839-.777.06-.055.9.833.835.833-.053.065Zm3.477-38.747v.658l-.264.158Zm-3.53-18.646h.012l-.009.006Zm-1.439-6.955h.116l.023.069Zm53.49-6.837.846.834.832,1.8-1.678-.833h-2.7l-1.732-.966Zm-55.661.41v-.78l.129-.137-.063.322.153.814Zm.9-5.265.133.227-.133.169Zm-8.872-20.4v-.153l.158.23Zm-23.143-4.429h.053l.848.9h-.068Zm5.329,0h.065l.887,1.707-.051.025Zm-8.04-1.811v-.9l-1.8-.9-.833-.833h.053l.846.833,1.8.9v.9l.9,1.811h-.066ZM258.738,46V42.519l.9-.953v-.9l-.9-.846-.9-.9h.065l.9.9.9.846v.9l-.9.953V46.9h-.067Zm-4.43-7.908.9-1.8h.052l-.9,1.8,2.644.834h-.065ZM376,0l-3.426,1.918-1.8.78h-4.43l.9,1.018V6.113l-.9.966.9.833.953.9.779,1.864h1.8l.847.847-1.8,1.731-.848,2.645h.848l.95.953-1.8,1.679H367.24l-1.8-1.679.9-.953-.9-1.8-.846-.846-.832.846-.9,1.8v3.532l-.845,1.8h-4.5v.9l-.9,3.359v.9l-1.614,1.8v1.8l-1.031-.953-.78-.847-1.733,2.7v-3.6l.782-.9-.782-.9V23.926H349.6l-.78-.951-.952,2.512h.952v1.8h-.952v-.9h-.847v1.8l1.8,2.7h-1.8l-.832-.9V29.03l-.965.953-.9,1.68h-.832l-1.746,3.663-.952.845-.846.835.846.9.952.9-1.8,1.8-.953.847h-.727l1.68,1.8v4.312l-.953.78-1.626.966-2.7.9-.779.9-2.817-1.8-1.678-.966h-1.748l-1.8-.78V44.2l2.7-.953V42.4h1.746l.78-.951-1.678-.847-.848-.9-.9-.9h-1.8l-.832-1.8h-.846l-2.7.9H319.74v.9h-1.865l1.865.9.834.9.9.847V44.2l.9.662v.846h.781l-.781,1.85V51.1h3.478l.779.833v.9l1.018.964v.782l.9.964-.9.833-1.018,1.746,1.918,1.8.848.9-1.748.9-1.018-.9-1.611.9h-1.866l1.019-1.8h.846l-1.866-1.8-.781.9h-1.8l-1.8-.9v.9l-.9,1.8-.9,2.632-1.678.779-.968.847v1.8L313.5,68.61l-.9.965-.779.952.779.78,2.7,1.8,1.678.9v.846l1.8,1.8.967,2.644v.834l-.967-.834h-.9l-.9.834-.714-.834-1.932.834-2.511-.834-1.8-.964h-1.8V77.5h-3.545L302.1,76.65v1.68l-.952.964v.834l1.852.966.78.833,2.7.9v-.9h.9l1.8,1.626.846,3.531-1.8.965-.848.833-1.8-.833H303l-1.852-1.8-.846-.9-.835-.9-.9,1.8-.9-.9-2.578-.9V82.826h-.9V81.094l-.9-.966v-.834l-.964-1.8-.847-.847v-.9l.847-.9V73.107l-.847-.953v-.846l-.833-.78-.78-.952h-4.443l-1.018-.965h1.018v-.834h-1.8v-.9h-1.8l-.78-.9-1.071-1.746,1.071-1.612h-1.071l-.78-.9h2.631l1.8,1.732.78.779h1.018v-.779l1.68.779,1.743.847h1.8l.833.9h3.61l2.578.9.9-.9.9-.9.835.9v.9h5.276l1.8-1.8h.848l1.8-.847.834-.779V62.62l.965-.9h.779v-1.8h.9l.831-3.544-.831-1.8V52.834h-.9V51.1l-.779.833-.965-.833V49.3h-2.632v-.966l-2.645-.78-1.8.78-.78-.78-.9-.953-1.8-.9v.9l-.835-.9-1.8-1.508H295.09l-2.763-1.8-2.46-.951-1.917.951h-6.9l-1.071-.951-1.746.951v-.951l-.779-.847-.9.847L275.6,39.7h-.846l-.953-1.8h-.726l-.9,1.8h-.9l-.9-1.8h-.832v2.7H267.73l-.9-.9H265.4l.652-2.7-.172.118h-2.7l.9-.833v-1.8l-.9-.846h.9l.9-.9v-1.8h-.9v-.9h-1.8l-1.744.9v-1.8h-1.8l-.9-.9-1.8,1.8v.9l-.833.9-.9-1.8v-.9l.9-.9V25.6h-.9l-1.81,1.8v.847l-1.8.9v3.6l-.9-.9v-.9l-.833-.9V27.4h-.9v1.745l-.9,1.8-.9,1.8-.9,1.745V30.948l1.8-.9v-.9l.9-1.745.9-.9-.9-.9-2.7,1.8-.9-.9-.843.9v.847l1.743.9-2.644.9-.9-.9-.9.9v1.8h-.9l.9.9-1.8,1.745-.9-1.745-.833.9v1.746l-.913.9-.9-.9h-.9v.9l-.9-.9h-.9l-.833.9v.833h-.9l-.9.965v1.732l.9.846v1.852l-.9-.953-.9-.9h-.9l-.846,1.852-.953-1.852-.847.9v1.8l.847,1.8V46l-.847-.833-.9-1.8v1.8l-.9,1.732-.9-.9v-1.68l-.9.846V47.8h-1.8l-.833.847.833.965-.833.9-.913.833v.9l.913.846-.913.951h-2.7v-.951l-.9.951v3.478l-.832,1.8v-4.43l-.9.953h-1.8l-.9.846h.9l.9.833v.965l-.9-.965-.9.965-.9-.965h-.9v1.8l-.847.966,2.646-.966.9.966v.833h-2.7l-.847.9v.9h1.746v1.746H208l-.9.9-.9.9-1.8-.9-.9.9V68.2h-.833l-.913.834.913.965-.913.9h-1.8l.9.9.9.9.913-.9V73.53h-2.712v.9l.9.846-.9.9h-.9l-.9.952-.9.845.9.952v.78l-.9.9-.833-.9v-.78l-.964,1.68v.9h.964v1.8l-.964.9h-.835v1.746l-.9.9h-.9v.846h.9v1.85l-.9.847-1.746-.847v-.9l-.9-.951-.9.951-.9.9h-1.8v1.746l-.965.833-.78,1.8h-1.8v2.646l-.9-.847-.9.847-.9.951-.9-.951-.833.951-.965.846h-.834v1.8l-.9-.9h-.9l.9.9v.9h-.9l-.9-.9-.846.9h-2.7v.9l.847,1.733h-1.813l-1.8-.9h-.78l-.9.9.9.914v.9h-2.7l-.951,1.8v-1.8h-.846l-.9.9-.833-.9H159v1.8l.834.833h.965v.9h-.965l-.834.9h-1.865v.847l.967.951v.847l-1.8-.847v1.746l.833,1.732H159v.965h-.9l-1.8-.965v1.8l.833,1.745.967.9-.967.9-.833-.9-.9.9v.9l1.733.9h-1.733v.9l.9.9.833.847H159l1.8-.847L159,125.9l-.9.833-.967.964,1.865,1.8h-1.865l-.833.833-.9-.833h-.846l-.951,1.679v.951l-.847,1.746.847.953,1.8-2.7h1.733v2.7h-.833v1.744l-.9.835v-.835l-.846.835v3.608l1.745,1.732,2.7.9-1.865,1.746,1.865.951.834-.951v1.8h4.495l1.8-.847v.847l1.679-.847.965-.951.833-1.746.966-.9,2.7-.9v-.833l.846-.911h1.8v.911l.9.833,1.8-.833V139.2l1.733-1.8v-1.8l-.9-.779,1.8-1.852.9-.847.9-.951h.9v1.8l-.9.9h-.9V135.6h.9l2.465,1.72-.08.079.1.1-1.4,1.559h-.241v.137h-.084v8.123h.9v2.029l.928-1.069.784.731-.915,1.7-.016,5.4.9.838-.9.84v1.865l1.048.977h.763v2.65l1.853.832v1.572h-.9v.975l-.954.847v1.922l.954.833v.963l.9.833v2.582l-.959.957,1.1,1.032.9-.846.864.813,2.646-.846.879.828h1.99v-4.523l.753-.753h1.8l1.154-1.238h-.864l.628-.582,1.719-.86,1.61.83v.886h3.87v-2.727l1.745-2.644v-1.717l.863-.863.936-1v-1.024h-.816l.79-1.593.986-.913-.96-.96v-1.633l.9-.952v-.922l.883-1.715.015-1.862-.849-1.672,1.975-.99-2.811-.882.678-.716,1.7.9,1.022.016,1.811-1.88v-1.718h1.6l.992.994.99-1.949.8-.8,2.02-1.025-1.965-.983v-.756l.882-.82h.851l1.9-2.728-.939-.995V131.9l-1.733.847v-1.641l-1-.882-.793-.792v-1.963l-1.922.954-.825-.827-.863-.925v-1.738l-.9-.847V123.2l-.657-.709h.576l.98-.978v-4.363h1.112l-1.055-.978.843-.9v-1.73l.9-.9v-1.991h-2.7v-1.553l.79-.79,1.8.9.928-.93h.913l.833-.833h.908l1.962-1-.935-.934,1.8-1.813-.762-.76h1.551l.847-1.636.784.831,2.054-1.025-.884-.94.718-.762h.84l1.935-.953V94.918l.847-1.695h.834l.927-1.853.984-.984-.96-.9V85.106l.9-.846v-1.8l.819-.819h1.891V77.264h.642l.957.9,1.792-1.791.843.893h1.8l.9.9.97-.983v-.056h.827l.9.845h1.8v.952l.833.78v4.5l.9.847v.9h-2.631v.9l-1.8,2.7v.847l-.9,1.733-.9.965-1.744,1.8v1.679l-1.8.951-.9.846-.9.9v2.7l-1.733.835-.913-.835h-.9v1.733l-1.8,1.813v2.63l.9.9v1.747l-.9.951v.847l1.8.9v7.076l-1.8.9v2.7l1.8,2.579h2.644l.9.964h2.7l.9,1.8v1.679l.9.951.843.847h3.6l.9-1.8.833-.847.9,1.8.9-.951.9-.847,1.81-.833,2.633-.9h1.8V126.73l.9-.833.9,1.8.846-.964,1.8-.833.9-1.746.9.847h2.63l.9-.847,1.032-2.063v1.943h1.732l1.8-.9h.726v.9l-.726,1.747v.9h1.679l.846,1.017,1.851.833.779-.833h2.817l.78.833h.9v1.746H275.6v.9h-.846v-.9l-.953.9v2.63h-.726l-.9-1.8-.9.9v3.543h-5.223l-.9-.9h-.832l-1.8.9v-.9h-4.376l-.9.9H251.9v1.8h-2.577l-.9.9v2.632h1.8V143.4h-.9V147l1.8,1.68h.781V147.9l.966-.9h.833l.967.9-.967,1.746v2.388l-.953.243v7.074l-.9.9L251,161.1h-.9l-1.8-1.746-.846-.832v-1.864l-1.8-1.733h-.834l-.846-.846v-.9h-1.733l-1.8.9-.967.846h-.833l-.78,1.733v1.864l-.9,1.732-.966,1.625-.876,5.207h-.16V171.6l.9,2.719v2.813h1.865v.695l.855.985h.841l.967.9h.185l-.074.082h-2.9l-.219-.623-.781-1.137-1.385.266h-1.036V179.4H235l-.786,1.529-.843.844h-1.539v-2.761l-2.91,1.884-.063.04v.909l-1.7,1.369,1.7.59v.682l-.821.884h-.923V188h-2.424v-.9h-1.037l-2.61.88-.848-.8v-2.7l-.847-.833v-.978h-2.892l-.9.9h-.809l-1.792-.93-.931.93h-.98v.832h-.822l-.852.9-.9-.972-.926,1.075-.9.9-.86.8h-.9l-.9.9h-.98v.9H199.6l-1.9.936-.91,1.83-.913.916.889.89v.686l-.04-.021-1.317-.015-.949-1.251v-1.262h-2.7V188h-2.7v-.82l-.846-.835v-.977h-1.148l-.847.9h-1.74l-1.858.848-1.708.854-1-1.079V188h-3.428l-1.26-.625h.518v-.835h.846v-2.139h-2.011l-.741.859L173,183.573h-1.747v-.9h-1.8v-.7l1.017-.962-1.057-.939-.9-.9-.263-.244.461-.436h.9l-.9-.9-.953-.9.953-.832h.9l-.9-.9v-.846h.9v-1.8h.914l.833-.9h.964v-.9l1.735-.9.9-1.746-.9-.9.9-.9h.9v.9h.9l.847-.9v-1.8l-.847-.833h-1.8v-.9h-.9v-.9l.9-.9h.9l-.9-.847v-.95h-1.733v.95h-2.7l-.914.847.914.9v.9l-.914-.9-.9.9v-1.8h-.953l-.779.9v.9h-.9l-.964-.9h-.835v-.9h-.9v.9l-.9.9v7.075l-.9.9.9.9h.9v.9l.9.847v4.175h-.373v2.89l.833.846v.76l-1.694.845h-.938v1.172h.833v1.747l1.7.852-.792.794.71.765h-3.355v3.685l-.9.834v.352l-.625-1.16V189.8H158.51v.9h-.573v-.708l.936-1-1.976-.98L152.267,188v.978l-.9.9v1.093h.9v.833l.068.063-.95.831h-.847v-3.545h-1.8l-.835.966-1.8.847v-1.812l-.965.966h-1.733l-1.811.847-.9.9v5.33l-1.733,1.744h-1.8V197.2l.9-.953h-.9l.9-.846.9-.9v-.9l-.9-.9h-1.746l-.951,1.8v1.746l-.847.953v.846h-.952v.9l-.847.9h-1.8v1.8h.9v.833l-1.73.9v-1.732h-.966v3.477h.966l.553.633-.609-.007-1.064.987v.746h-2.984v-.746l-1.066-.987h-.746v-.965h-1.292l-.78.837-1.172-1.259v1.489l-1.731.833h-5.124l-.9.9v1.733l-.847.9v3.612h-1.851l-.9.832h-.911l-1.733.9-1.8.846H101.6v.953h.9l1.746.844.9.9h-.9v.953L102.5,219.1H98.9v-.9H97.1l-1.732-.844-1.8-.953v.953l-1.813-.953.914-.846-.914-.9v-.832l.914-.9H90.927l-.9-.911h-.9v.911l-.967.9V216.4l.967,1.8-.967.9v1.733l.967.966v.833h-1.8l-.965-.833H84.686l.847-.966H81.987l-.9-.779v.779H79.357V218.2h-1.8v-.844l-1.8-.953-.9.953v.844H73.114v-.844H70.35l-.833-.953-.965.953H65.973v.844h2.579v1.853h-.782v.779h-1.8l-.9.966h.9l.9.833.9,1.8v-.9l1.747.9v-.9h.833v.9l1.8,1.746h.964v.9h.833v1.8h3.611l-.965.9h.965l.832.834-.832,1.811h.832l.967.9v.9h.78v.834l-1.747,1.8v.9l.967,1.745h.78v1.8l.952.9v.834l1.8.9.9-.9v1.8l-.9.9h.9l-.9.9v2.643l-.9.9v.9h.9V252.8l.9.9v3.531l-.9-.834v-1.8l-.9-.9v-.9l-.9-.846v-.9l-.952.9v3.478l-.78.965v1.732H78.39l1.747.9-.78.846h-1.8v1.8l-.965.9v.9H75.76v1.732h-.9l-.914.9v.9l-1.8,1.811-1.544,1.542h-.254l-.964-.912h-1.7l-1.75-.874-.978-.924H61.416l-.845-.844-.928-1.787H57.87l-.9-.9H53.376l-.835-.846H50.749l-.814-.916-.992-.935h-.871l-1.77-.835-.976-.013-1.644-.9v-.838H41.807l-.9-.965H38.319l-.918-.791-.971-.972-1.7.885-.9-1.681-.816-.886v-1.909l-1.967.925H30.23l-1.089-1.027v1.027H26.3l1.036,1.037-1.467,1.466v-.626l-.979-.977h-1.8l-.94-1-.9,1.8-.86-.859-1.993,1.99.956.958v1.088l.9-.831v.465l-.822.881h-.977V259.9h1.173v-.782h1.524v.591l-.9.951v.845l-1.094,1.091h1.094v.758l-.763.717-.9-.846-1.034.975v1.927h.255v2.442l-.833.9v2.711l-.9.833-.847.9v1.8l-.953.844-.846.9v1.8l-.9.9-.9,1.8-.9.779-.9.953v.846l-.833.9-.965,1.8H5.394l-.9.834v2.71l-.835.9-.9.9V294.3H4.5l.9.9h.847v2.7l-.847.9-.9.779v.967l-.835.832.835.965-.835,1.733v.9h-.9l-.966.847v.95l-.833,1.746-.965.9v.9H1.8l.966-.9.9.9v.846H5.394l.847.9,1.8.9.965.9.833-.9v.9h.9l2.129-.71H14.1l.866.928.891.826.8.86v.932l1.852.874.845.892v.735l-1.093,1.093h1.9l-.8,1.532-.016.891H17.346l1.109,1.03v1.808l.98.982h.9l.841.778.976,1.951,1.018-1.082v-.864l1.693-.782h1.824l.9-.9h.81l1.714.887,1.048.015.9-1.813h1.615l1.749.887.924.926h1.835l.835,1.729h5.394l1.862.932.876-.932h1.684l.953.9h.764v.9h1.023l1.048-.976v-1.77l1.8-.831v-.853h1.721l.833-.911h2.553l1.856.94L62.4,324.7l1.789-.929v-1.824l.766-.755h.956l.922-.981v-.867l1.693-.8h2.658l1.931-1.932-.886-.955v-.909l-.965-.833V308.7l.929-.865.816-.88,1.776-.888,1.74-1.732h.9l1.007-.937,2.618-2.618,1.751-.939h.863v-.274h-.76V299h.9v-.929l.822-.869H93.44l1.779-.9h.988l.835-.847h2.7l.9-.9h.9l1.879-1.879v-.835l.846-.9v-2.811l-.174-.236.09-.075-.3-.217-.22-.3-.137-.266-.171-.476.9-.9-.9-.9.9-1.8v-.846l.9-.9h.9l.9-.9h2.644l.9-.9.9-.9h.951l.847.9.9.9h2.632v1.8l.9-.9h.9l.9-.9h.9v1.8h1.746v1.746l.9-.9.9.9.9.9v.9l.9.9h4.5l.847-.9v-1.8h2.632v-.9h1.8v.9l1.608-1.561.8-.356.9-.965h1.8l1.8-.832.9-.9v-.9l.833-.9.9-.9h2.711l1.8,1.8.834-.9,2.7,1.8v-.9l.9-.9h1.8l-.9.9v.9l.9.9-.9.832,1.746,1.745.952,3.65.845,3.478.9.912,1.8,4.431h.9l1.8,1.8.846,1.8.953.779.845.967,2.632,2.629,5.343,5.344h.953l.845,1.8h1.8l.9,1.746.9-.9,2.644,2.7.952.9.845.835h.835l1.8,1.8h.967l.833.9v3.477l1.8.967h1.746l1.851.9.847.836v.963l.9.834.833,2.646.964,2.7v2.646l-.964.9h-1.732v3.478l-.847.952-.9.845v.954l.9.846H196.6l.964-.846h.835v-.954l1.864-.845v-2.631l.9-.9.846-.9.9-.9h2.7v-6.243l-.967-.832-1.732.832-.9-1.494-.3-2.341.3-1.441h.9v-.967l.9-.78h-.9l.9-.951.833-.846h1.8v.846l1.8.951h3.6v1.747l.845.9v.836l.953.963h1.746l.9-.963v-4.43l-1.865-.846-.78-1.8-.953-.9-1.744-.9h-1.8l-.9-.835-.832-.9-2.764-.9-.833-.9-.9-.9h-2.645l-.9-.846-1.8-.9H196.6l.964-.9h.835l.964-.9v-1.8l-2.763-.847h-5.276l-1.732-.9-.965-1.733-.833-.965-1.8-1.8-.965-1.679-1.68-1.8v-1.8l.845-.9-.845-1.732-.952-1.811v-.9l-.847-.9v-1.68h-.965l-1.732-.952-1.8-.9h-.9l-1.8-.846v-.953l-.847-.779v-.965l-.9-1.732.9-.9v-1.8l.847-.844.953-.9v-.9h-.953l-.847-.9v-.833h-.9l.9-.965h.847v-1.746h4.5l.9-.9h.832v-.832H182.4v.832l.952.9v-1.732h.845l.1-.119.887.332.672-.714v2.3l-.769.829h-.893l-1.042.967.958.958v2.7l.9.846v.894l1.018,1.081.977-1.951.881-.83.927-1.837.014-.824h.707l1.755,1.754.82.886.859,1.666-.867,1.67-.016,2.9h1.8v.965h.983l.8.742.728.719h-2.724l1.146,1.075.834.886.995,1.856h.859l1.718,1.666v.925l1.936.969,1.831-.917h.809l1.709,1.761,1.781,1.716.927,1.852h1.734l.861,1.673.02.037,1.835.972h.059l-.006.015h.83l.913,1.681h.855l.9.965h2.708l.878.759v.956l.858.917h.875v1.744h1.746v.9h2.04l.71.75v1.555h-.9V314.7l-.9.836v1.913l.843.844-.843.843v1.04h.9v.677h-.9v2.021h1.877l.846.9h1.72v.7l.817,1.66h-.116l.927,1.942.964.979h1.666v2.619l1.108,1.033.888-.956H237.5v1.473h-2.687l-.961,1.036.884.951v1.883H235.8l1.859.861.86-.861h1.553V338l1.965-.91h3.509l.8.8,1.191,1.046v-1.012h1.539l.8.8.9.952,1.676.8-.672.771h-.958l-.841.793-.713-.713v-.956l-1.01-.949-1.687.793v-.766h-3.723l-.9.844H238.4l-.907,1.04v.9l.882,1.935h.932l.8.79.861.924v2.536l-.958.959.958.89V352l.953,1.935h2l.9-1.036-.826-.95v-.8l.655-.753.818.761v2.7l.913.927h.935l.834,1.8h1.123v-3.627l.573-.608v1.59h.9v1.744h4.836v-1.121l-1.8-.846v-.873l-.965-.9v-1.876h-.889L251,348.4l-.881-.889v-1.554h.711l.88.772v.891l.909.982h1.025l1.862-.913,1.806-.938v-2.128l-1.9,1.06h-.868l-.76-.878v-.729l.793-.854,1.759-1.707h.76l.879,1.712,2.039,1.017v-5.753h-1.059l-1.675-.813-.916-1.766h-.885l-3.568-1.783-1.867-.014-.715-.759,1.692-1.694V330.57h-.949l-.77-1.634.742-.79h2.585l.881.824v1.873h1.054l1.112-2.07h-1.137l-2.577-2.592L251,324.4l-.021-.039-1.764-.846-.842-.84v-3.54l-.784-.846.732-.791,1.693-.873h.729v1.723l.99.922.826,1.78.985,1.785,1.839.916,1.929.932v-1.138l-1.787-.925-.91-.911v-1.347l.735.723.826.774.9.967,2.935.993V322.6h-1l-.81-1.67-.7-.753h1.291v1.73h1.936l1.851-.792,1.163-1.212h-1.187l-1.766-.831-1.777-.889-.834-.886-.858-.86v-.7h4.445v-1.812l.759-.764.8.8.873.94h1.982l1.037-1.033-.763-.764h2.215l1.771.886,2.7.015.9.9h.727l.951.953h2.814l.651-.691v1.317h-.766l-1.938,1.938,1.1,1.031.97-.916,2.618-.94.932-.863,1.857-.928v-.928l.778-.779,1.8-.954.934-.862.88-.944,1.746-.758h5.359l.981-.98V307.6h-1.005l-1.771-.885-.838-.014-1.865-1.8h-1.652v-1.667l-.982-.911h-.22v-2.645H287.1l-.816-.755v-.978h-1.994l-.65.692v-2.3l.765-.766h.979v-1.03l.96-.9-.96-.96v-1.539h.9V287.6h3.52l.932-1.007-.655-1.612.1-.292.006-.856.86-1.787-.86-.995v-2.589l1.928-1.927h-1.928v-.731l.821-1.718.014-.9.766-.766.825.769v1.875h1.026l.98-.98v-.819h.847l.938-1.874.015-3.605-.261-.059-.563,1.182-1.078-1.473-.189-.083v-1.714l-.9-.847v-.783l.821-.819h.705v1.093l1.093-1.093h1.679l.9-.9h1.815v-1.918l-.91-1.051H298.6l-1.637-.732v-.557h.573v.207l.2-.207h.062l.009-.075.768-.813.806.851.836.782.039.037h1.036v-2.681l.9-1.7h.755l.808.933,1.893-.948,1.792-1.73h.655v.78h1.226v-3.857l.587,1.2.819.894v.844l.87,1.608h-1.7v2.866l1.878.991,1.747.813,2.817-1.766,1.586-.83h.917l.847-.789.838,2.712,1.06-1.12.92-1.779.015-.825h.593l1.079.953.9-.953h3.333v.9h1.122v-.9h.865l.792-2.683,1.547-.776v1.714h1.214l2.6-2.721,1.776-.823.763-.921.914-.863h.76l1.914.931,1-1.068-.809-.86,1.515-.763.04-.019.908-1.751.908-.847h.841l.922-1.049v-.583l.764.669h.95l.138-.97v-.257l.708-.709h.9l.782-.713v1.68h.951l1.811-1.68.835-.781h1.678v2.461l-1.678.833-1.866.964-.78.9.78.832,1.031.9-1.811.846-1.733-.846h-.9l-.965.846h-.78v.9l.78.9h2.646l.951.9v.834l2.646.9h-.835l-1.031.9-.78-.9v1.8l.78.78-.78.965-.951-.965-.782-.78-.9.78V255.2l-.965.9.965.846v1.732h-1.745l-.952,2.579v.9l1.732.9,1.864.9h2.513l1.031.9v.847h1.614l.9-.847.9.847h1.8v.9l1.8.834h1.745l.832.9.846.9h1.8l2.563,3.519-.023.154,2.749.834,1.722.006.834.966h.967l.951-.966h.729l.9.966h1.786v1.732h2.654l.705.814v.9l1.055,1.667.84.9,1.788,1.737.747.861v.764h-.727l-.938,1.819-.015,1.933H387.7v-.9h5.139l.952-.834h.855l.8-.868,1.654.853.877.015v1.733h2.761l2.528.809v.9l.756.82-.745,1.649-.012.957.793,1.853.963,1.047h4.5l.843-.9.811.823v.916h2.75l1.693.846v.715l2.651,1.78,1.779.957.861.858h5.376l1.8-.832h1.839v-.11l.011-.025.056,0v-.128l.7-1.617.012-1.6,1.788-.861,1.807-1.867v-.922l.887-1.772.809-1.655h1.856l.78-1.8h.814l1.649,1.763.974.859v1.534h-1.244l1.268,1.12.821,1.81v.719l-1.759.848h-.816l-.049.264,1.849.719,1.7.948,1-.931h.828l3.947,1.022-1.147-1.148.947-.765-1.945-.971-.727-1.675.758-.872v-1.714h.626v1.663l.259.061.9-1.8.015-2.694-.924-.977-.788-1.529h.812v-3.724l-.9-.9v-.784l.857-.806.914-1.872.836-.6h1.838v-1.1l-.881-1.017-1.931.932h-3.364l-.9-1.732h-1.758l-.785-.83-1.039-1.827-.848-.9L438.6,269.94h-.807l-1.6-.732.058-.115h-.341l-.027.124-.006.012h-.813l-1.681-.9-1.85-.9-.964-.834-2.515-1.744-1.8-.9-1.746-1.8v-3.477l-.9-.781-.964-.951V255.2l-.768-1.864h-.911v-.78l-1.8-.9-2.578-1.8v.9l-.833.9-.965-.9-1.733-.9.9-3.53v-.846l.833-.9v-1.732l.965-.964-.965-.833v-2.461l.965-1.865v-1.732h.833l.847.835,1.732-1.8.965-.9.835-.78.911-1.8.768.9.964-1.8-.964-2.645h-2.514l-1.8-.833.832-1.864.965-.834h.835l-.835-.9-2.7-1.8-3.477-2.526-1.681-1.8-.966.964h-1.85v.834l-.846.9-1.732-.9-.847-.834v-2.763l-1.851-.832h-1.679l-.9.832v-4.376l1.8-2.7-2.644-.728-.833-.953.833-.965v-2.579l-.833-.951-.9-1.509.9-1.85h.833v-2.7h-.833l1.678-2.644,1.8.965.781,1.679,1.851.9.847.953,1.732-1.852v-.9l-.833-1.743-.9-2.632-1.8-.913,1.8-.834h1.732v-5.4h1.746l.951-.846.966-1.614,1.681-1.8.833-1.68v-1.864h.965l.833.847.847,1.017,1.732-1.017.965-1.682.835-1.8,1.679-.9h.964l1.865,1.852V172.5l.782-1.746h2.63l.9.846,1.746.9h2.631l.9.952h2.7l.78.845v-1.8l-.78-.9v-.846h.78l4.508.846,2.632.9.9-1.746v-1.8h.78v-.835l-.78-.9h3.48l-.9-1.813h.9l.964-.951,1.733.951h1.746v-1.8h1.613l-.715-1.732.715-.779.9-.846,1.917-.9.847.9.779,1.625h1.8l3.544-.779h1.8V158.52l1.615-.965,2.764-.9,2.63-2.579.782-.9v-1.8l-.782-1.731-1.8-1.746h-.833l-.9.779-1.865.966h-5.158l-2.7-.966V147.9l-.9-1.851h-1.626l-1.917,1.851-.9.779h-1.613L452.759,147l-1.733-2.763v-2.459l-.964-.9-.9-.9v-.833l-1.8-1.864V133.8l.9-2.63-.9-.9-1.679-.9V124.93l-.9.846v.9l-1.734,3.6-1.864,2.632-2.643.9-2.632.9-1.747.847-2.631-3.544v-2.632l1.85-.847,2.527-.833.9.833.953.847.78-.847v-2.75l.963-1.747.834-1.612-.834-1.811-1.743-.769v-.964h-.953l-.9.964h-2.527l-.951.769-3.545,1.811h-1.732l-.9-2.579-1.746-2.829-.9-.834.9-.847h.964V112.7l-.964-2.7-1.865-2.646.964-1.8.9-.835h.964v-.965l-.964-1.561V97.7h-1.865V96.022l-.768-1.8-.911-.9-.835-1.8h-.965v-.845l-.832-.833-.9.833-.847-2.632-1.8-3.6-.833-3.358-.9-1.8-2.7-1.8V74.851l-.9-.846-1.679-1.851V70.528l-.9-1.917-.847-.834-.953-.9-.9-3.425-.781-.833-1.8-.9v-.9l-1.678-.9-.9-.9-.914-4.443h-.951V52.834l-.9-1.732v.833l-.847-1.733V48.337l-.833-.78-.847-1.85-.952-1.508h-1.8V42.4h1.8l.952-.951V33.527h.847l.833-2.644v-3.6l-1.679-4.309.847-1.747,1.68-1.8.9-1.8-.9-2.579V12.421l-.847-1.745L393.74,9.659l.847-1.747h-.847l-.952-.833h-.965l-.833,1.732h-.78l-.846-1.732-1.02-.966h-.78l-.9-.714V3.72h-2.749l-.78.834h-1.746L380.555,2.7l-1.017-.78,1.017-.9V0Z" fill="none" stroke="#96b93c" stroke-width="2"/>
    <path id="Path_31937" data-name="Path 31937" d="M453.884,1506.254l-.9-.9v-.9l-.9-.9-.9.9v.9h-3.543v.9h2.7l.846,1.8h.9v.847h.9l.9-.847v-.9h.9l.9-.9h-1.8Z" transform="translate(-354.918 -1192.103)" fill="none" stroke="#96b93c" stroke-width="2"/>
    <path id="Path_31938" data-name="Path 31938" d="M505.3,1504.455l-.9-.9h-.9v.9l.9.9h.9l.9.9h.911v-1.8H505.3Z" transform="translate(-399.203 -1192.103)" fill="none" stroke="#96b93c" stroke-width="2"/>
    <path id="Path_31939" data-name="Path 31939" d="M393.579,1529.346v.9h-1.8v1.8l1.8-.9h.833v-.9l.965-.9h-1.8Z" transform="translate(-310.625 -1212.551)" fill="none" stroke="#96b93c" stroke-width="2"/>
    <path id="Path_31940" data-name="Path 31940" d="M251.41,135.9l.833.951.964.9.833.847h1.811v3.53l.835.9,1.8,1.811h1.8v1.733l1.744.9.953.9v-.9l.9-.9v.9h.9l1.679-.9h.965l1.8.9.835-.9.964.9h1.746v.9l1.732-.9.965-.9,1.8.9h.78l.952-.9.9.9v.9l.9-.9h.9l1.746-.9.833-1.733.965.952h2.7V144l.9-.964h.832V141.3l.914-.9v-.846l-.914-.951v-1.746h-1.733V135.9l.9-.781.832.781v-.781l-.832-.9v-1.8l1.746-.9v-.9l-.914.9h-1.733v-1.746l.9-.9v-.9l-1.8-.9v.9l-.967.9-.833.9h-.965l-.833-.9v-.9l-1.746.9-1.8.9h-.9l.9-2.7-.9-.9v.9l-.952,1.8v.9l-.78.847-.967-.847v-1.8l.967-.9v-1.746l-.967-.951-.833.951-.965-.951v.951l-.833.846-.9.9h-.914v-3.544l-.833-.833-.964,1.679-.835,1.8h-.965v-.846h-1.8l-1.679,2.646v-.9h-.9v-.9l.9-.846v-3.6h1.679l.965-1.8h-.965v-.832l.965-.9v-2.7l-1.747-1.746h-1.8l.9.9.9,1.8h-.9v2.646l-.9.832-.9-.832v-1.746l-.953.846v-2.7h-.846l-.9-.846v2.7l-1.8-.9.966.9.833.846-1.8.9h-.833v-1.746l-.965-.9v1.746h-.835v-.846l-.911.846v.9h1.746l.965.832h1.8l.833.965.9.833v.967h1.8v1.679h-.953l-1.744-.846h-1.8l.966.846.833.951.9.846-.9.9h-.833l-.966-.9-.833-.846h-.965l-1.746-.951-1.733-.846-1.8.846v.951h3.529l.911.846v.9h.835v1.8l-.835.9v1.746l.835-.9v.9l-.835.9-.911.9h-2.7l-.833.9-.967-.9-.833,1.8.833.781Z" transform="translate(-197.906 -90.197)" fill="none" stroke="#96b93c" stroke-width="2"/>
    <path id="Path_31941" data-name="Path 31941" d="M229.005,867.411l1.851-.846-2.7.846Z" transform="translate(-180.897 -687.059)" fill="none" stroke="#96b93c" stroke-width="2"/>
    <path id="Path_31942" data-name="Path 31942" d="M221.28,750.766l.847.832-.847.9v.9h1.8l-1.8.9h2.7v1.746l1.746-.9h.833l.967.9h1.8l.833-.9.9.9H232.8v-.9h.965l.833-.846v.846h.966l.833-.846h6.176l.965.846,1.8-.846.835-.9v-.9h.964l.833-.9v-.832h.914v-2.7l.9-.9v-1.813l.833-.833v-2.644l.965-.953-.965-.846h.965v.846l.833-.846-.038-.078.766-.755.833-.9h1.8V736.6l.966-.9v1.8h.833v-1.8l-.833-.9-.966.9-.833-.9.833-.9h.966v-1.8l-.966-1.732v-1.8h-2.63v-.846h-.914l-.9.846H247.9l.062-.067h2.646l-.833-.833h1.8l.833-.9-.833-.847-.965-.967v.967h-2.646l-1.8-.967-.835.967h-1.8l-.965.847-.782.9-2.7.833.9.9,1.8.966h.782l-.782.833h-1.8V733l-1.852.847-.846-.847-1.731-.9v-.9l-.966-.833-.833-.966h-1.8l-.911,1.8h-.9l.9.9v1.745l-.9.9-.833.9h-.964l-.833.9.833,1.8v.833h.964v1.745l.833-.846H232.8v.846l-.835.953h-.911l-2.7.846-1.8,1.8h-1.8l.965.833,1.8-.833.833.833h1.8l.9.966h-2.7l-.833-.966h-2.764v.966H221.28l-.95.846v.9h2.748l.9.9h-2.7l-.95.9-.847.9.847.832Zm24.834-14.276.834-.786h.127l-.907.845Zm-1.745-5.282.847.789-.118.11-.9-.834h-.661v-.065Z" transform="translate(-174.019 -574.79)" fill="none" stroke="#96b93c" stroke-width="2"/>
    <path id="Path_31943" data-name="Path 31943" d="M700.321,1413.8l-.187.184-.779-.184-.9.422H697.5l-.423.186-.423.594-.952.357-.78.966-.608.594.185.78-.185.966.185.952.356.781v.9l.067.305-.608.541.541.953.662.78v.9l.541.847.6.119.847.9v-.9l.951-.9v-.846l.846-1.8v-1.8l.9-.832.9-.9v-3.61l-.358-.833Z" transform="translate(-550.494 -1120.939)" fill="none" stroke="#96b93c" stroke-width="2"/>
    <path id="Path_31944" data-name="Path 31944" d="M674.045,1483.657l-.846-.834h.846l-.846-.965-.951-.832v-.9l-.847.9h-.952v.832H668.7l-.835.965h-2.764l-.9.834-.846-.834v.834l-.9.845v1.8l.9,1.8v2.646h2.644l-.9.9-.9.9v1.8l-.846.833h-.9l.9.9-.9,1.8.9.9v1.746l1.744.9h1.8v-1.746l.964-.9,1.732.9h.847l.952.846.847-.846v-4.5l.951-1.732V1489h.846l.9-.9v-.831h-.9l.9-1.8v-.966h-.9Z" transform="translate(-525.238 -1173.525)" fill="none" stroke="#96b93c" stroke-width="2"/>
    <path id="Path_31945" data-name="Path 31945" d="M829.876,1631.832l-.9.9-.966-.9h-.833l-.965.9h-2.579l-1.8.9h-1.8l-1.8-.9-1.744-.9-.9-.9h-1.8l-1.8.9v-.9l-.833-.845-.966.845h-.833v1.8l-.965.9v.9l.965.834,1.8.965H812l.964.832,2.632.9.9.9.911,1.812h1.8l.834.832h1.8l1.8.846v.954l.9,1.8,1.679.846.965-.846,1.8.846v-1.8l1.8-.846v-1.8h-.9l.9-.832h-.9v-1.812l.9-.9v-2.7l.9-.834h.833l.9-1.8v-1.8l-1.732.9Z" transform="translate(-640.947 -1292.424)" fill="none" stroke="#96b93c" stroke-width="2"/>
    <path id="Path_31946" data-name="Path 31946" d="M410.508,839.376l.965-.833-.965-.9h-1.679v1.733h1.679Z" transform="translate(-324.143 -664.129)" fill="none" stroke="#96b93c" stroke-width="2"/>
    <path id="Path_31947" data-name="Path 31947" d="M454.02,983.263l.9.9h1.8v-.9h-2.7Z" transform="translate(-359.973 -779.584)" fill="none" stroke="#96b93c" stroke-width="2"/>
    <path id="Path_31948" data-name="Path 31948" d="M535.228,596.168v-2.644l-.951.9h-.9l.9.847Z" transform="translate(-422.893 -470.577)" fill="none" stroke="#96b93c" stroke-width="2"/>
    <path id="Path_31949" data-name="Path 31949" d="M593.577,549.08l1.8-.9v-.833l.9-.9V542l-.9,2.644v.9h-1.8v.9l.9.9v.833Z" transform="translate(-470.622 -429.729)" fill="none" stroke="#96b93c" stroke-width="2"/>
    <path id="Path_31950" data-name="Path 31950" d="M428.377,598.7v1.733l-.9-.833v-.9l-.9.9v.833l-.967,1.8v1.744l.967-1.744.9-.833.9.833v.965l.832-.965V601.4l.913-.966h.9V599.6l.833-.9v-.847l-.833.847h-2.645Z" transform="translate(-337.451 -474.013)" fill="none" stroke="#96b93c" stroke-width="2"/>
    <path id="Path_31951" data-name="Path 31951" d="M424.289,796.555v-.965l-.9-.846-.967.846-.833.965.833.835Z" transform="translate(-334.263 -630.116)" fill="none" stroke="#96b93c" stroke-width="2"/>
    <path id="Path_31952" data-name="Path 31952" d="M431.755,637l-1.8.9v1.8l1.8-.965V637Z" transform="translate(-340.894 -505.044)" fill="none" stroke="#96b93c" stroke-width="2"/>
    <path id="Path_31953" data-name="Path 31953" d="M435.448,641.426v.9l.965-1.8v-1.8l.846-.833V637l-.846.9-.965.833-.835,1.8Z" transform="translate(-344.586 -505.044)" fill="none" stroke="#96b93c" stroke-width="2"/>
    <path id="Path_31954" data-name="Path 31954" d="M425.613,683.853l.9.434v-.434Z" transform="translate(-337.451 -542.195)" fill="none" stroke="#96b93c" stroke-width="2"/>
    <path id="Path_31955" data-name="Path 31955" d="M459.2,818.82l.939-.9h-.027Z" transform="translate(-364.079 -648.493)" fill="none" stroke="#96b93c" stroke-width="2"/>
    <path id="Path_31956" data-name="Path 31956" d="M359.338,616.827v1.8l.9.832v.9h-1.746v1.8h-.953l-.845.9v1.8l-1.8.846.278.278-.94-.453v.465l-.9.965H355.2V626l.6.6.9.9.845-1.8h.953l.846-.846h.9l-.9.846-.846.9-.953.9h.953v.9h-1.8l-.9.833-.9,1.746v1.8l.9-.846.9-1.732h.845l.953.781v.951l-.953.846h-.845v.9h1.8l.846.964h.9v.833h-.9v.9l-.846.846-.953.9-.845.9h-.9v.9l-.9.834h-.9v.965h-.9v3.53h.9v-1.8h.9l.9.9v.9l.9.9v-1.8l.845-.9.953.9v.9l1.746-.9v.9h.9v-.9h.9l.847.9h.9l.9-.9v.6l-.846.909h-.9v.835l-.833-.835-.9.835-.911.9v3.546l.911.9h.9l-.872.835h.872l1.733.9v.9H362.1v.9h-.9v1.8h-.911l-.9.913v.833h.9v1.746h.911l-.911.951h-.9v-.951l-.786.831-.708-.66v-.9h-1.733v-.832l-2.711.832h-.9l-.9.9h-1.732l-.9.9h-.9v.9h.9l.9-.9.953.9.78-.9h.9v.9l-.9.845v1.8h-.78l.78.9-.78.9h-.953l-.9.831-.9.965-.9-.965-.9.965h-2.644l-.9-.965-.9.965v.833l-.9.9h2.7v.846h-.9v.9h1.8l.9-.9h1.746v2.7h2.7l-.9.966.9.833.953.846h3.478l.912-.846v-.185h2.327l-.833.9-.9.912h-1.8l-.9.833v.9h-4.443l-.9-.9h-.9v-.833h-2.63l.9.833-.9.9-.914-.9h-.9v.9l-.9,1.746h-1.8l-2.632.951v.846h-.9l-1.8.9v1.8h1.8v-.9h.9v.9l.9-.9,1.732-.9,1.8.9h1.8v.9l.914.9h1.733l.9-.9v-1.8l.9-.9.9.9h3.543l.9.9.9.9v.9h.9l.9-.9h1.733l.9.9h1.8v-.9l.911-.9.9.9.833.9h1.8v.832h4.443l.9.9h.9l.9.9,1.8-.9h.9l.833.9.9-.9.9-.9h.965l.846-.832.9-.9-.9-.9h-.846l-.965.9-.9-.9h-.9l-.833-.9-.9-.9v-.846H375.4l.9.846.9-.846v-.951h-.9l.9-.781h2.711V679.5h1.732l.9-.9.9-.833v-.912l.967-1.732v-2.7l-.967-.9-1.8-.9h-1.732l-.9-.846-.846.846H377.2l-.9.9-.9-.9v-1.746h.9l.9-.9.965-.9v-2.631l-.965-.9v-.9l-1.8-.846h-.833v-.951H376.3l.9.951v-7.14l-.9-.9v-.9h-.9l-.833-.835h-.9v-3.6l.9-.847v-.9l-.9-.835v-1.8l.9-1.8-.9-.847-.9-1.8-.079.157-.888-1.651-.9-.9-.9-.846h-3.478l-.953-.9h-.9v-.833h.9l.953.833h1.8v-.833h1.679l.9-.964h-.9l-.9-.9h-.779v-.846h2.577l.9.846.967-.846h.833v-.951l1.746-.781.951-.964V628.4l-.951-.9.951-.9h.847v-.9h.965l.833-.846v-1.8H376.3v-.9l-.951-.9h-6.243l-1.732.9h-.846v-2.7l1.8-.832h.779v-.9l.9-.9h1.8l.967-.847.833-.965h1.746v-.9l.951-.78-.951-.952h-1.746v-.847l-1.8.847-1.8-.847v-.951l-.9.951-.779-.951h.779l-1.732-.846h-.846v.846l-.953,1.8h.953l-.953.952-1.8-.952.9.952h-.9l-.9.78.9.9v1.811l-.9-.847h-.847v-.965h-1.8l-.9.965Zm-3.478,56.678h-.594v-.185h.594Zm15.44-31.791.575.542-.184.183-.783-.725Zm-2.123,1.441h-.065v-.608h.065Z" transform="translate(-265.171 -483.434)" fill="none" stroke="#96b93c" stroke-width="2"/>
    <path id="Path_31957" data-name="Path 31957" d="M809.888,732.2h-1.732l-.9.9h-.9l-.846.9-.9.9v.9l-.951.833h-5.29l-.953.9v.847l.953,1.8v-1.8l.9-.847h4.39l.951-.9h2.645l.9.9.9.847v-.847l.834-.9.965-.833V734h-.965v-.9l.965-.9.833-.846h-.833Z" transform="translate(-632.238 -579.854)" fill="none" stroke="#96b93c" stroke-width="2"/>
    <path id="Path_31958" data-name="Path 31958" d="M831.149,838.307h.9v-3.479h-.9l-.9-.951-.846.951-.9-.951v.951h-.951v2.646H829.4v.833Z" transform="translate(-656.132 -661.143)" fill="none" stroke="#96b93c" stroke-width="2"/>
    <path id="Path_31959" data-name="Path 31959" d="M859.491,814.174h-.9v.9l-.9.9h-.9l-.9.832v.967l.9.9-.9.835v.9l.9.847h2.7v.953h-.9l1.8.846h.9l-.9-.846.9-.953h.846l.9-1.744-.9-.835,1.8-1.864.9-.832-.9-1.8.9-.846h-.9l.9-.9h-2.7l-.846.9h.846l.9.846-.9.9H860.39V816.8h-.9l-.9-.832.9-.9Z" transform="translate(-678.602 -644.137)" fill="none" stroke="#96b93c" stroke-width="2"/>
    <path id="Path_31960" data-name="Path 31960" d="M852.45,868.038h-.9v.9l.9.834.9.913h1.8v-.913l-.9-.834h-.9v-.9Z" transform="translate(-675.158 -688.227)" fill="none" stroke="#96b93c" stroke-width="2"/>
    <path id="Path_31961" data-name="Path 31961" d="M873.259,868.038v1.731l.9.913v-.913h.9v-.834h-.9Z" transform="translate(-692.37 -688.227)" fill="none" stroke="#96b93c" stroke-width="2"/>
    <path id="Path_31962" data-name="Path 31962" d="M1226.747,1609.006v-.848l-.832-.95h-.9l-.9-.847-1.8-.9h-1.8l-.781-.9-.965-.847h-.9l-1.8.847.9.9h2.765l.781.9,1.8.847.9.95,1.8.848.9.831.832.967.966,1.8h.834v-1.8l-.834-.967Z" transform="translate(-964.175 -1271.514)" fill="none" stroke="#96b93c" stroke-width="2"/>
    <path id="Path_31963" data-name="Path 31963" d="M1046.99,214.407l1.173-1.1v-.822h1.7l1.029-2.751-1.068-1.053H1048.8v.951h-1.813v1.76l-.955.956.955.956Z" transform="translate(-829.357 -165.448)" fill="none" stroke="#96b93c" stroke-width="2"/>
  </g>
</svg>
