<svg xmlns="http://www.w3.org/2000/svg" xmlns:xlink="http://www.w3.org/1999/xlink" width="51.623" height="51.623" viewBox="0 0 51.623 51.623">
  <defs>
    <clipPath id="clip-path">
      <path id="Path_27874" data-name="Path 27874" d="M0,13.447H51.623V-38.175H0Z" transform="translate(0 38.175)" fill="none"/>
    </clipPath>
  </defs>
  <g id="Group_16225" data-name="Group 16225" transform="translate(0)">
    <g id="Group_14166" data-name="Group 14166" transform="translate(0)" clip-path="url(#clip-path)">
      <g id="Group_14165" data-name="Group 14165" transform="translate(14.255 13.393)">
        <path id="Path_27873" data-name="Path 27873" d="M0,3.01A11.557,11.557,0,1,0,11.557-8.546,11.556,11.556,0,0,0,0,3.01Zm5.022,0a6.534,6.534,0,1,0,6.534-6.534A6.534,6.534,0,0,0,5.022,3.01Z" transform="translate(0 8.546)" fill="none" stroke="#a2c6be" stroke-width="2"/>
      </g>
    </g>
    <path id="Path_27875" data-name="Path 27875" d="M0,3.491l13.4-13.4" transform="translate(25.531 21.938)" fill="none" stroke="#fff" stroke-width="2"/>
    <path id="Path_27876" data-name="Path 27876" d="M0,1.065l.266,4.5L4.356,1.472l-.266-4.5Z" transform="translate(35.795 9.45)" fill="#fff"/>
    <g id="Group_14169" data-name="Group 14169" transform="translate(35.947 10.808)">
      <path id="Path_27877" data-name="Path 27877" d="M1.171,1.135l-4.5-.266L.764-3.221l4.5.266Z" transform="translate(3.325 3.221)" fill="#fff"/>
    </g>
    <g id="Group_14170" data-name="Group 14170" transform="translate(23.955 23.095)">
      <path id="Path_27878" data-name="Path 27878" d="M.007.563A1.855,1.855,0,1,0,1.531-1.572,1.855,1.855,0,0,0,.007.563" transform="translate(0.019 1.598)" fill="#fff"/>
    </g>
    <g id="Group_14171" data-name="Group 14171" transform="translate(14.254 13.394)">
      <path id="Path_27879" data-name="Path 27879" d="M0,3.01A11.557,11.557,0,1,0,11.557-8.546,11.556,11.556,0,0,0,0,3.01Zm5.022,0a6.534,6.534,0,1,0,6.534-6.534A6.534,6.534,0,0,0,5.022,3.01Z" transform="translate(0 8.546)" fill="none" stroke="#fff" stroke-width="2"/>
    </g>
    <g id="Group_14172" data-name="Group 14172" transform="translate(23.955 23.095)">
      <path id="Path_27880" data-name="Path 27880" d="M.007.563A1.855,1.855,0,1,0,1.531-1.572,1.855,1.855,0,0,0,.007.563Z" transform="translate(0.019 1.598)" fill="none" stroke="#fff" stroke-width="2"/>
    </g>
    <path id="Path_27881" data-name="Path 27881" d="M0,13.447H51.623V-38.175H0Z" transform="translate(0 38.175)" fill="none"/>
  </g>
</svg>
