<svg xmlns="http://www.w3.org/2000/svg" width="15.738" height="29.087" viewBox="0 0 15.738 29.087">
  <g id="Group_14436" data-name="Group 14436" transform="translate(-951.531 -3206.495)">
    <path id="Path_1724" data-name="Path 1724" d="M59.741,6.864a16.3,16.3,0,0,0-.1,2.39c.749.051,1.5.113,2.257.133.667.021,1.334,0,2.144,0h.174v5.325h-4.74V29.085s-4.4-.01-6.8,0V14.866H48.62V9.521c1.272-.092,2.473-.164,3.663-.246a22.269,22.269,0,0,1,.554-3.837C54.293-.339,58.2-.246,64.358.164V4.986C60.941,4.617,60,5.243,59.741,6.864Z" transform="translate(902.912 3206.496)" fill="#fff" fill-rule="evenodd"/>
  </g>
</svg>
