<svg xmlns="http://www.w3.org/2000/svg" width="150.203" height="274.183" viewBox="0 0 150.203 274.183">
  <g id="Group_16195" data-name="Group 16195" transform="translate(1 0.999)" opacity="0.371">
    <path id="Path_31930" data-name="Path 31930" d="M67.723,0,65.157,2.344,60.092,5.061H55.029L52.683,7.41V17.536L50.149,22.6v7.26L47.619,32.39l-2.533,5.1v2.533H42.554l-4.908,2.344-2.535-4.877H32.577l-2.531,2.533h-7.6l-2.344-2.533h-5.1l-2.531-5.1V29.857L7.411,27.325,5.066,24.979H2.533L0,29.857v4.917l5.066,2.715,4.878,2.533V44.9h2.533l2.531,2.383h2.529l4.915,2.677,5.061,2.383h2.534v5.065l2.531,2.344V69.878l-2.531,2.534h5.065v7.444l2.535,2.533V84.92l2.375,2.529-2.375,2.383v12.659l2.375,4.877,2.533,2.383v5.215h2.532l2.533,2.379h5.063v2.681l2.347,2.2v12.658l2.527,2.383V139.8H50.149v2.532l-5.063,7.593v2.384l-2.532,4.877L40.021,159.9l-4.91,5.066v4.727l-5.065,2.677-2.534,2.382-2.527,2.534v7.592l-4.878,2.35-2.571-2.35H15.007v4.878l-5.064,5.1v7.4l2.533,2.532v4.918l-2.533,2.677v2.383l5.064,2.532v19.92l-5.064,2.532v7.593l5.064,7.262h7.444l2.534,2.715h7.592l2.534,5.066v4.728l2.535,2.677,2.375,2.383H50.149l2.534-5.061,2.347-2.383,2.527,5.061,2.536-2.677,2.533-2.383,5.1-2.344,7.412-2.534h5.059v-5.247l2.532-2.346,2.536,5.061,2.381-2.715,5.061-2.346,2.533-4.916,2.532,2.384h7.4l2.535-2.384,5.065-10.125,2.565-2.534,2.533-4.727,2.534-2.716,2.343-2.348,2.716-5.25,2.345-7.26v2.383h2.532l2.535-2.383-2.535-2.677,2.535-2.383v-5.067l2.531-2.344,2.534-2.53v-2.529l2.381-5.1,5.063-2.527,2.683-4.877-2.683-5.065L143,174.752l-7.593-2.382-7.6-2.677-2.345-2.385-2.716-2.343H120.4L117.87,159.9h4.877l2.716-2.716v-4.877l-2.716-2.384V147.39H117.87v-5.061l-5.1-2.532,5.1-2.533-2.533-2.383v-2.533l-2.565,2.533-2.533-2.533v-7.592l-2.532-2.533v-2.2l2.532-2.681-2.532-5.06,2.532-2.534V104.84l-2.532-4.882L105.172,94.9l-2.192-2.717-5.212-2.349V87.449L95.236,84.92,92.7,79.856V67.534l2.533-2.72V57.408l-5.065-5.065-4.91-2.383V47.283L82.725,44.9l-2.532-2.533-2.527-2.344V37.489l2.527-2.715V32.39l2.532-2.533H80.194V17.536l2.532-2.683V12.322L80.194,9.939,77.666,7.41H75.135L67.723,5.061,70.258,0Z" fill="none" stroke="#96b93c" stroke-width="2"/>
    <path id="Path_31931" data-name="Path 31931" d="M67.723,0,65.157,2.344,60.092,5.061H55.029L52.683,7.41V17.536L50.149,22.6v7.26L47.619,32.39l-2.533,5.1v2.533H42.554l-4.908,2.344-2.535-4.877H32.577l-2.531,2.533h-7.6l-2.344-2.533h-5.1l-2.531-5.1V29.857L7.411,27.325,5.066,24.979H2.533L0,29.857v4.917l5.066,2.715,4.878,2.533V44.9h2.533l2.531,2.383h2.529l4.915,2.677,5.061,2.383h2.534v5.065l2.531,2.344V69.878l-2.531,2.534h5.065v7.444l2.535,2.533V84.92l2.375,2.529-2.375,2.383v12.659l2.375,4.877,2.533,2.383v5.215h2.532l2.533,2.379h5.063v2.681l2.347,2.2v12.658l2.527,2.383V139.8H50.149v2.532l-5.063,7.593v2.384l-2.532,4.877L40.021,159.9l-4.91,5.066v4.727l-5.065,2.677-2.534,2.382-2.527,2.534v7.592l-4.878,2.35-2.571-2.35H15.007v4.878l-5.064,5.1v7.4l2.533,2.532v4.918l-2.533,2.677v2.383l5.064,2.532v19.92l-5.064,2.532v7.593l5.064,7.262h7.444l2.534,2.715h7.592l2.534,5.066v4.728l2.535,2.677,2.375,2.383H50.149l2.534-5.061,2.347-2.383,2.527,5.061,2.536-2.677,2.533-2.383,5.1-2.344,7.412-2.534h5.059v-5.247l2.532-2.346,2.536,5.061,2.381-2.715,5.061-2.346,2.533-4.916,2.532,2.384h7.4l2.535-2.384,5.065-10.125,2.565-2.534,2.533-4.727,2.534-2.716,2.343-2.348,2.716-5.25,2.345-7.26v2.383h2.532l2.535-2.383-2.535-2.677,2.535-2.383v-5.067l2.531-2.344,2.534-2.53v-2.529l2.381-5.1,5.063-2.527,2.683-4.877-2.683-5.065L143,174.752l-7.593-2.382-7.6-2.677-2.345-2.385-2.716-2.343H120.4L117.87,159.9h4.877l2.716-2.716v-4.877l-2.716-2.384V147.39H117.87v-5.061l-5.1-2.532,5.1-2.533-2.533-2.383v-2.533l-2.565,2.533-2.533-2.533v-7.592l-2.532-2.533v-2.2l2.532-2.681-2.532-5.06,2.532-2.534V104.84l-2.532-4.882L105.172,94.9l-2.192-2.717-5.212-2.349V87.449L95.236,84.92,92.7,79.856V67.534l2.533-2.72V57.408l-5.065-5.065-4.91-2.383V47.283L82.725,44.9l-2.532-2.533-2.527-2.344V37.489l2.527-2.715V32.39l2.532-2.533H80.194V17.536l2.532-2.683V12.322L80.194,9.939,77.666,7.41H75.135L67.723,5.061,70.258,0Z" fill="none" stroke="#96b93c" stroke-width="2"/>
  </g>
</svg>
