<svg xmlns="http://www.w3.org/2000/svg" width="46" height="46" viewBox="0 0 46 46">
  <g id="Group_16222" data-name="Group 16222" transform="translate(864 -5798)">
    <rect id="Rectangle_4298" data-name="Rectangle 4298" width="46" height="46" transform="translate(-864 5798)" fill="#045a6b"/>
    <g id="Group_16091" data-name="Group 16091" transform="translate(7344.418 -1194.057)">
      <path id="Path_31441" data-name="Path 31441" d="M-5.132-7.849a.446.446,0,0,1-.124-.295.413.413,0,0,1,.408-.414h2.395a.414.414,0,0,0,.414-.414.444.444,0,0,0-.13-.3L-5.728-12.83a.522.522,0,0,1-.1-.279.417.417,0,0,1,.124-.3.408.408,0,0,1,.289-.119h1.893a.414.414,0,0,0,.414-.414.4.4,0,0,0-.13-.3l-3.543-3.537L-6.8-17.8a.407.407,0,0,1-.109-.279.411.411,0,0,1,.408-.414H-5.07a.414.414,0,0,0,.414-.414.376.376,0,0,0-.114-.269h.01l-3.232-3.89a.469.469,0,0,0-.068-.073.456.456,0,0,0-.263-.093.458.458,0,0,0-.264.093.465.465,0,0,0-.067.073l-3.223,3.89a.376.376,0,0,0-.113.269.414.414,0,0,0,.414.414h1.433a.4.4,0,0,1,.4.238.39.39,0,0,1-.1.455l-.026.026L-13.4-14.232a.4.4,0,0,0-.129.3.417.417,0,0,0,.408.414h1.893a.407.407,0,0,1,.414.4v.015a.517.517,0,0,1-.1.279l-3.559,3.563a.424.424,0,0,0-.134.3.414.414,0,0,0,.414.414h2.4a.41.41,0,0,1,.408.412h0a.444.444,0,0,1-.119.295l-3.543,3.533-.016.01a.419.419,0,0,0,0,.585.435.435,0,0,0,.3.13h5.618v1.655L-7.5-1.953V-3.592h5.612a.43.43,0,0,0,.43-.419.417.417,0,0,0-.114-.3Z" transform="translate(-8177.176 7027.283)" fill="#96b93c"/>
      <path id="Path_31442" data-name="Path 31442" d="M-2.942-4.5a.256.256,0,0,1-.071-.169A.237.237,0,0,1-2.779-4.9h1.373a.238.238,0,0,0,.237-.238.254.254,0,0,0-.074-.169l-2.04-2.042a.293.293,0,0,1-.059-.16.235.235,0,0,1,.071-.169A.231.231,0,0,1-3.1-7.751H-2.02a.237.237,0,0,0,.237-.238.231.231,0,0,0-.074-.169l-2.031-2.028L-3.9-10.2a.229.229,0,0,1-.062-.16.235.235,0,0,1,.233-.237h.822a.237.237,0,0,0,.237-.238.214.214,0,0,0-.066-.154h.006l-1.852-2.23a.258.258,0,0,0-.039-.042.258.258,0,0,0-.151-.053.258.258,0,0,0-.151.053.228.228,0,0,0-.038.042l-1.847,2.23a.214.214,0,0,0-.066.154.238.238,0,0,0,.237.238h.822a.226.226,0,0,1,.231.136.224.224,0,0,1-.056.261l-.015.015L-7.682-8.158a.228.228,0,0,0-.074.169.239.239,0,0,0,.234.238h1.085a.233.233,0,0,1,.238.228v.009a.3.3,0,0,1-.06.16L-8.3-5.311a.241.241,0,0,0-.077.169.237.237,0,0,0,.237.238h1.376a.235.235,0,0,1,.234.236h0A.257.257,0,0,1-6.6-4.5L-8.628-2.475l-.009.006a.239.239,0,0,0,0,.335.247.247,0,0,0,.171.074h3.22v.949l.948-.009v-.94H-1.08A.246.246,0,0,0-.834-2.3.237.237,0,0,0-.9-2.469Z" transform="translate(-8169.895 7027.073)" fill="#96b93c"/>
      <path id="Path_31443" data-name="Path 31443" d="M-2.942-4.5a.256.256,0,0,1-.071-.169A.237.237,0,0,1-2.779-4.9h1.373a.238.238,0,0,0,.237-.238.254.254,0,0,0-.074-.169l-2.04-2.042a.293.293,0,0,1-.059-.16.235.235,0,0,1,.071-.169A.23.23,0,0,1-3.1-7.751H-2.02a.238.238,0,0,0,.237-.238.231.231,0,0,0-.074-.169l-2.031-2.028L-3.9-10.2a.229.229,0,0,1-.062-.16.235.235,0,0,1,.233-.237h.822a.237.237,0,0,0,.237-.238.214.214,0,0,0-.066-.154h.006l-1.852-2.23a.258.258,0,0,0-.039-.042.258.258,0,0,0-.151-.053.258.258,0,0,0-.151.053.228.228,0,0,0-.038.042l-1.847,2.23a.214.214,0,0,0-.066.154.238.238,0,0,0,.237.238h.822a.226.226,0,0,1,.231.136.224.224,0,0,1-.056.261l-.015.015L-7.682-8.158a.228.228,0,0,0-.074.169.239.239,0,0,0,.234.238h1.085a.233.233,0,0,1,.238.228v.009a.3.3,0,0,1-.06.16L-8.3-5.311a.241.241,0,0,0-.077.169.237.237,0,0,0,.237.238h1.376a.235.235,0,0,1,.234.236h0A.257.257,0,0,1-6.6-4.5L-8.628-2.475l-.009.006a.239.239,0,0,0,0,.335.247.247,0,0,0,.171.074h3.22v.949l.948-.009v-.94H-1.08A.246.246,0,0,0-.834-2.3.237.237,0,0,0-.9-2.469Z" transform="translate(-8191.713 7027.073)" fill="#96b93c"/>
    </g>
  </g>
</svg>
