<svg xmlns="http://www.w3.org/2000/svg" xmlns:xlink="http://www.w3.org/1999/xlink" width="71.139" height="71.138" viewBox="0 0 71.139 71.138">
  <defs>
    <clipPath id="clip-path">
      <path id="Path_27626" data-name="Path 27626" d="M0,32.963H71.139V-38.175H0Z" transform="translate(0 38.175)" fill="none"/>
    </clipPath>
  </defs>
  <g id="Group_14591" data-name="Group 14591" transform="translate(-1533.861 -1166)">
    <rect id="Rectangle_3219" data-name="Rectangle 3219" width="69" height="69" transform="translate(1536 1166)" fill="#045a6b"/>
    <g id="Group_14135" data-name="Group 14135" transform="translate(1533.861 1166)">
      <g id="Group_14127" data-name="Group 14127" transform="translate(0 0)" clip-path="url(#clip-path)">
        <g id="Group_14126" data-name="Group 14126" transform="translate(19.644 18.457)">
          <path id="Path_27625" data-name="Path 27625" d="M0,7.379A15.925,15.925,0,1,0,15.925-8.546,15.925,15.925,0,0,0,0,7.379Zm6.921,0a9,9,0,1,0,9-9A9,9,0,0,0,6.921,7.379Z" transform="translate(0 8.546)" fill="none" stroke="#a2c6be" stroke-width="1"/>
        </g>
      </g>
      <g id="Group_14128" data-name="Group 14128" transform="translate(35.182 16.573)">
        <path id="Path_27627" data-name="Path 27627" d="M0,8.558,18.469-9.911" transform="translate(0 9.911)" fill="none" stroke="#fff" stroke-width="2"/>
      </g>
      <g id="Group_14129" data-name="Group 14129" transform="translate(49.328 8.855)">
        <path id="Path_27628" data-name="Path 27628" d="M0,2.611l.367,6.2L6,3.172l-.367-6.2Z" transform="translate(0 3.024)" fill="#fff"/>
      </g>
      <g id="Group_14130" data-name="Group 14130" transform="translate(49.538 14.894)">
        <path id="Path_27629" data-name="Path 27629" d="M2.871,2.781l-6.2-.367L2.31-3.221l6.2.367Z" transform="translate(3.325 3.221)" fill="#fff"/>
      </g>
      <g id="Group_14134" data-name="Group 14134" transform="translate(0 0)" clip-path="url(#clip-path)">
        <g id="Group_14131" data-name="Group 14131" transform="translate(33.012 31.825)">
          <path id="Path_27630" data-name="Path 27630" d="M.016,1.38a2.556,2.556,0,1,0,2.1-2.942A2.557,2.557,0,0,0,.016,1.38" transform="translate(0.019 1.598)" fill="#fff"/>
        </g>
        <g id="Group_14132" data-name="Group 14132" transform="translate(19.644 18.457)">
          <path id="Path_27631" data-name="Path 27631" d="M0,7.379A15.925,15.925,0,1,0,15.925-8.546,15.925,15.925,0,0,0,0,7.379Zm6.921,0a9,9,0,1,0,9-9A9,9,0,0,0,6.921,7.379Z" transform="translate(0 8.546)" fill="none" stroke="#fff" stroke-width="2"/>
        </g>
        <g id="Group_14133" data-name="Group 14133" transform="translate(33.012 31.825)">
          <path id="Path_27632" data-name="Path 27632" d="M.016,1.38a2.556,2.556,0,1,0,2.1-2.942A2.557,2.557,0,0,0,.016,1.38Z" transform="translate(0.019 1.598)" fill="none" stroke="#fff" stroke-width="2"/>
        </g>
      </g>
    </g>
  </g>
</svg>
