<svg xmlns="http://www.w3.org/2000/svg" width="32.873" height="32.882" viewBox="0 0 32.873 32.882">
  <path id="Icon_awesome-rocket" data-name="Icon awesome-rocket" d="M28.461,1.076a.9.9,0,0,0-.687-.687A20.45,20.45,0,0,0,23.125,0c-5.815,0-9.3,3.111-11.906,7.213H5.347A2.7,2.7,0,0,0,2.931,8.706L.146,14.273a1.352,1.352,0,0,0,1.211,1.956H7.2L5.939,17.5a1.8,1.8,0,0,0,0,2.55l2.868,2.869a1.8,1.8,0,0,0,2.55,0l1.266-1.266V27.5a1.352,1.352,0,0,0,1.955,1.211l5.562-2.783a2.7,2.7,0,0,0,1.493-2.417V17.626c4.091-2.609,7.213-6.108,7.213-11.9a19.989,19.989,0,0,0-.386-4.655ZM21.64,9.467a2.254,2.254,0,1,1,2.254-2.254A2.254,2.254,0,0,1,21.64,9.467Z" transform="translate(2.026 2)" fill="none" stroke="#383838" stroke-width="4"/>
</svg>
