<svg xmlns="http://www.w3.org/2000/svg" width="46" height="46" viewBox="0 0 46 46">
  <g id="Group_16220" data-name="Group 16220" transform="translate(736 -5798)">
    <rect id="Rectangle_4300" data-name="Rectangle 4300" width="46" height="46" transform="translate(-736 5798)" fill="#045a6b"/>
    <g id="Group_16076" data-name="Group 16076" transform="translate(-726 5810)">
      <path id="Path_31426" data-name="Path 31426" d="M-10.831-5.292c-1.749,1.908-2.292,4.331-2.575,6.748C-13.66,3.624-14.6,4.53-16.763,4.5q-6.993-.095-13.988,0c-2.115.026-3.22-.755-3.394-2.988A20.791,20.791,0,0,0-36.333-5.4c2.744-.138,3.683,2.093,5.652,3.324-.106-3.652-1.866-6.725-2.522-10.571,4.656,2.661,5.725,6.9,7.352,11.347,1.286-6.34,2.377-12.281,7.491-16.449-.34,3.8-2.126,7.359-2.11,12.135,1.892-3.024,3.1-5.586,6.309-7.235-1.079,3.8-2,7.048-2.923,10.3,2.189-1.214,3.769-3.1,6.252-3.434Z" transform="translate(36.333 17.753)" fill="#96b93c"/>
    </g>
  </g>
</svg>
