<svg xmlns="http://www.w3.org/2000/svg" xmlns:xlink="http://www.w3.org/1999/xlink" width="297.19" height="352.318" viewBox="0 0 297.19 352.318">
  <defs>
    <clipPath id="clip-path">
      <rect id="Rectangle_4394" data-name="Rectangle 4394" width="295.921" height="350.682" fill="none" stroke="#96b93c" stroke-width="2"/>
    </clipPath>
  </defs>
  <g id="Group_16170" data-name="Group 16170" transform="translate(0.635 0.635)" opacity="0.375">
    <path id="Path_31893" data-name="Path 31893" d="M26.529,262.235l2.981,2.94,3.164-2.94h9.737l2.942-3.4H51.5V255.9h3.356l2.983-3.171V255.9l3.35,2.932,2.981,3.4H61.188l2.981,2.94v2.976h3.169v3.4l-3.169,6.336h3.169v2.929l-3.169,3.173H61.188v15.653l-3.35,6.1v15.842l-2.983,2.982L51.5,321.591H48.514l-6.1-3.171-3.4,3.171v6.152h-6.34l-6.146-3.17V318.42l-3.168-3.17,3.168-6.331-3.168-3.17h3.168l2.981-2.935v-6.336l3.164-3.173,3.169-3.163H26.529V280.82l-3.168-6.331v-6.339l3.168-2.976Z" transform="translate(-6.312 -68.292)" fill="none" stroke="#96b93c" stroke-width="2"/>
    <path id="Path_31894" data-name="Path 31894" d="M26.529,262.235l2.981,2.94,3.164-2.94h9.737l2.942-3.4H51.5V255.9h3.356l2.983-3.171V255.9l3.35,2.932,2.981,3.4H61.188l2.981,2.94v2.976h3.169v3.4l-3.169,6.336h3.169v2.929l-3.169,3.173H61.188v15.653l-3.35,6.1v15.842l-2.983,2.982L51.5,321.591H48.514l-6.1-3.171-3.4,3.171v6.152h-6.34l-6.146-3.17V318.42l-3.168-3.17,3.168-6.331-3.168-3.17h3.168l2.981-2.935v-6.336l3.164-3.173,3.169-3.163H26.529V280.82l-3.168-6.331v-6.339l3.168-2.976Z" transform="translate(-6.312 -68.292)" fill="none" stroke="#96b93c" stroke-miterlimit="10" stroke-width="2"/>
    <path id="Path_31895" data-name="Path 31895" d="M26.529,262.235l2.981,2.94,3.164-2.94h9.737l2.942-3.4H51.5V255.9h3.356l2.983-3.171V255.9l3.35,2.932,2.981,3.4H61.188l2.981,2.94v2.976h3.169v3.4l-3.169,6.336h3.169v2.929l-3.169,3.173H61.188v15.653l-3.35,6.1v15.842l-2.983,2.982L51.5,321.591H48.514l-6.1-3.171-3.4,3.171v6.152h-6.34l-6.146-3.17V318.42l-3.168-3.17,3.168-6.331-3.168-3.17h3.168l2.981-2.935v-6.336l3.164-3.173,3.169-3.163H26.529V280.82l-3.168-6.331v-6.339l3.168-2.976Z" transform="translate(-6.312 -68.292)" fill="none" stroke="#96b93c" stroke-width="2"/>
    <path id="Path_31896" data-name="Path 31896" d="M26.529,262.235l2.981,2.94,3.164-2.94h9.737l2.942-3.4H51.5V255.9h3.356l2.983-3.171V255.9l3.35,2.932,2.981,3.4H61.188l2.981,2.94v2.976h3.169v3.4l-3.169,6.336h3.169v2.929l-3.169,3.173H61.188v15.653l-3.35,6.1v15.842l-2.983,2.982L51.5,321.591H48.514l-6.1-3.171-3.4,3.171v6.152h-6.34l-6.146-3.17V318.42l-3.168-3.17,3.168-6.331-3.168-3.17h3.168l2.981-2.935v-6.336l3.164-3.173,3.169-3.163H26.529V280.82l-3.168-6.331v-6.339l3.168-2.976Z" transform="translate(-6.312 -68.292)" fill="none" stroke="#96b93c" stroke-miterlimit="10" stroke-width="2"/>
    <path id="Path_31897" data-name="Path 31897" d="M175.633,405.67H172.7V412l-3.4,3.176v3.165l3.4,2.937,6.339,3.4h2.934l3.4,2.932,9.274,3.168,3.169,3.17,3.211,6.383h6.335l2.937,2.932h6.335l6.338,2.982v3.358l3.169,6.331,5.916,2.982,3.4-2.982,6.339,2.982V452.59l6.334-2.982v-6.34h-3.17l3.17-2.932h-3.17v-6.383l3.17-3.17v-9.5l3.169-2.937h2.934L257.4,412V405.67l-6.1,3.17h-6.339L241.793,412l-3.4-3.165h-2.934l-3.4,3.165H222.97l-6.338,3.176H210.3L203.959,412l-6.146-3.165-3.169-3.17H188.3l-6.331,3.17v-3.17l-2.934-2.978Z" transform="translate(-45.747 -108.813)" fill="none" stroke="#96b93c" stroke-width="2"/>
    <g id="Group_16163" data-name="Group 16163">
      <g id="Group_16162" data-name="Group 16162" clip-path="url(#clip-path)">
        <path id="Path_31898" data-name="Path 31898" d="M257.4,405.67v6.335l-3.169,6.341H251.3l-3.169,2.937v9.5l-3.17,3.17v6.383h3.17l-3.17,2.932h3.17v6.341l-6.334,2.982v6.33l-6.338-2.981-3.4,2.981-5.916-2.981-3.169-6.331v-3.359l-6.338-2.982H210.3l-2.938-2.932h-6.335l-3.211-6.383-3.169-3.17-9.273-3.168-3.4-2.932h-2.934l-6.339-3.4-3.4-2.937v-3.165l3.4-3.176V405.67h2.933l3.406-2.977,2.934,2.977v3.17l6.331-3.17h6.34l3.169,3.17,6.146,3.165,6.338,3.176h6.335l6.338-3.176h9.085l3.4-3.165h2.934l3.4,3.165,3.164-3.165h6.34Z" transform="translate(-45.747 -108.814)" fill="none" stroke="#96b93c" stroke-miterlimit="10" stroke-width="2"/>
      </g>
    </g>
    <path id="Path_31899" data-name="Path 31899" d="M175.633,405.67H172.7V412l-3.4,3.176v3.165l3.4,2.937,6.339,3.4h2.934l3.4,2.932,9.274,3.168,3.169,3.17,3.211,6.383h6.335l2.937,2.932h6.335l6.338,2.982v3.358l3.169,6.331,5.916,2.982,3.4-2.982,6.339,2.982V452.59l6.334-2.982v-6.34h-3.17l3.17-2.932h-3.17v-6.383l3.17-3.17v-9.5l3.169-2.937h2.934L257.4,412V405.67l-6.1,3.17h-6.339L241.793,412l-3.4-3.165h-2.934l-3.4,3.165H222.97l-6.338,3.176H210.3L203.959,412l-6.146-3.165-3.169-3.17H188.3l-6.331,3.17v-3.17l-2.934-2.978Z" transform="translate(-45.747 -108.813)" fill="none" stroke="#96b93c" stroke-width="2"/>
    <g id="Group_16165" data-name="Group 16165">
      <g id="Group_16164" data-name="Group 16164" clip-path="url(#clip-path)">
        <path id="Path_31900" data-name="Path 31900" d="M257.4,405.67v6.335l-3.169,6.341H251.3l-3.169,2.937v9.5l-3.17,3.17v6.383h3.17l-3.17,2.932h3.17v6.341l-6.334,2.982v6.33l-6.338-2.981-3.4,2.981-5.916-2.981-3.169-6.331v-3.359l-6.338-2.982H210.3l-2.938-2.932h-6.335l-3.211-6.383-3.169-3.17-9.273-3.168-3.4-2.932h-2.934l-6.339-3.4-3.4-2.937v-3.165l3.4-3.176V405.67h2.933l3.406-2.977,2.934,2.977v3.17l6.331-3.17h6.34l3.169,3.17,6.146,3.165,6.338,3.176h6.335l6.338-3.176h9.085l3.4-3.165h2.934l3.4,3.165,3.164-3.165h6.34Z" transform="translate(-45.747 -108.814)" fill="none" stroke="#96b93c" stroke-miterlimit="10" stroke-width="2"/>
      </g>
    </g>
    <path id="Path_31901" data-name="Path 31901" d="M126.014.5V3.715l-6.1,3.171h-6.335V.5h-6.381v9.551h-2.94l-3.164-3.165-3.169,3.165-3.17,2.932,3.17,3.407-3.17,2.932-3.169-2.932H82.267V12.982L79.1,10.051H75.929v9.27H72.766L69.6,22.494l-3.17,3.166v2.977L63.263,25.66l-2.94-3.166-3.169-3.172V12.982L53.99,10.051H50.771L47.6,12.982v3.407l-3.164,6.1H35.167L32,19.321,19.326,22.494H16.344V25.66h-3.17v2.977L16.344,32v2.978l2.982,3.173-2.982,3.168-3.17,2.934L10,47.649H.5v2.932l3.17,3.17H6.84L10,56.922V63.3L6.84,66.236V78.72L10,85.06h9.321L22.5,88.228,19.326,91.4v2.932l-2.982,3.4-3.17,2.745,6.152-2.745,3.171-3.4h6.331l6.34-2.932,3.169-3.171V85.06l2.934-3.17,3.17-3.17h9.55l6.334,6.34,2.94-3.17,9.5,6.338V85.06l3.162-3.17h6.339L79.1,85.06v3.168L82.267,91.4,79.1,94.331l6.154,6.147,3.354,12.861,2.977,12.254,3.169,3.213,6.34,15.612h3.164l6.339,6.336,2.982,6.335,3.356,2.746,2.978,3.406,9.271,9.262,18.824,18.827h3.358l2.975,6.333h6.338l3.169,6.153,3.17-3.171,9.315,9.511,3.356,3.161,2.975,2.941h2.942l6.332,6.331h3.406l2.933,3.173V238.01l6.334,3.407h6.151l6.521,3.157,2.983,2.948v3.394l3.169,2.937,2.934,9.322,3.4,9.5V282l-3.4,3.163h-6.1v12.255l-2.983,3.354-3.163,2.977v3.36l3.163,2.981h9.087l3.4-2.981h2.94v-3.36l6.567-2.977V291.5l3.17-3.17,2.981-3.168L248.589,282H258.1V260l-3.406-2.932-6.1,2.932-3.165-5.262-1.073-8.247,1.073-5.076h3.165V238.01l3.17-2.748h-3.17l3.17-3.35,2.933-2.981h6.338v2.981l6.334,3.35h12.679v6.155l2.975,3.157v2.948l3.357,3.394h6.152l3.164-3.394V231.912l-6.57-2.981-2.747-6.342-3.357-3.169-6.145-3.161h-6.338l-3.17-2.941-2.933-3.161-9.739-3.17-2.933-3.17-3.17-3.171h-9.316l-3.169-2.982-6.338-3.163h-3.4l3.4-3.17h2.94l3.4-3.168v-6.331l-9.736-2.984H207.779l-6.1-3.171-3.4-6.1-2.933-3.4L189,159.835l-3.4-5.916-5.917-6.334v-6.338l2.975-3.17-2.975-6.1-3.356-6.381v-3.17l-2.983-3.165v-5.919h-3.4l-6.1-3.354-6.337-3.166h-3.171l-6.333-2.982v-3.359l-2.984-2.745v-3.4l-3.168-6.1,3.168-3.168V78.72l2.984-2.975,3.358-3.17v-3.17h-3.358l-2.984-3.169V63.3h-3.168l3.168-3.4h2.984V53.751h15.841l3.17-3.17h2.933V47.649h6.382v2.932l3.356,3.17v-6.1h2.975l2.942-3.4-2.942-2.934-2.975-3.168,5.917-3.173V32l-2.942-3.36V22.494h-2.975l-3.356-3.172H160.677l-3.167-2.932-3.171-3.407V10.051l-2.975-3.165-3.358-3.171H132.587L129.182.5Z" transform="translate(-0.135 -0.135)" fill="none" stroke="#96b93c" stroke-width="2"/>
    <g id="Group_16167" data-name="Group 16167">
      <g id="Group_16166" data-name="Group 16166" clip-path="url(#clip-path)">
        <path id="Path_31902" data-name="Path 31902" d="M13.173,100.478l6.152-2.745,3.17-3.4h6.331l6.34-2.932,3.169-3.171V85.06l2.934-3.17,3.169-3.17h9.55l6.335,6.34,2.939-3.17,9.5,6.338V85.06l3.162-3.17h6.339L79.1,85.06v3.168L82.267,91.4,79.1,94.331l6.154,6.147,3.354,12.861,2.977,12.255,3.169,3.213,6.34,15.612h3.164l6.338,6.335,2.982,6.336,3.357,2.745,2.978,3.407,9.271,9.262,18.824,18.827h3.358l2.975,6.333h6.339l3.169,6.152,3.17-3.17,9.315,9.511,3.356,3.161,2.975,2.942H185.6l6.332,6.331h3.406l2.933,3.173V238.01l6.333,3.407h6.151l6.521,3.159,2.983,2.946v3.394l3.169,2.937,2.934,9.322,3.4,9.5V282l-3.4,3.163h-6.1v12.255l-2.983,3.354-3.163,2.977v3.36l3.163,2.981h9.087l3.4-2.981h2.94v-3.36l6.567-2.977V291.5l3.17-3.17,2.982-3.168L248.589,282H258.1V260l-3.406-2.932-6.1,2.932-3.164-5.262-1.074-8.247,1.074-5.076h3.164V238.01l3.17-2.748h-3.17l3.17-3.35,2.933-2.981h6.338v2.981l6.334,3.35h12.678v6.154l2.975,3.159v2.946l3.357,3.394h6.152l3.164-3.394V231.912l-6.569-2.981-2.747-6.341-3.357-3.17-6.146-3.161h-6.337l-3.17-2.942-2.933-3.161-9.739-3.17-2.933-3.171-3.17-3.17h-9.316l-3.169-2.982-6.338-3.163h-3.4l3.4-3.17h2.94l3.4-3.168v-6.331l-9.736-2.984H207.779l-6.1-3.171-3.4-6.1-2.933-3.4L189,159.834l-3.4-5.916-5.917-6.334v-6.338l2.975-3.17-2.975-6.1-3.356-6.381v-3.171l-2.983-3.165v-5.919h-3.4l-6.1-3.354-6.337-3.166h-3.171l-6.333-2.982v-3.359l-2.984-2.745v-3.4l-3.168-6.1,3.168-3.168V78.72l2.984-2.975,3.358-3.17v-3.17h-3.358l-2.984-3.168V63.3h-3.168l3.168-3.4h2.984V53.751h15.841l3.17-3.17h2.932V47.649h6.383v2.932l3.356,3.17v-6.1h2.975l2.942-3.4-2.942-2.934-2.975-3.168,5.917-3.173V32l-2.942-3.359V22.494h-2.975l-3.356-3.172H160.677l-3.168-2.932-3.171-3.406V10.051l-2.975-3.165-3.358-3.171H132.587L129.181.5h-3.168V3.715l-6.1,3.171h-6.335V.5h-6.381v9.551h-2.94l-3.164-3.165-3.169,3.165-3.17,2.932,3.17,3.406-3.17,2.932-3.169-2.932H82.267V12.983L79.1,10.051H75.928v9.27H72.766L69.6,22.494,66.427,25.66v2.977L63.263,25.66l-2.939-3.166-3.169-3.172V12.983l-3.166-2.932H50.771L47.6,12.983v3.406l-3.164,6.1H35.166L32,19.321,19.325,22.494H16.343V25.66h-3.17v2.977L16.343,32v2.979l2.982,3.173-2.982,3.168-3.17,2.934L10,47.649H.5v2.932l3.171,3.17H6.84L10,56.922V63.3L6.84,66.237V78.72L10,85.06h9.322l3.17,3.168L19.325,91.4v2.932l-2.982,3.4Z" transform="translate(-0.135 -0.135)" fill="none" stroke="#96b93c" stroke-miterlimit="10" stroke-width="2"/>
      </g>
    </g>
    <path id="Path_31903" data-name="Path 31903" d="M126.014.5V3.715l-6.1,3.171h-6.335V.5h-6.381v9.551h-2.94l-3.164-3.165-3.169,3.165-3.17,2.932,3.17,3.407-3.17,2.932-3.169-2.932H82.267V12.982L79.1,10.051H75.929v9.27H72.766L69.6,22.494l-3.17,3.166v2.977L63.263,25.66l-2.94-3.166-3.169-3.172V12.982L53.99,10.051H50.771L47.6,12.982v3.407l-3.164,6.1H35.167L32,19.321,19.326,22.494H16.344V25.66h-3.17v2.977L16.344,32v2.978l2.982,3.173-2.982,3.168-3.17,2.934L10,47.649H.5v2.932l3.17,3.17H6.84L10,56.922V63.3L6.84,66.236V78.72L10,85.06h9.321L22.5,88.228,19.326,91.4v2.932l-2.982,3.4-3.17,2.745,6.152-2.745,3.171-3.4h6.331l6.34-2.932,3.169-3.171V85.06l2.934-3.17,3.17-3.17h9.55l6.334,6.34,2.94-3.17,9.5,6.338V85.06l3.162-3.17h6.339L79.1,85.06v3.168L82.267,91.4,79.1,94.331l6.154,6.147,3.354,12.861,2.977,12.254,3.169,3.213,6.34,15.612h3.164l6.339,6.336,2.982,6.335,3.356,2.746,2.978,3.406,9.271,9.262,18.824,18.827h3.358l2.975,6.333h6.338l3.169,6.153,3.17-3.171,9.315,9.511,3.356,3.161,2.975,2.941h2.942l6.332,6.331h3.406l2.933,3.173V238.01l6.334,3.407h6.151l6.521,3.157,2.983,2.948v3.394l3.169,2.937,2.934,9.322,3.4,9.5V282l-3.4,3.163h-6.1v12.255l-2.983,3.354-3.163,2.977v3.36l3.163,2.981h9.087l3.4-2.981h2.94v-3.36l6.567-2.977V291.5l3.17-3.17,2.981-3.168L248.589,282H258.1V260l-3.406-2.932-6.1,2.932-3.165-5.262-1.073-8.247,1.073-5.076h3.165V238.01l3.17-2.748h-3.17l3.17-3.35,2.933-2.981h6.338v2.981l6.334,3.35h12.679v6.155l2.975,3.157v2.948l3.357,3.394h6.152l3.164-3.394V231.912l-6.57-2.981-2.747-6.342-3.357-3.169-6.145-3.161h-6.338l-3.17-2.941-2.933-3.161-9.739-3.17-2.933-3.17-3.17-3.171h-9.316l-3.169-2.982-6.338-3.163h-3.4l3.4-3.17h2.94l3.4-3.168v-6.331l-9.736-2.984H207.779l-6.1-3.171-3.4-6.1-2.933-3.4L189,159.835l-3.4-5.916-5.917-6.334v-6.338l2.975-3.17-2.975-6.1-3.356-6.381v-3.17l-2.983-3.165v-5.919h-3.4l-6.1-3.354-6.337-3.166h-3.171l-6.333-2.982v-3.359l-2.984-2.745v-3.4l-3.168-6.1,3.168-3.168V78.72l2.984-2.975,3.358-3.17v-3.17h-3.358l-2.984-3.169V63.3h-3.168l3.168-3.4h2.984V53.751h15.841l3.17-3.17h2.933V47.649h6.382v2.932l3.356,3.17v-6.1h2.975l2.942-3.4-2.942-2.934-2.975-3.168,5.917-3.173V32l-2.942-3.36V22.494h-2.975l-3.356-3.172H160.677l-3.167-2.932-3.171-3.407V10.051l-2.975-3.165-3.358-3.171H132.587L129.182.5Z" transform="translate(-0.135 -0.135)" fill="none" stroke="#96b93c" stroke-width="2"/>
    <g id="Group_16169" data-name="Group 16169">
      <g id="Group_16168" data-name="Group 16168" clip-path="url(#clip-path)">
        <path id="Path_31904" data-name="Path 31904" d="M13.173,100.478l6.152-2.745,3.17-3.4h6.331l6.34-2.932,3.169-3.171V85.06l2.934-3.17,3.169-3.17h9.55l6.335,6.34,2.939-3.17,9.5,6.338V85.06l3.162-3.17h6.339L79.1,85.06v3.168L82.267,91.4,79.1,94.331l6.154,6.147,3.354,12.861,2.977,12.255,3.169,3.213,6.34,15.612h3.164l6.338,6.335,2.982,6.336,3.357,2.745,2.978,3.407,9.271,9.262,18.824,18.827h3.358l2.975,6.333h6.339l3.169,6.152,3.17-3.17,9.315,9.511,3.356,3.161,2.975,2.942H185.6l6.332,6.331h3.406l2.933,3.173V238.01l6.333,3.407h6.151l6.521,3.159,2.983,2.946v3.394l3.169,2.937,2.934,9.322,3.4,9.5V282l-3.4,3.163h-6.1v12.255l-2.983,3.354-3.163,2.977v3.36l3.163,2.981h9.087l3.4-2.981h2.94v-3.36l6.567-2.977V291.5l3.17-3.17,2.982-3.168L248.589,282H258.1V260l-3.406-2.932-6.1,2.932-3.164-5.262-1.074-8.247,1.074-5.076h3.164V238.01l3.17-2.748h-3.17l3.17-3.35,2.933-2.981h6.338v2.981l6.334,3.35h12.678v6.154l2.975,3.159v2.946l3.357,3.394h6.152l3.164-3.394V231.912l-6.569-2.981-2.747-6.341-3.357-3.17-6.146-3.161h-6.337l-3.17-2.942-2.933-3.161-9.739-3.17-2.933-3.171-3.17-3.17h-9.316l-3.169-2.982-6.338-3.163h-3.4l3.4-3.17h2.94l3.4-3.168v-6.331l-9.736-2.984H207.779l-6.1-3.171-3.4-6.1-2.933-3.4L189,159.834l-3.4-5.916-5.917-6.334v-6.338l2.975-3.17-2.975-6.1-3.356-6.381v-3.171l-2.983-3.165v-5.919h-3.4l-6.1-3.354-6.337-3.166h-3.171l-6.333-2.982v-3.359l-2.984-2.745v-3.4l-3.168-6.1,3.168-3.168V78.72l2.984-2.975,3.358-3.17v-3.17h-3.358l-2.984-3.168V63.3h-3.168l3.168-3.4h2.984V53.751h15.841l3.17-3.17h2.932V47.649h6.383v2.932l3.356,3.17v-6.1h2.975l2.942-3.4-2.942-2.934-2.975-3.168,5.917-3.173V32l-2.942-3.359V22.494h-2.975l-3.356-3.172H160.677l-3.168-2.932-3.171-3.406V10.051l-2.975-3.165-3.358-3.171H132.587L129.181.5h-3.168V3.715l-6.1,3.171h-6.335V.5h-6.381v9.551h-2.94l-3.164-3.165-3.169,3.165-3.17,2.932,3.17,3.406-3.17,2.932-3.169-2.932H82.267V12.983L79.1,10.051H75.928v9.27H72.766L69.6,22.494,66.427,25.66v2.977L63.263,25.66l-2.939-3.166-3.169-3.172V12.983l-3.166-2.932H50.771L47.6,12.983v3.406l-3.164,6.1H35.166L32,19.321,19.325,22.494H16.343V25.66h-3.17v2.977L16.343,32v2.979l2.982,3.173-2.982,3.168-3.17,2.934L10,47.649H.5v2.932l3.171,3.17H6.84L10,56.922V63.3L6.84,66.237V78.72L10,85.06h9.322l3.17,3.168L19.325,91.4v2.932l-2.982,3.4Z" transform="translate(-0.135 -0.135)" fill="none" stroke="#96b93c" stroke-miterlimit="10" stroke-width="2"/>
      </g>
    </g>
  </g>
</svg>
