<svg xmlns="http://www.w3.org/2000/svg" width="20.098" height="20.098" viewBox="0 0 20.098 20.098">
  <path id="Icon_awesome-key" data-name="Icon awesome-key" d="M20.1,6.909A6.912,6.912,0,0,1,11.9,13.7l-.943,1.06a.942.942,0,0,1-.7.316H8.793v1.57a.942.942,0,0,1-.942.942H6.281v1.57a.942.942,0,0,1-.942.942H.942A.942.942,0,0,1,0,19.156V16.092a.942.942,0,0,1,.276-.666L6.627,9.074A6.909,6.909,0,1,1,20.1,6.909ZM13.189,5.025A1.884,1.884,0,1,0,15.074,3.14,1.884,1.884,0,0,0,13.189,5.025Z" fill="#383838"/>
</svg>
