<svg xmlns="http://www.w3.org/2000/svg" width="506.99" height="265.069" viewBox="0 0 506.99 265.069">
  <g id="Group_16190" data-name="Group 16190" transform="translate(1.262 1.694)" opacity="0.368">
    <path id="Path_31920" data-name="Path 31920" d="M296.324,0V11.145h-11.8L273.349,0l-10.5,11.145L219,22.324v87.826L207.857,121.33l-10.515,10.5H186.179l-22.324-21.681L153.346,99.823V76.671L131.017,55.164H120.669L110.161,44.659V33.48H88.649l-22.3,11.179-12,10.505H44.006L34.318,76.671V99.823L23.155,121.33,11.166,141.507,0,207.845l34.318-11.338H54.346l12-11.169h64.669l22.329-11.809h32.832L219,185.338l22.337-11.809L252.5,185.338l20.848,11.169,34.156,11.338h9.016l11.163,21.509,34.138,22.314,9.7,10.513h55.984l10.333-10.513,11.171,10.513,22.335-10.513,9.019-11.171-9.019-11.143L460.176,218.99l20.19-11.145L502.7,196.506h1.471l-10.505-22.978V151.858l-11.812-20.025v-10.5H461.637L450.5,99.823H472.81V55.164H461.637L450.5,64.841V55.164H439.328V44.659H427.508V33.48L405.017,44.659,382.68,55.164,371.524,33.48H339.515l-11.83-11.156V11.145H316.522Z" transform="translate(0 0)" fill="none" stroke="#96b93c" stroke-width="2"/>
    <path id="Path_31921" data-name="Path 31921" d="M296.324,0V11.145h-11.8L273.349,0l-10.5,11.145L219,22.324v87.826L207.857,121.33l-10.515,10.5H186.179l-22.324-21.681L153.346,99.823V76.671L131.017,55.164H120.669L110.161,44.659V33.48H88.649l-22.3,11.179-12,10.505H44.006L34.318,76.671V99.823L23.155,121.33,11.166,141.507,0,207.845l34.318-11.338H54.346l12-11.169h64.669l22.329-11.809h32.832L219,185.338l22.337-11.809L252.5,185.338l20.848,11.169,34.156,11.338h9.016l11.163,21.509,34.138,22.314,9.7,10.513h55.984l10.333-10.513,11.171,10.513,22.335-10.513,9.019-11.171-9.019-11.143L460.176,218.99l20.19-11.145L502.7,196.506h1.471l-10.505-22.978V151.858l-11.812-20.025v-10.5H461.637L450.5,99.823H472.81V55.164H461.637L450.5,64.841V55.164H439.328V44.659H427.508V33.48L405.017,44.659,382.68,55.164,371.524,33.48H339.515l-11.83-11.156V11.145H316.522Z" transform="translate(0 0)" fill="none" stroke="#96b93c" stroke-width="2"/>
  </g>
</svg>
