<svg xmlns="http://www.w3.org/2000/svg" width="39.42" height="39.419" viewBox="0 0 39.42 39.419">
  <path id="Icon_awesome-linkedin-in" data-name="Icon awesome-linkedin-in" d="M8.824,39.42H.651V13.1H8.824ZM4.733,9.512A4.756,4.756,0,1,1,9.466,4.734,4.773,4.773,0,0,1,4.733,9.512ZM39.411,39.42H31.256V26.608c0-3.053-.062-6.969-4.249-6.969-4.249,0-4.9,3.317-4.9,6.749V39.42H13.943V13.1h7.838v3.59H21.9a8.587,8.587,0,0,1,7.733-4.25c8.271,0,9.792,5.447,9.792,12.521V39.42Z" transform="translate(0 -0.001)" fill="#2f2f2f"/>
</svg>
