<svg xmlns="http://www.w3.org/2000/svg" xmlns:xlink="http://www.w3.org/1999/xlink" width="415.005" height="351.727" viewBox="0 0 415.005 351.727">
  <defs>
    <clipPath id="clip-path">
      <rect id="Rectangle_4303" data-name="Rectangle 4303" width="413.935" height="349.952" fill="none" stroke="#96b93c" stroke-width="2"/>
    </clipPath>
  </defs>
  <g id="Group_16097" data-name="Group 16097" transform="translate(0.535 1.24)" opacity="0.382">
    <path id="Path_31444" data-name="Path 31444" d="M264.883,82.379h-3.745l-4.328-4.095h-7.537l-8.064-4.026-4.278-4.042h-15.9l-4.037-4.035-4.036-7.773h-7.837l-4.036-4.038H184.95L181.2,50.576H173.14l-3.8-4.276-4.274-4.032h-3.8l-8.068-3.8h-4.275L141.087,34.2V30.691h-8.064l-4.037-4.329H117.411l-4.328-3.735-4.036-4.038-7.775,4.038-4.331-8.077-3.736-4.025V2.689l-8.075,3.8H81.093l-4.029-3.8v3.8H65.191l4.037,4.038-4.037,4.025-4.029,4.039V14.551l-4.036-4.025H49.053l-3.8-4.038-4.036,8.063-4.03-4.025-4.039,4.025-4.037,4.039,4.037,4.038v3.735l4.039-3.735v3.735l-4.039,4.329H29.112V34.2h4.037V30.691h8.068V34.2l-4.03,4.269v3.8L33.149,46.3h4.039v4.276l-4.039,3.794-4.037-3.794-4.03,3.794v7.773H37.187V58.409l8.066,3.735h3.8V74.258H61.162l4.029,4.026h4.037l4.038,4.095,3.8,3.741V82.379H85.13V86.12h8.075l3.736,4.034-3.736,4.039v8.067h3.736l4.331,3.8v4.035H96.941v4.038H89.166v3.738H81.093v4.33H77.064l-3.8,3.738v4.035L69.228,134.3v3.506l-4.037,4.28v15.9H57.126v3.734l-8.073,8.13v4.039l-3.8,4.035v3.735H41.217l-8.068-3.735v15.84l4.039,3.8v8.3l-4.039,3.8-4.037,3.743v4.333h-4.03l-4.036,3.735v4.33L17.3,229.553l3.744,4.029h4.036v7.842H21.046L17.3,245.455H9.233v4.032H5.2v4.032l-4.037,4.038v15.613H9.233l4.039,4.326,4.03,3.741,3.744,4.035v4.035l8.066,3.8,4.037,4.267v3.8l-4.037,4.038h8.076l-4.039,7.772v4.33H25.082l4.03,3.738v8.131l4.037,4.044h4.039l4.03,3.731,4.036,8.07,3.8-4.042V336.96l8.073-3.731h8.065l4.037-4.044h4.038l7.827,4.044H85.13l4.036-8.137h7.775l8.069,4.093,4.037,4.044h8.364l3.747,7.76h23.968l8.073,4.042,3.8-4.042h8.067l4.274,4.042h3.8v4.034h3.735l4.329-4.034v-8.07l8.075-3.731v-4.044h8.068l3.736-4.093h11.873l8.073,4.093,4.331-4.093,7.774-4.038v-8.068l3.8-3.741h4.278l3.79-4.031v-4.038l8.073-3.8h11.811l8.068-8.07-3.738-4.035v-4.035l-4.33-3.741V253.52l4.33-4.032,3.738-4.032,8.071-4.031,7.829-7.842h4.038l4.329-4.029,8.076-8.074,3.736-3.735,8.075-4.333h0v-3.743h4.027v-3.8l4.037-4.266h39.825l7.831-4.038h4.328l3.746-3.8H393l4.037-4.034h4.036L405.1,185.7l4.037-4.038v-3.735l3.8-4.035V161.721l-2.137-2.9-1.659,2.9H405.1l-4.032-3.734-4.036,3.734L393,157.987H380.9l-3.746-4.039-4.328-4.035H360.956l-3.742-4.038.829-5.1-2.963-3.507-3.505-3.259-5.69-4.038-4.813,4.329h-8.066v-4.329h-3.8l-8.075-4.035H317.1l-8.075-3.738v-4.33l-8.073-3.738h-3.739l-8.367-8.073h-3.8l-4.032-3.8-3.736-4.038h-4.335V90.155l-3.738-4.034Z" transform="translate(-0.082 -0.189)" fill="none" stroke="#96b93c" stroke-width="2"/>
    <g id="Group_16098" data-name="Group 16098">
      <g id="Group_16097-2" data-name="Group 16097" clip-path="url(#clip-path)">
        <path id="Path_31445" data-name="Path 31445" d="M264.883,82.379h-3.745l-4.328-4.095h-7.537l-8.064-4.026-4.278-4.042h-15.9l-4.037-4.035-4.036-7.773h-7.837l-4.036-4.038H184.95L181.2,50.576H173.14l-3.8-4.276-4.274-4.032h-3.8l-8.068-3.8h-4.275L141.087,34.2V30.691h-8.064l-4.037-4.329H117.411l-4.328-3.735-4.036-4.038-7.775,4.038-4.331-8.077-3.736-4.025V2.689l-8.075,3.8H81.093l-4.029-3.8v3.8H65.191l4.037,4.038-4.037,4.025-4.029,4.039V14.551l-4.036-4.025H49.053l-3.8-4.038-4.036,8.063-4.03-4.025-4.039,4.025-4.037,4.039,4.037,4.038v3.735l4.039-3.735v3.735l-4.039,4.329H29.112V34.2h4.037V30.691h8.068V34.2l-4.03,4.269v3.8L33.149,46.3h4.039v4.276l-4.039,3.794-4.037-3.794-4.03,3.794v7.773H37.187V58.409l8.066,3.735h3.8V74.258H61.162l4.029,4.026h4.037l4.038,4.095,3.8,3.741V82.379H85.13V86.12h8.075l3.736,4.034-3.736,4.039v8.067h3.736l4.331,3.8v4.035H96.941v4.038H89.166v3.738H81.093v4.33H77.064l-3.8,3.738v4.035L69.228,134.3v3.506l-4.037,4.28v15.9H57.126v3.734l-8.073,8.13v4.039l-3.8,4.035v3.735H41.217l-8.068-3.735v15.84l4.039,3.8v8.3l-4.039,3.8-4.037,3.743v4.333h-4.03l-4.036,3.735v4.33L17.3,229.553l3.744,4.029h4.036v7.842H21.046L17.3,245.455H9.233v4.032H5.2v4.032l-4.037,4.038v15.613H9.233l4.039,4.326,4.03,3.741,3.744,4.035v4.035l8.066,3.8,4.037,4.267v3.8l-4.037,4.038h8.076l-4.039,7.772v4.33H25.082l4.03,3.738v8.131l4.037,4.044h4.039l4.03,3.731,4.036,8.07,3.8-4.042V336.96l8.073-3.731h8.065l4.037-4.044h4.038l7.827,4.044H85.13l4.036-8.137h7.775l8.069,4.093,4.037,4.044h8.364l3.747,7.76h23.968l8.073,4.042,3.8-4.042h8.067l4.274,4.042h3.8v4.034h3.735l4.329-4.034v-8.07l8.075-3.731v-4.044h8.068l3.736-4.093h11.873l8.073,4.093,4.331-4.093,7.774-4.038v-8.068l3.8-3.741h4.278l3.79-4.031v-4.038l8.073-3.8h11.811l8.068-8.07-3.738-4.035v-4.035l-4.33-3.741V253.52l4.33-4.032,3.738-4.032,8.071-4.031,7.829-7.842h4.038l4.329-4.029,8.076-8.074,3.736-3.735,8.075-4.333h0v-3.743h4.027v-3.8l4.037-4.266h39.825l7.831-4.038h4.328l3.746-3.8H393l4.037-4.034h4.036L405.1,185.7l4.037-4.038v-3.735l3.8-4.035V161.721l-2.137-2.9-1.659,2.9H405.1l-4.032-3.734-4.036,3.734L393,157.987H380.9l-3.746-4.039-4.328-4.035H360.956l-3.742-4.038.829-5.1-2.963-3.507-3.505-3.259-5.69-4.038-4.813,4.329h-8.066v-4.329h-3.8l-8.075-4.035H317.1l-8.075-3.738v-4.33l-8.073-3.738h-3.739l-8.367-8.073h-3.8l-4.032-3.8-3.736-4.038h-4.335V90.155l-3.738-4.034Z" transform="translate(-0.082 -0.189)" fill="none" stroke="#96b93c" stroke-miterlimit="10" stroke-width="2"/>
      </g>
    </g>
    <path id="Path_31446" data-name="Path 31446" d="M29.678,31.2h2.81v2.282h-2.81Zm55.406-24.2,7.462-3.442v7.105L96.391,14.8l4.579,8.545,7.914-4.114,3.753,3.754,4.5,3.879h11.537l4.036,4.33h7.717v3.261l8.157,4.44.137.077h4.295l7.942,3.744,3.818.058,4.061,3.821,3.982,4.484H180.9l3.745,3.8H200.78l4.037,4.037h7.718l3.865,7.442,4.328,4.363h15.913l4.1,3.875,8.211,4.133,7.568.062,4.327,4.1h3.762l4.107,3.543,3.575,3.855V98.73h4.68l3.582,3.87,4.211,3.965h3.793l8.368,8.071h3.85l7.6,3.518v4.33l8.432,3.9,4.138.059,7.946,3.97,3.459.067v4.33h8.914l4.625-4.158,5.227,3.7,3.451,3.208,2.781,3.29-.832,5.112,4.129,4.455h11.895l4.119,3.841,3.927,4.233h12.132l4.275,3.956,4.037-3.735,3.794,3.515h4.634l1.367-2.4,1.457,1.985V173.54l-3.8,4.033V181.3l-7.711,7.712h-4.038l-4.035,4.032h-12.1l-3.745,3.8h-4.071l-7.981,4.039H324.857l-4.387,4.636v3.429h-4.025v3.99l-7.752,4.157-11.939,11.9L292.6,232.86h-4.052l-7.938,7.95-7.979,3.985-3.881,4.133-4.527,4.216v24.527l4.329,3.74V285.4l3.5,3.78-7.472,7.471H253.026l-8.689,4.023v4.181l-3.44,3.663h-4.264l-4.159,4.1v7.954l-7.445,3.865-4.155,3.893-7.689-3.893-12.422-.067-3.735,4.09h-8.412v4.268l-8.074,3.731v8.194l-3.959,3.688h-2.877v-4.032h-4.169l-4.275-4.042h-8.579l-3.669,3.9-7.662-3.835-23.855-.067-3.747-7.759h-8.5l-3.858-3.865-8.224-4.205-8.435-.067L84.7,332.508H81.194l-7.691-3.98-4.576-.067-4.036,4.047H57.08l-8.689,3.952v4.177l-3.028,3.227-3.645-7.285-4.339-4.071H33.356l-3.678-3.687v-8.142L26.6,317.821h7.118v-4.8l4.432-8.536h-7.6l3.171-3.169v-4.3l-4.206-4.44-7.9-3.774v-3.884l-3.941-4.249-4-3.706-4.22-4.522H1.727V257.7l4.038-4.038v-3.674H9.8V245.96h7.722l3.746-4.032h4.383V232.86H21.268l-3.161-3.4,3.505-3.505v-4.316l3.663-3.389h4.4v-4.677l8.075-7.547v-8.833l-4.036-3.8V178.776l7.195,3.332,4.91.058v-4.1l3.8-4.032V170l8.075-8.127v-3.376h8.066v-16.27l4.035-4.277v-3.51l4.04-4.33v-4.018l3.437-3.381H81.66v-4.33h8.073v-3.74h7.774V110.6h4.331v-4.924l-4.714-4.134H93.772V94.324l3.959-4.278-4.3-4.647H85.7V81.66H76.4v2.886l-6.967-6.982H65.4l-4.031-4.028H49.618V61.42H45.342l-8.816-4.076V61.42H25.651V54.529l3.413-3.218,4.038,3.8,4.651-4.378V45.577H34.587l3.166-3.16V38.6l4.031-4.268V29.968H34.514l3.239-3.476V21.116l-4.036,3.73V22.268l-3.784-3.789,7.207-7.194,4.2,4.192,4.025-8.037,3.376,3.592h8.086L60.5,14.7V19.96l9.548-9.542L66.627,6.995h11V4.007L80.8,6.995ZM76.4,5.767H63.664l4.649,4.651L61.729,17v-2.81L57.334,9.8H49.271L45.052,5.321,41,13.406,37.139,9.551,28.2,18.479l4.292,4.3v4.881l4.038-3.73v2.086l-3.689,3.955H28.451v4.739h5.266V31.2h6.839v2.652l-4.03,4.268v3.793l-4.908,4.9h4.908v3.4L33.1,53.421l-4.038-3.8L24.422,54v8.646H37.753V59.263l7.2,3.328,3.44.057V74.765H60.861l4.03,4.028h4.033l8.707,8.689V82.888H84.47v3.74h8.419l3.168,3.419-3.512,3.8v8.923h4.119l3.947,3.463v3.141H96.28v4.037H88.505v3.741H80.432v4.331H76.767l-4.16,4.09v4.057l-4.041,4.33v3.5l-4.035,4.278v15.53H56.466v4.1l-8.076,8.128v4.052l-3.8,4.033v3.365H41.3l-8.817-4.081v17.062l4.038,3.8V205.5l-8.075,7.538v3.984H24.8L20.385,221.1v4.344L16.4,229.432l4.331,4.655h3.691V240.7H20.731l-3.746,4.033H8.572v4.032H4.537v4.392L.5,257.2v16.48H8.92l3.886,4.163,4,3.706,3.582,3.859v4.182L28.7,293.51l3.791,4v3.3l-4.905,4.905H36.13l-3.572,6.876-.07,4H23.473l4.978,4.624v8.113l4.4,4.406H36.9l3.771,3.491,4.381,8.755,4.567-4.857v-3.879l7.6-3.511H65.4l4.035-4.046h3.636l7.692,3.979,4.7.067L89.5,325.6h7.248l7.85,3.979,4.147,4.157h8.234l3.747,7.759h24.206l8.353,4.181,3.932-4.181h7.557l4.275,4.043h3.431v4.032h4.588l4.7-4.378v-7.945l8.075-3.73v-3.827h7.725l3.735-4.09h11.456l8.329,4.219,4.582-4.33,8.03-4.167v-8.185l3.435-3.386h4.292l4.136-4.4v-3.893l7.6-3.573H265.09l8.664-8.67-3.975-4.286v-4.082l-4.33-3.74V253.68l4.167-3.883,3.661-3.952,7.971-3.985,7.807-7.774h4.029l4.52-4.2,11.748-11.749,7.859-4.215h3.873v-1.228h-3.412v-2.517H321.7v-4.167l3.688-3.9h39.56l7.981-4.038h4.436l3.744-3.8h12.1l4.035-4.032h4.038l8.429-8.43v-3.745l3.8-4.032V161.413l-2.815-3.826L408.739,161H405.3l-4.273-3.956-4.037,3.735-3.8-3.516H381.118l-3.594-3.874-4.5-4.2H361.177l-3.356-3.62.827-5.083-3.2-3.774-3.568-3.308-6.089-4.325-5,4.5h-7.217v-4.329H329.3l-7.947-3.971-4.164-.067-7.6-3.516v-4.33l-8.429-3.9-3.751-.059-8.367-8.07h-3.8l-3.826-3.6L277.508,97.5h-3.99v-7.7l-3.952-4.258-4.5-3.889h-3.728l-4.327-4.1H249.37l-7.852-3.922L237.13,69.5H221.237l-3.791-3.789-4.164-8.017h-7.955l-4.038-4.037H185.157l-3.745-3.8H173.37l-3.655-4.11-4.452-4.2h-3.908L153.411,37.8l-4.38-.058-7.377-4.018V29.968h-8.413l-4.035-4.329H117.593L113.47,22.09l-4.356-4.363L101.478,21.7l-4.043-7.543-3.663-3.975V1.614L84.947,5.767H81.291L76.4,1.159Z" transform="translate(-0.035 -0.082)" fill="none" stroke="#96b93c" stroke-width="2"/>
    <g id="Group_16100" data-name="Group 16100">
      <g id="Group_16099" data-name="Group 16099" clip-path="url(#clip-path)">
        <path id="Path_31447" data-name="Path 31447" d="M177.069,349.569H172.48v-4.033h-3.431l-4.275-4.042h-7.557l-3.932,4.181-8.353-4.181H120.726l-3.747-7.759h-8.234l-4.148-4.157-7.85-3.979H89.5l-4.035,8.136-4.7-.067-7.691-3.979H69.436L65.4,333.735H57.215l-7.6,3.51v3.88l-4.568,4.857-4.38-8.755L36.9,333.735H32.848l-4.4-4.406v-8.114l-4.977-4.622h9.015l.07-4,3.572-6.876H27.582l4.906-4.905v-3.3l-3.791-4-8.312-3.922V285.4L16.8,281.545l-4-3.707-3.886-4.163H.5V257.2l4.038-4.038v-4.392H8.573v-4.032h8.412l3.745-4.033h3.692v-6.613H20.731l-4.33-4.655,3.985-3.985V221.1l4.411-4.08h3.654v-3.986l8.075-7.538v-7.778l-4.037-3.8V176.857l8.816,4.081h3.29v-3.366l3.8-4.032v-4.052l8.075-8.128v-4.1h8.066V141.733l4.035-4.277v-3.5l4.04-4.33v-4.057l4.16-4.091h3.666v-4.33h8.072v-3.741h7.776v-4.037h4.33V106.23l-3.947-3.462H92.545V93.844l3.512-3.8L92.89,86.628H84.47V82.887H77.632v4.594l-8.708-8.689H64.892l-4.031-4.028H48.391V62.647l-3.44-.058-7.2-3.328v3.385H24.423V54l4.642-4.377,4.037,3.8L36.526,50.2V46.8H31.618l4.908-4.9V38.115l4.031-4.268V31.2h-6.84v3.51H28.451V29.968h4.386l3.689-3.955V23.927l-4.037,3.73V22.776l-4.292-4.3L37.139,9.55,41,13.406l4.049-8.084L49.272,9.8h8.063l4.394,4.383V17l6.584-6.579L63.664,5.767H76.4V1.159l4.887,4.608h3.656l8.826-4.152v8.564l3.663,3.975,4.042,7.543,7.636-3.97,4.357,4.363,4.122,3.549h11.614l4.035,4.329h8.412v3.76l7.378,4.018,4.38.058,7.943,3.744h3.909l4.452,4.2,3.654,4.11h8.043l3.745,3.8H201.29l4.037,4.037h7.955l4.164,8.018,3.791,3.787H237.13l4.387,4.149,7.852,3.922h7.639l4.327,4.1h3.728l4.5,3.888,3.952,4.258v7.7h3.99l3.917,4.234,3.827,3.6h3.8l8.368,8.07,3.75.058,8.429,3.9V121.7l7.6,3.515,4.164.067,7.946,3.971h4.269v4.329h7.217l5-4.5,6.089,4.325,3.568,3.308,3.2,3.774-.827,5.083,3.357,3.62H373.02l4.506,4.2,3.594,3.873h12.074l3.8,3.516,4.038-3.736L405.3,161h3.44l1.952-3.414,2.815,3.827v12.616l-3.8,4.032v3.745l-8.43,8.43h-4.038l-4.035,4.032h-12.1l-3.745,3.8h-4.435l-7.982,4.037h-39.56l-3.688,3.9v4.167h-4.026v2.517h3.412v1.228h-3.873l-7.859,4.215L297.6,229.883l-4.52,4.2h-4.028l-7.808,7.774-7.97,3.985-3.661,3.951-4.166,3.884V277.1l4.33,3.74v4.082l3.975,4.286-8.665,8.67H253.163l-7.6,3.572v3.894l-4.136,4.4h-4.292l-3.436,3.385v8.186l-8.029,4.167-4.582,4.33-8.33-4.219H201.306l-3.735,4.09h-7.725v3.826l-8.074,3.73v7.946Zm-3.362-1.228h2.877l3.959-3.688V336.46l8.075-3.731v-4.268h8.411l3.736-4.09,12.422.067,7.689,3.894,4.155-3.894,7.444-3.865v-7.955l4.16-4.095H240.9l3.44-3.663v-4.182l8.689-4.023h11.556l7.471-7.471-3.5-3.779v-3.994l-4.33-3.74V253.144l4.527-4.216,3.881-4.133,7.979-3.985,7.938-7.95H292.6l4.153-3.865,11.939-11.9,7.752-4.158v-3.99h4.026v-3.428l4.387-4.637H364.8l7.982-4.038h4.07l3.745-3.8H392.7l4.035-4.033h4.037l7.711-7.711v-3.726l3.8-4.032V161.815l-1.457-1.986-1.366,2.4h-4.635l-3.793-3.515-4.038,3.735-4.275-3.956H380.582l-3.926-4.234-4.12-3.841H360.641l-4.128-4.454.832-5.112-2.781-3.29-3.452-3.208-5.227-3.7-4.625,4.158h-8.914v-4.33l-3.46-.067-7.946-3.971-4.138-.057-8.432-3.9v-4.33l-7.6-3.519h-3.85l-8.368-8.07h-3.793l-4.21-3.965-3.582-3.87h-4.68V90.286l-3.575-3.855-4.107-3.544h-3.762l-4.328-4.095-7.566-.062L240.742,74.6l-4.1-3.874H220.729L216.4,66.359l-3.864-7.443h-7.718l-4.037-4.037H184.645l-3.744-3.8h-8.082L168.835,46.6l-4.061-3.822-3.817-.058-7.943-3.745H148.72l-.137-.076-8.156-4.44V31.2h-7.718l-4.035-4.33H117.137l-4.5-3.879-3.753-3.754-7.913,4.114L96.391,14.8l-3.846-4.143V3.552L85.085,6.995H80.8l-3.17-2.988V6.995h-11l3.422,3.424L60.5,19.96V14.7l-3.675-3.664H48.739L45.363,7.44l-4.025,8.038-4.2-4.191-7.207,7.193,3.784,3.788v2.58l4.037-3.73v5.376l-3.239,3.476h7.27v4.369L37.754,38.6v3.812l-3.167,3.16h3.167v5.154L33.1,55.109l-4.037-3.8-3.414,3.218v6.89H36.526V57.344l8.816,4.075h4.278V73.537H61.37l4.03,4.028h4.038L76.4,84.546V81.66H85.7V85.4h7.729l4.3,4.647-3.958,4.277v7.217h3.351l4.714,4.134V110.6h-4.33v4.038H89.733v3.741H81.66v4.33H77.271l-3.437,3.38v4.019l-4.04,4.33v3.51l-4.035,4.277v16.27H57.694v3.376L49.619,170v4.032l-3.8,4.032v4.1l-4.91-.058-7.195-3.332v14.615l4.037,3.8v8.833l-8.075,7.547v4.676h-4.4l-3.663,3.39v4.316l-3.505,3.505,3.16,3.4h4.383v9.068H21.268l-3.745,4.032H9.8v4.033H5.765v3.673L1.728,257.7v14.745H9.453l4.22,4.521,4,3.707,3.941,4.249v3.884l7.9,3.774,4.206,4.44v4.3l-3.171,3.17h7.6l-4.433,8.536v4.795H26.6l3.079,2.858v8.142l3.677,3.687h4.023l4.34,4.071,3.644,7.284,3.028-3.226V336.46l8.689-3.952h7.811l4.035-4.047,4.576.067,7.692,3.98H84.7l4.035-8.137,8.435.067,8.224,4.205,3.858,3.865h8.5l3.747,7.758,23.856.067,7.662,3.836,3.669-3.9h8.579l4.274,4.043h4.169ZM29.679,33.479h2.81V31.2h-2.81Z" transform="translate(-0.035 -0.082)" fill="none" stroke="#96b93c" stroke-miterlimit="10" stroke-width="2"/>
      </g>
    </g>
  </g>
</svg>
