<svg xmlns="http://www.w3.org/2000/svg" width="305.75" height="382.325" viewBox="0 0 305.75 382.325">
  <g id="Group_14560" data-name="Group 14560" transform="translate(-296.873 -435.946)">
    <g id="Group_14557" data-name="Group 14557" transform="translate(286.506 508.613) rotate(-16)">
      <path id="Path_30443" data-name="Path 30443" d="M26.221,181.006,100.892,44.393l-13.55-13.76Z" transform="translate(76.107 88.914)" fill="#93aa28"/>
      <path id="Path_30444" data-name="Path 30444" d="M0,59.77l37.769,46.909,64.985-1.581,42.382-26.7L119.063,21.217,94.056,16.35,59.608,9.661Z" transform="translate(0 28.044)" fill="#68b3b2"/>
      <path id="Path_30445" data-name="Path 30445" d="M116.612,0,38.737.078,37.519,60.286l50.8,40.567,49.621,6.783,16.789-60.564L138.7,27.271Z" transform="translate(108.902 0)" fill="#68b3b2"/>
      <path id="Path_30446" data-name="Path 30446" d="M9.788,38.687,70.57,91.235l5.382-58.121Z" transform="translate(28.41 96.117)" fill="#176b6d"/>
      <path id="Path_30447" data-name="Path 30447" d="M37.59,15.534,50.375,94.857l41.48-41.063Z" transform="translate(109.108 45.089)" fill="#176b6d"/>
      <path id="Path_30448" data-name="Path 30448" d="M0,59.84l38.2,46.987L22.44,57.44l37.3-47.8Z" transform="translate(0 27.974)" fill="#004859"/>
      <path id="Path_30449" data-name="Path 30449" d="M38.531.078l-.941,60.544L57.264,12.66,116.563,0Z" transform="translate(109.109 0)" fill="#004859"/>
      <path id="Path_30450" data-name="Path 30450" d="M15.483,9.7,69.939,29.585l6.517,62.121,24.016-14.853-25.534-55.6Z" transform="translate(44.94 28.159)" fill="#176b6d"/>
      <path id="Path_30451" data-name="Path 30451" d="M91.318,50.4,56.383,102.182l27.942,4.055,16.176-59L62.385.165Z" transform="translate(163.654 0.48)" fill="#176b6d"/>
      <path id="Path_30452" data-name="Path 30452" d="M27.573,18.934,12.981,33.128l27.088,40.2,11.524-1.986L49.8,23.254Z" transform="translate(37.679 54.958)" fill="#d3b362"/>
      <path id="Path_30453" data-name="Path 30453" d="M71.817,8.034l-20.3,1.495-5.089,48.2,10.1,5.885L86.069,25.634Z" transform="translate(134.758 23.319)" fill="#d3b362"/>
      <path id="Path_30454" data-name="Path 30454" d="M25.37,63.123,29,146.173,36.984,42.662Z" transform="translate(73.638 123.829)" fill="#41623a"/>
      <path id="Path_30455" data-name="Path 30455" d="M72.4,26.929,25.363,109.183l5.382-58.117Z" transform="translate(73.619 78.165)" fill="#004859"/>
      <path id="Path_30456" data-name="Path 30456" d="M129.732,32.652,40.867,66.4,82.343,25.339Z" transform="translate(118.619 73.548)" fill="#004859"/>
    </g>
    <g id="Group_14558" data-name="Group 14558" transform="translate(438.935 680.91) rotate(-13)">
      <path id="Path_30457" data-name="Path 30457" d="M57.514,30.105,32.182,52.438,68.241,79.164l39.428.52,16.822-22.76,8.285-19.98L84.722,23.111Z" transform="translate(14.43 10.363)" fill="#93aa28"/>
      <path id="Path_30458" data-name="Path 30458" d="M57.514,30.105,32.182,52.438l74.567,4.035,26.026-19.53L84.722,23.111Z" transform="translate(14.43 10.363)" fill="#528748"/>
      <path id="Path_30459" data-name="Path 30459" d="M59.415,53.911l42.022-25.988L84.721,23.111,57.513,30.106,32.183,52.437Z" transform="translate(14.43 10.363)" fill="#41623a"/>
      <path id="Path_30460" data-name="Path 30460" d="M68.241,70.084,59.416,44.832,32.182,43.358Z" transform="translate(14.43 19.441)" fill="#788428"/>
      <path id="Path_30461" data-name="Path 30461" d="M99.238,70.148l-.92-23.209L50.985,44.376,59.81,69.628Z" transform="translate(22.861 19.898)" fill="#8e942d"/>
      <path id="Path_30462" data-name="Path 30462" d="M10.257,82.786l22.175,32.607L73.188,127.4,65.632,64.163,44.3,45.877,11.486,37.922Z" transform="translate(4.599 17.004)" fill="#93aa28"/>
      <path id="Path_30463" data-name="Path 30463" d="M50.541,101.334,72.809,127.4,65.251,64.163,43.925,45.875,11.1,37.922Z" transform="translate(4.979 17.004)" fill="#528748"/>
      <path id="Path_30464" data-name="Path 30464" d="M25.508,61.081l42.5,26.174L65.252,64.162,43.924,45.876,11.105,37.921Z" transform="translate(4.979 17.003)" fill="#41623a"/>
      <path id="Path_30465" data-name="Path 30465" d="M0,57.447,14.856,83.323,30.487,61.616l-14.4-23.157-15-1.734Z" transform="translate(0 16.467)" fill="#788428"/>
      <path id="Path_30466" data-name="Path 30466" d="M32.432,108.223l18.49-14.057L25.889,53.911,10.257,75.617Z" transform="translate(4.599 24.173)" fill="#8e942d"/>
      <path id="Path_30467" data-name="Path 30467" d="M46.083,94.166l19.565,3.45-2.1-17.53-42.5-26.175Z" transform="translate(9.438 24.173)" fill="#47793c"/>
      <path id="Path_30468" data-name="Path 30468" d="M65.429,0,27.842,11.061,13.58,30.73,11.1,54.925,41.632,62.8l25.332-22.33Z" transform="translate(4.979)" fill="#788428"/>
      <path id="Path_30469" data-name="Path 30469" d="M32.485,11.061.75,53.192l15,1.734,15.968,4.119L70.072,0Z" transform="translate(0.336)" fill="#41623a"/>
      <path id="Path_30470" data-name="Path 30470" d="M56.737,0,30.49,40.405l27.783.064Z" transform="translate(13.671)" fill="#93aa28"/>
      <path id="Path_30471" data-name="Path 30471" d="M22.661,11.061,34,40.405,60.248,0Z" transform="translate(10.161)" fill="#528748"/>
    </g>
    <g id="Group_14559" data-name="Group 14559" transform="matrix(-0.999, 0.035, -0.035, -0.999, 458.136, 806.024)">
      <path id="Path_30457-2" data-name="Path 30457" d="M57.514,30.105,32.182,52.438,68.241,79.164l39.428.52,16.822-22.76,8.285-19.98L84.722,23.111Z" transform="translate(14.43 10.363)" fill="#93aa28"/>
      <path id="Path_30458-2" data-name="Path 30458" d="M57.514,30.105,32.182,52.438l74.567,4.035,26.026-19.53L84.722,23.111Z" transform="translate(14.43 10.363)" fill="#528748"/>
      <path id="Path_30459-2" data-name="Path 30459" d="M59.415,53.911l42.022-25.988L84.721,23.111,57.513,30.106,32.183,52.437Z" transform="translate(14.43 10.363)" fill="#41623a"/>
      <path id="Path_30460-2" data-name="Path 30460" d="M68.241,70.084,59.416,44.832,32.182,43.358Z" transform="translate(14.43 19.441)" fill="#788428"/>
      <path id="Path_30461-2" data-name="Path 30461" d="M99.238,70.148l-.92-23.209L50.985,44.376,59.81,69.628Z" transform="translate(22.861 19.898)" fill="#8e942d"/>
      <path id="Path_30462-2" data-name="Path 30462" d="M10.257,82.786l22.175,32.607L73.188,127.4,65.632,64.163,44.3,45.877,11.486,37.922Z" transform="translate(4.599 17.004)" fill="#93aa28"/>
      <path id="Path_30463-2" data-name="Path 30463" d="M50.541,101.334,72.809,127.4,65.251,64.163,43.925,45.875,11.1,37.922Z" transform="translate(4.979 17.004)" fill="#528748"/>
      <path id="Path_30464-2" data-name="Path 30464" d="M25.508,61.081l42.5,26.174L65.252,64.162,43.924,45.876,11.105,37.921Z" transform="translate(4.979 17.003)" fill="#41623a"/>
      <path id="Path_30465-2" data-name="Path 30465" d="M0,57.447,14.856,83.323,30.487,61.616l-14.4-23.157-15-1.734Z" transform="translate(0 16.467)" fill="#788428"/>
      <path id="Path_30466-2" data-name="Path 30466" d="M32.432,108.223l18.49-14.057L25.889,53.911,10.257,75.617Z" transform="translate(4.599 24.173)" fill="#8e942d"/>
      <path id="Path_30467-2" data-name="Path 30467" d="M46.083,94.166l19.565,3.45-2.1-17.53-42.5-26.175Z" transform="translate(9.438 24.173)" fill="#47793c"/>
      <path id="Path_30468-2" data-name="Path 30468" d="M65.429,0,27.842,11.061,13.58,30.73,11.1,54.925,41.632,62.8l25.332-22.33Z" transform="translate(4.979)" fill="#788428"/>
      <path id="Path_30469-2" data-name="Path 30469" d="M32.485,11.061.75,53.192l15,1.734,15.968,4.119L70.072,0Z" transform="translate(0.336)" fill="#41623a"/>
      <path id="Path_30470-2" data-name="Path 30470" d="M56.737,0,30.49,40.405l27.783.064Z" transform="translate(13.671)" fill="#93aa28"/>
      <path id="Path_30471-2" data-name="Path 30471" d="M22.661,11.061,34,40.405,60.248,0Z" transform="translate(10.161)" fill="#528748"/>
    </g>
  </g>
</svg>
