<svg xmlns="http://www.w3.org/2000/svg" xmlns:xlink="http://www.w3.org/1999/xlink" width="331.395" height="286.886" viewBox="0 0 331.395 286.886">
  <defs>
    <clipPath id="clip-path">
      <rect id="Rectangle_4404" data-name="Rectangle 4404" width="331.394" height="286.886" fill="none" stroke="#96b93c" stroke-width="2"/>
    </clipPath>
  </defs>
  <g id="Group_16194" data-name="Group 16194" opacity="0.373">
    <g id="Group_16193" data-name="Group 16193" clip-path="url(#clip-path)">
      <path id="Path_31926" data-name="Path 31926" d="M306.315,232.889c.2,2.934.291,2.991,3.028,2.486.505-.093,1.186-.29,1.526-.057,2.743,1.882,5.927-.453,8.693.982a.626.626,0,0,0,.936-.39c.7-1.778,1.945-1.428,3.177-.762,1.332.72,1.755.124,1.862-1.117a8.827,8.827,0,0,1,.177-1.549,2.439,2.439,0,0,1,1.824-1.608c.887-.271,1.219.471,1.544,1.136.723,1.478,1.634,1.02,2.391.1a3.527,3.527,0,0,1,3.507-1.6c.577.1,1.138-.086,1.169-.71.033-.68-.65-.435-1.042-.538-1.4-.368-2.257-1.355-1.881-2.706a2.2,2.2,0,0,1,3.072-1.543c.618.212,1.249.664,1.342-.52.115-1.446.916-1.181,1.715-.593a8.208,8.208,0,0,1,3.054,4.393,7.211,7.211,0,0,0,2.88,4.025c1.466,1.034,1.555,2.449.268,3.721-1.873,1.852-4.316,2.169-6.74,2.416-1.424.145-2.344.527-2.271,2.184a1.531,1.531,0,0,1-.513,1.212c-1.985,1.052-3.3,2.886-5,4.263-1.8,1.454-3.967,2.3-5.654,3.887a2.516,2.516,0,0,0-.791,2.936,25.146,25.146,0,0,0,1.824,3.636,1.961,1.961,0,0,0,2.632,1,12.354,12.354,0,0,1,5.557-.71c1.652.164,2.833-.843,4.2-1.33,2.712-.966,5.673-1.249,8.143-2.87,1.208-.793,1.922-.624,2.532.764,1.016,2.312,1.4,2.289,3.149.616a1.709,1.709,0,0,1,2.693.379c.556.75.989,1.054,1.9.6a1.5,1.5,0,0,1,1.661.176,1.575,1.575,0,0,0,2.07.17c1.122-.6,2.419.638,2.144,1.931a1.676,1.676,0,0,0,.374,1.633c1.233,1.054,1.053,2.078.168,3.187a1.554,1.554,0,0,0-.2,1.814c.437.865-.11,1.546-.6,2.085-.583.638-1.326.225-1.981-.07-.73-.329-1.231-1.678-2.269-.63-.956.965.452,1.234.664,1.865a2.458,2.458,0,0,1-.961,2.928c-.769.6-1.31,1.123-.869,2.269.367.954-.351,1.523-1.211,1.9a5.585,5.585,0,0,0-2.75,2.863,1.233,1.233,0,0,0,.173,1.58,1.1,1.1,0,0,0,1.435.119c3.274-1.724,6.859-2.793,10-4.806.258-.166.842-.324.881-.256,1.251,2.149,3.405-.444,4.773.934.827-.866,3.224.441,2.85-2.165-.152-1.061.915-1.084,1.659-1.212,1.527-.261,3.037-.1,4.424-1.384.788-.727.563-1.469.927-2.138,1.315-2.417,3.964-2.672,5.972-3.934a12.037,12.037,0,0,1,3.135-1,1.5,1.5,0,0,1,1.714.6,1.034,1.034,0,0,1,.1.909c-.391.678-1.017.3-1.562.2s-1.349-.049-1.293.473c.247,2.3-2.549,3.922-1.257,6.488a3.064,3.064,0,0,1-.687,3.116c-1.331,1.627-.748,3.871-2.165,5.44,1.517-.224,1.863-1.357,2.22-2.341a5.8,5.8,0,0,1,2.23-2.867c1.906-1.3,3.676-2.637,4.357-5.02a1.335,1.335,0,0,1,1.584-.882c1.786.379,3.768.212,5.028,2.041.636.923,1.506,1.679,2.744.659.43-.354.875-.084,1.165.326a4.415,4.415,0,0,0,2.169,1.875c.4.132.764.551.435.888-1.3,1.333-.1,1.617.764,2.186.981.645.681,2.015,1.408,2.865.233.273.241.8.753.663.431-.115.535-.543.524-.949a7.844,7.844,0,0,1-.1-1.351c.146-.939.53-1.843,1.605-1.924a1.7,1.7,0,0,1,1.761,1.534c.243,1.31.71,2.64.111,4a1.592,1.592,0,0,0,.376,1.972c.732.561.947-.346,1.32-.7.516-.489.768-.281.957.278a4.466,4.466,0,0,1,.236.534c.681,3.6,3.548,3.594,6.237,3.711a7.151,7.151,0,0,0,4.474-.9c2.035-1.225,4.813-.635,7.153.408.378.169.9.657.881.976-.1,2.129,1.957,2.409,2.949,3.579.913,1.075,2.459,1.285,3.605,1.456a2.564,2.564,0,0,1,2.3,2.166c.3,1.206-.859,1.685-1.9,2.036-.639.217-1.381.418-1.4,1.635,1.668-1.88,3.991-.461,5.775-1.582.566.616.121,1-.189,1.392-.631.8-1.184,1.508.032,2.389.682.494.561,3.9-.062,4.418a1.431,1.431,0,0,1-2.093.058c-.414-.4-.775-.957-1.426-.331,2.627,2.772,2.627,2.772,2.629,4.71,1.412-.371,2.638-.576,2.808-2.519.14-1.6.969-1.678,2.253-.59,1.325,1.122,3.132,1.33,4.617,2.25.915.567,1.51,1.026,1.294,2.04-.289,1.356.021,2.173,1.5,2.3a1.174,1.174,0,0,1,1.128.925c.3,1.375,1.507,1.958,2.445,2.66.916.685,1.866,1.324,1.125,2.415a2.051,2.051,0,0,1-2.96.519c-1.211-1.006-2.782-1.365-3.891-2.387a2.379,2.379,0,0,0-3.154-.36,6.927,6.927,0,0,1-2.006.706c-.5.111-1.116.176-1.029.909a1.187,1.187,0,0,0,1.155,1.123,14.2,14.2,0,0,0,2.907,0,2.289,2.289,0,0,1,2.658.994c.716,1.188-.557,1.711-.864,2.548a1.821,1.821,0,0,1-2.453.989c-1.547-.447-3.04-1.082-4.557-1.635-.3-.109-.605-.2-1.287-.43.35,1.376.8,2.111,2.049,2.434,1.037.267,2.085.69,1.989,2.2-.092,1.457-.315,2.335-2.162,1.881a5.986,5.986,0,0,0-5.365,1.483,21.072,21.072,0,0,1,2.459-.806c1.164-.236,2.394-.7,2.969,1.1.3.934,2.009.674,2.659-.41,1.585-2.645,3.551-4.783,6.64-5.676.49-.141.863-.748,1.25-1.176.778-.862,1.613-1.367,2.684-.5.862.7,1.282.05,1.707-.535.613-.843,1.214-1.55,2.387-.809a1.43,1.43,0,0,1,.439,2.413c-.179.235-.155.62-.242.932-.555,1.991-.818,3.674-3.237,5-2.664,1.457-4.8,4.3-6.472,7.135a24.285,24.285,0,0,1-3.321,3.806c-1.034,1.139-2.523.066-3.8.811.64.88,1.256,1.74,1.886,2.589a1.313,1.313,0,0,1,.267,1.433c-.282.52-.791.24-1.226.151a2.138,2.138,0,0,0-2.81,1.174c1.659-.993,2.77-1.186,3.35.529.234.692.6-.049.905-.083.656-.072,1.122-.35.9-1.151-.443-1.589-.2-2.846,1.619-3.336.111-.03.274-.156.281-.247.24-3.477,3.647-1.326,5.123-2.845.6-.615,3.237,1.956,3.492,3.371.1.53-.252,1.2.573,1.621a3.287,3.287,0,0,0-.027-3.282c-.826-1.741-1.677-3.471-2.508-5.21-.194-.406-.523-.893-.245-1.28.386-.538.987-.2,1.418.009,2.6,1.238,3.512,3.705,4.7,6.566a10.124,10.124,0,0,0-1.565-5.875c-.329-.477-.808-.847-1.166-1.307-.414-.531-1.214-1.124-.37-1.794.643-.51,1.362-.064,1.929.42a1.35,1.35,0,0,1,.485.593c.679,2.961,3.309,2.951,5.956,4.012-1.083-1.821-2.87-2.347-3.274-4.024-.123-.512-.808-.9-.137-1.46.593-.495,1.169-1.1,2.043-.444.323.243.686.85,1.131.345s0-1.022-.378-1.345c-.882-.751-1.016-1.949-1.768-2.776a1.049,1.049,0,0,1-.044-1.574c.521-.5,1.028-.224,1.589.056,2.547,1.265,5.091,2.545,7.7,3.678,1.009.438,2.1-.437,3.387.454a18.689,18.689,0,0,1,3.307,2.973,11.517,11.517,0,0,0,5.033,3.535c1.174.375,2.335.945,2.252,2.532,2.462.672,2.446,4.1,5.315,4.594a6.666,6.666,0,0,1,3.865,2.653,21.365,21.365,0,0,0,3.5,3.867c2.081,1.824,2.863,4.575,5.009,6.336,1.149.943.677,2.083-.859,2.126-2.8.079-5.139,1.664-7.787,2.207-.569.117-.629.739-.83,1.484,1.487-.487,2.872-.438,4.068-1.344.985-.746,1.965-.5,3.008.276,1.312.976,2.36,2.346,4,2.867.328.1.615.277.5.686a1.063,1.063,0,0,1-.982.832,2.535,2.535,0,0,0-2.859,2.493c-.114.733-.684.936-1.33.734-1.192-.372-1.737.138-1.82,1.278-.086,1.181-.639,1.485-1.809,1.375a1.738,1.738,0,0,0-1.976,1.9,2.517,2.517,0,0,0,2.351,2.736c1.1-.078,2.2-.066,3.3-.092a.978.978,0,0,1,.981.5.826.826,0,0,1-.431,1.15,4.137,4.137,0,0,0-1.8,2.464c-.546,1.534-.649,2.978,1.359,3.584a2.273,2.273,0,0,1,1.174.982c.562.811.629,1.508-.285,2.168a1.311,1.311,0,0,1-2.136-.283c-1.228-1.629-2.779-2.47-4.881-1.774-.475.158-1.089.038-1.234.717a1.7,1.7,0,0,0,.641,1.739c.65.538,1.341,1.024,1.991,1.561.307.254.563.619.3,1.015s-.7.286-1.054.107a9.424,9.424,0,0,1-1.137-.741c-.443-.317-.907-.594-1.413-.2a1.81,1.81,0,0,0-.561,1.776c.073.615.492.823,1.064.941,2.452.5,2.352.5,1.242,2.668a2.607,2.607,0,0,0,.381,3.353,1.673,1.673,0,0,1,.314,2.676,3.412,3.412,0,0,0-.422,1.877c-.069.54-.239,1.149-.829,1.181-1.524.081-1.773.418-.616,1.6.735.75.277,1.848.147,2.759-.069.485-.711.744-1.254.762-.632.021-.9-.426-1.025-.977a9.454,9.454,0,0,0-1.979-4.178c-.806-.938.06-1.993.207-2.978.13-.877.418-1.613-.7-2.08a2,2,0,0,1-.975-1.813c-.223-2.171-1.392-3.895-2.546-5.627a6.12,6.12,0,0,0-2.238-1.832c-.789-.444-1.881-.717-1.239-2.111.2-.433-.279-.822-.776-.936-.473-.108-.977-.084-1.179.411-.351.857-.945,1.588-.455,2.728.508,1.183,1.339,2.422.745,3.866-.024.059-.057.17-.036.184,1.886,1.279-.064,2.614.062,3.914.112,1.15-.451,1.489-1.514,1.4a4.017,4.017,0,0,1-3.667-2.731c-.509-1.335-1.124-1.83-2.375-.74a2.393,2.393,0,0,1-2.544.5c-.87-.33-1.374.163-1.663.9-.34.859.419.854.905,1.143,1.292.771,1.351,2.194,1.356,3.434.005,1.124-1.067,1.331-2.027,1.353-1.236.028-1.391.653-1.023,1.683a10.058,10.058,0,0,1,.453,1.888c.1.685.281,1.3.993,1.541.738.245,1-.311,1.31-.844.66-1.151,1.263-.448,1.814.122,1.265,1.308,2.5,2.643,3.761,3.957.623.649,1.375,1.231,2.158.383.837-.906-.018-1.517-.629-2.089-.283-.265-.648-.447-.917-.723-.591-.607-1.728-.94-1.334-2.094.17-.5,2.914-.069,3.4.518.289.347.472.786.772,1.121,1.809,2.02,1.909,2.189-.145,4.094a3.865,3.865,0,0,0-1.308,3.815c.2,1.19.029,2.106-1.426,2.2a2.918,2.918,0,0,0-1.862,1.283c-.986,1.1-2.423,1.016-3.407,1.585-3.441,1.991-7.042.237-10.4,1.052-2.348.569-4.569.228-6.85.081-.319-.02-.756,0-.931-.19-1.895-2.068-4.769-2.267-7.017-3.823a16.235,16.235,0,0,0-13.364-2.6,2.7,2.7,0,0,1-3-.779,1.281,1.281,0,0,0-1.416-.357c-4.35,1.1-8.185-.359-11.859-2.5a2.308,2.308,0,0,1-.827-1.048c-.714-1.625-2.046-2.029-3.646-1.99-.693.017-1.58.416-2.02-.268-.951-1.481-1.406-1.334-2.471.058-1.851,2.42-4.939,2.13-7.986-.238-1.695-1.317-3.435-2.722-5.9-1.967-.912.28-1.506-.424-2.137-1.048-1.229-1.217-2.425-2.545-4.534-1.848a3.209,3.209,0,0,1-2.566-.689,2.028,2.028,0,0,0-1.963-.413c-2.178.876-4.089-.511-6.141-.7-2.447-.224-3.875-2.491-3.951-5.413-.017-.646-.115-1.065-.748-1.09-2.009-.079-3.627-1.334-5.518-1.795-.953-.232-1.788-.727-2.752-.1a.932.932,0,0,1-1.11-.057,18.555,18.555,0,0,0-4.642-2.834,2.061,2.061,0,0,1-1.007-2.344,2.391,2.391,0,0,0-1.58-2.9c-1.674-.84-2.7-2.7-4.779-3.143-1.316-.281-2.882-.46-3.555-2.042a.561.561,0,0,0-.512-.178c-3.03,1.07-3.908-1.741-5.563-3.119-.385-.32-.556-.965-1.093-1.059-3.136-.551-4.862-2.971-6.837-5.078-.249-.266-.708-.324-1-.562-1.317-1.072-2.7-1.884-3.694-3.528-1.365-2.263-3.2-4.458-6.16-5.09-1.738-.371-1.812-1.256-.382-3.2-.558-.478-1.232-.213-1.841-.281a11.829,11.829,0,0,1-5.772-2.016c-2.426-1.656-3-4.286-4.811-6.07-2.284-2.256-1.828-4.772-1.982-7.569a13.607,13.607,0,0,0-4.091-9.4c-3.234-2.977-3.524-3.984-1.38-7.632a1.455,1.455,0,0,0-.174-2.036,11.844,11.844,0,0,1-1.269-1.72,1.45,1.45,0,0,1,.181-1.809c.552-.635,1.121-.4,1.739-.063,2.315,1.281,4.816.6,7.247.634a.756.756,0,0,0,.832-.664c.049-.408-.271-.558-.6-.625a1.3,1.3,0,0,1-1.139-1.544,3.526,3.526,0,0,0-1.918-3.184c-1.076-.741-1.607-1.951-2.7-2.686-.671-.45-.733-1.525-.705-2.361.053-1.612.662-3.144.687-4.795.011-.763.923-1.768,1.695-1.609,1.3.268,3.047-1.267,3.905.879a2.319,2.319,0,0,0,1.444,1.486,1.652,1.652,0,0,0,1.816-.3,1.144,1.144,0,0,0-.352-1.695c-.737-.539-.491-1.163-.23-1.9.382-1.085.437-2.13-1.277-1.357a1.407,1.407,0,0,1-1.859-.583,1.769,1.769,0,0,1-.185-1.852,1.612,1.612,0,0,1,1.8-.864c.381.022.751.207,1.133.251.516.06,1.068.1,1.359-.479.3-.61-.243-.717-.569-1.017-.9-.824-.6-1.738-.066-2.636.259-.437.725-.911.351-1.408a1.55,1.55,0,0,0-1.751-.543c-1.577.523-2.491-.306-3.491-1.376-1.041-1.114-2.385-2.31-4-1.792-2.505.8-2.985-1.473-3.623-2.578a3.219,3.219,0,0,1,.89-4.344c1.056-.694,2.14-1.519,3.556-1.227.941.194,1.375-.141,1.254-1.122-.242-1.957,1.739-3.274,1.5-5.283-.054-.446.854-.456,1.325-.613a1.8,1.8,0,0,0,1.356-1.491c.152-.921-.676-.727-1.11-1.019a2.063,2.063,0,0,1-1.021-2.606c.362-1.133-.336-2.642,1.4-3.337a3.455,3.455,0,0,1-2.988-1.184c-.63-.8-1.3-1.4.105-2.051.243-.113.4-.5.515-.791.4-1.058-2.2-5.362-3.295-5.6-1.986-.424-3.745-.58-5.626.834-1.77,1.33-5.649-.4-6.4-2.477-.082-.227-.16-.6-.044-.732,1.609-1.849,1.256-4.629,3.032-6.391.134-.134.174-.434.315-.48,2.477-.8,3.676-3.028,5.322-4.758a1.194,1.194,0,0,1,1.592-.241c.613.367.975.045,1.207-.51.239-.573.37-1.1-.356-1.485-.857-.448-1.642-1.051-2.524-1.434-2.352-1.022-2.592-2.258-.6-4.417" transform="translate(-181.703 -136.115)" fill="none" stroke="#96b93c" stroke-width="2"/>
      <path id="Path_31927" data-name="Path 31927" d="M65.138,12.134c.182-.257.365-.514.545-.772,2.221-3.18,2.344-3.487,5.758-2.107,1.611.651,3.663,1.619,4.186,3.953a5.38,5.38,0,0,0,4.783,4.461,2.347,2.347,0,0,1,1.745,1.4c1.689,3.251,3.769,3.3,6.106.414.828-1.024,1.483-2.779,3.491-2.116.852.281,1.431.6,1.628,1.609a4.19,4.19,0,0,0,3.113,3.169c1.215.379,1.8,1.345,2.582,2.131.468.47.428,1.809,1.136,1.568,1.056-.359,2.289-.13,3.212-1.062a3.821,3.821,0,0,1,5.765.259c.7.963.5,2.174.521,3.179.052,2.063,1.819,3.141,2.335,4.89a1.176,1.176,0,0,0,1.842.27c1.463-1.176,3.941-.159,4.533,1.646a3.3,3.3,0,0,0,2.4,2.556.651.651,0,0,1,.354.15c2.292,2.936,5.516,5.081,7.25,8.464a8.506,8.506,0,0,0,1.426,2.265c1.548,1.56,1.472,4.184-.524,4.835-2.247.733-3.806,2.608-6.122,3.074a8.951,8.951,0,0,1-2.46.483,1.985,1.985,0,0,0-1.77.957c-1.456,1.766-2.423,1.684-4.613.9a12.739,12.739,0,0,0-4.956-.406,19.961,19.961,0,0,1-6.747-.436,4.837,4.837,0,0,0-3.539.63c-1.011.491-1.407,1.293-.171,2.011,1.125.653,1.035,1.1.154,2.008a17.759,17.759,0,0,1-2.888,2.275c-.9.608-1.963.964-2.541,2.015a1.2,1.2,0,0,1-1.171.584c-.794-.114-.265-.65-.3-1.042-.072-.866-.639-.658-1.054-.3a6.933,6.933,0,0,1-6.5,1.679c-.226-.056-.692,0-.705.068-.369,1.917-1.725,1.826-3.092,1.474-1.229-.317-2.6-.34-3.548-1.409-.023-.026-.121.014-.267.034.6,2.295-1.632,2.356-2.725,3.195A13.72,13.72,0,0,1,70.564,72.6a2.714,2.714,0,0,0-1.8,1.33c-.585,1.19-1.417.925-2.142.082-1.042-1.213-2-2.171-3.943-1.724-1.147.264-2.268-.653-2.465-2.19C59.95,68,59.174,67.4,57.136,67.6a8.154,8.154,0,0,1-4.724-.795c-.341-.179-.8-.5-1.068-.4-2.463.936-4.8-.562-7.24-.319-1.578.157-2.554-1.561-4.156-1.819-1.843-.3-3.584-.372-5.109.8a1.522,1.522,0,0,1-1.921.254,2.241,2.241,0,0,0-1.067-.446c-2.341.138-2.653-1.019-1.641-3.163-2.119.777-2.952-.478-3.785-1.732a11.68,11.68,0,0,0-.75-1.126c-.4-.477-1.213-.805-.93-1.554.27-.714,1.034-.25,1.574-.329,1.061-.156,1.187-1.228,1.915-1.761-2.9.944-4.757-.559-6.437-2.468a1.96,1.96,0,0,0-1.241-.862c-1.4-.1-2.838.006-3.923-1.184a.755.755,0,0,0-.739-.043c-1.947,1.641-4.554.608-6.635,1.675-.278.143-.769.344-.9.225C6.8,51.16,4.406,51.4,2.969,49.769a1.685,1.685,0,0,1-.1-2.575c1.649-1.766,2.728-3.654,2.165-6.278C4.8,39.8,5.191,38.5,6.918,38.636c.491.038,1.139.129,1.256-.585a1.205,1.205,0,0,0-.829-1.4c-2.668-.8-1.769-3.682-3.085-5.289-.344-.42.111-1.311.7-1.668a4.253,4.253,0,0,0,1.99-4.4C6.8,24.467,6.9,23.6,6.744,22.776,6.461,21.324,5.961,20.149,4.1,20,1.731,19.818,1.029,18.9.92,16.509a1.056,1.056,0,0,0-.107-.565c-1.832-2.3.005-4.62,0-6.925a1.309,1.309,0,0,1,1.7-1.206,10.525,10.525,0,0,0,7.628-.61,1.841,1.841,0,0,1,1.122.088,3.686,3.686,0,0,0,4.515-2.246,2.034,2.034,0,0,1,1.744-1.317c3.532-.7,6.95-2.029,10.648-1.807a8.772,8.772,0,0,1,2.661.19c1.124.4,2.354.406,2.709-1.239C33.679.229,34-.2,34.785.094c1.388.51,2.812.927,4.174,1.5.493.206.775.5.942-.254C40.209-.056,41.412-.1,42.36.073c2,.374,4.057.213,6.03.983a20.968,20.968,0,0,0,4.38.741,2.968,2.968,0,0,1,2.122.824c.625.815,1.1.713,1.636-.055.433-.619,1.068-.406,1.6-.245.731.218.331.827.363,1.312.083,1.27.015,2.557,2.087,1.667,1.9-.818,3.713.542,3.946,2.767a38.657,38.657,0,0,1,.025,4.005l.583.062" transform="translate(0 0)" fill="none" stroke="#96b93c" stroke-width="2"/>
      <path id="Path_31928" data-name="Path 31928" d="M307.49,182.975a12.368,12.368,0,0,1,2.321-3.207,2.528,2.528,0,0,0,.644-1.988c-.088-1.071-.9-.477-1.492-.479s-3.242-4.1-3.232-4.95a2.761,2.761,0,0,0-.642-2.349,1.606,1.606,0,0,1-.165-1.992c.378-.9,1.052-.117,1.484-.011a1.939,1.939,0,0,0,1.966-.431c1.367-1.509,1.635-.619,1.8.717.048.385.089.826.58.885.427.052.413-.564.616-.614.885-.223.252-2.438,2-1.486.84.458,1.843.618,2.363,1.586.236.441.567.98,1.19.808.707-.2.61-.858.707-1.439.108-.645-.508-1.743.387-1.854a2.067,2.067,0,0,1,2.122,1.645c.192,1.972,1.345,2.315,2.952,2.644a4.624,4.624,0,0,1,3.456,2.571,7.475,7.475,0,0,0,1.8,2.267c1.489,1.407,1.452,2.411-.158,3.728-3.32,2.716-7.31,2.854-11.3,3-.318.012-.7-.115-.947.023-2.595,1.481-5.532.42-8.223,1.143-.03.008-.086-.08-.229-.222" transform="translate(-185.596 -101.225)" fill="none" stroke="#96b93c" stroke-width="2"/>
      <path id="Path_31929" data-name="Path 31929" d="M296.347,184.048a4.718,4.718,0,0,0-3.3-.251,2.11,2.11,0,0,1-2.418-1.705c-.175-.693-.183-1.556,1.036-1.078a1.765,1.765,0,0,0,.744.127c2.851-.2,2.851-.2,3.935,2.906" transform="translate(-177 -110.189)" fill="none" stroke="#96b93c" stroke-width="2"/>
    </g>
  </g>
</svg>
