<svg xmlns="http://www.w3.org/2000/svg" xmlns:xlink="http://www.w3.org/1999/xlink" width="46" height="46" viewBox="0 0 46 46">
  <defs>
    <clipPath id="clip-path">
      <path id="Path_31967" data-name="Path 31967" d="M0-9.584H27.091V-29.278H0Z" transform="translate(0 29.278)" fill="#96b93c"/>
    </clipPath>
  </defs>
  <g id="Group_16216" data-name="Group 16216" transform="translate(475 -5798)">
    <rect id="Rectangle_4405" data-name="Rectangle 4405" width="46" height="46" transform="translate(-475 5798)" fill="#045a6b"/>
    <g id="Group_16215" data-name="Group 16215" transform="translate(-466 5840.278)">
      <g id="Group_16214" data-name="Group 16214" transform="translate(0 -29.278)" clip-path="url(#clip-path)">
        <g id="Group_16213" data-name="Group 16213" transform="translate(0 0)">
          <path id="Path_31966" data-name="Path 31966" d="M0-5.336V-.719H27.091V-3.027H20.12a5.721,5.721,0,0,1-5.713-4.984,2.745,2.745,0,0,1,.7-2.446,3.8,3.8,0,0,1,5.476-.071A2.894,2.894,0,0,0,22.814-9.52a8.257,8.257,0,0,0-8.45-6.781C6.964-16.3,3.929-5.841,0-5.336" transform="translate(0 16.301)" fill="#96b93c"/>
        </g>
      </g>
      <path id="Path_31968" data-name="Path 31968" d="M.2-1.158H27.157V-3.539H.2Z" transform="translate(-0.066 -8.425)" fill="#96b93c"/>
    </g>
  </g>
</svg>
