<svg xmlns="http://www.w3.org/2000/svg" width="36.759" height="36.759" viewBox="0 0 36.759 36.759">
  <path id="Icon_metro-target" data-name="Icon metro-target" d="M39.33,18.01H35.707A14.969,14.969,0,0,0,23.248,5.551V1.928H18.653V5.551A14.969,14.969,0,0,0,6.194,18.01H2.571v4.595H6.194A14.969,14.969,0,0,0,18.653,35.064v3.623h4.595V35.064A14.969,14.969,0,0,0,35.707,22.605H39.33V18.01Zm-8.3,0H27.45a6.911,6.911,0,0,0-4.2-4.2V10.227a10.373,10.373,0,0,1,7.783,7.783ZM20.95,22.605a2.3,2.3,0,1,1,2.3-2.3A2.3,2.3,0,0,1,20.95,22.605Zm-2.3-12.378v3.581a6.911,6.911,0,0,0-4.2,4.2H10.869A10.373,10.373,0,0,1,18.653,10.227ZM10.869,22.605h3.581a6.911,6.911,0,0,0,4.2,4.2v3.581A10.373,10.373,0,0,1,10.869,22.605Zm12.378,7.783V26.807a6.911,6.911,0,0,0,4.2-4.2h3.581A10.372,10.372,0,0,1,23.248,30.389Z" transform="translate(-2.571 -1.928)" fill="#383838"/>
</svg>
