<svg xmlns="http://www.w3.org/2000/svg" xmlns:xlink="http://www.w3.org/1999/xlink" width="69" height="69" viewBox="0 0 69 69">
  <defs>
    <clipPath id="clip-path">
      <path id="Path_27623" data-name="Path 27623" d="M0,15.622H33.714V-18.092H0Z" transform="translate(0 18.092)" fill="none"/>
    </clipPath>
  </defs>
  <g id="Group_14590" data-name="Group 14590" transform="translate(-921 -1166)">
    <rect id="Rectangle_3217" data-name="Rectangle 3217" width="69" height="69" transform="translate(921 1166)" fill="#045a6b"/>
    <g id="Group_14125" data-name="Group 14125" transform="translate(939 1182.68)">
      <g id="Group_14124" data-name="Group 14124" transform="translate(0 0)" clip-path="url(#clip-path)">
        <g id="Group_14122" data-name="Group 14122" transform="translate(0.932 0.932)">
          <path id="Path_27621" data-name="Path 27621" d="M0,7.379A15.925,15.925,0,1,0,15.925-8.546,15.925,15.925,0,0,0,0,7.379Zm6.921,0a9,9,0,1,0,9-9A9,9,0,0,0,6.921,7.379Z" transform="translate(0 8.546)" fill="none" stroke="#fff" stroke-width="2"/>
        </g>
        <g id="Group_14123" data-name="Group 14123" transform="translate(14.301 14.3)">
          <path id="Path_27622" data-name="Path 27622" d="M.016,1.38a2.556,2.556,0,1,0,2.1-2.942A2.557,2.557,0,0,0,.016,1.38Z" transform="translate(0.019 1.598)" fill="none" stroke="#fff" stroke-width="2"/>
        </g>
      </g>
    </g>
  </g>
</svg>
