<svg xmlns="http://www.w3.org/2000/svg" xmlns:xlink="http://www.w3.org/1999/xlink" width="51.623" height="103.245" viewBox="0 0 51.623 103.245">
  <defs>
    <clipPath id="clip-path">
      <rect id="Rectangle_3268" data-name="Rectangle 3268" width="51.623" height="51.622" fill="none" stroke="#707070" stroke-width="2"/>
    </clipPath>
    <clipPath id="clip-path-2">
      <path id="Path_27874" data-name="Path 27874" d="M0,13.447H51.623V-38.175H0Z" transform="translate(0 38.175)" fill="none"/>
    </clipPath>
  </defs>
  <g id="Group_14562" data-name="Group 14562" transform="translate(-140 -1014)">
    <g id="Group_14164" data-name="Group 14164" transform="translate(140 1014)">
      <rect id="Rectangle_3267" data-name="Rectangle 3267" width="51.622" height="51.621" transform="translate(0 0.001)" fill="#99b83b"/>
      <g id="Group_14163" data-name="Group 14163" transform="translate(0 0)">
        <g id="Group_14162" data-name="Group 14162" clip-path="url(#clip-path)">
          <path id="Path_27870" data-name="Path 27870" d="M15.563,22.1A6.534,6.534,0,1,0,22.1,15.564,6.534,6.534,0,0,0,15.563,22.1Zm-5.022,0A11.557,11.557,0,1,0,22.1,10.542,11.556,11.556,0,0,0,10.541,22.1Z" transform="translate(3.713 3.713)" fill="none" stroke="#fff" stroke-miterlimit="10" stroke-width="2"/>
          <path id="Path_27871" data-name="Path 27871" d="M17.741,19.877a1.855,1.855,0,1,0,1.524-2.135A1.855,1.855,0,0,0,17.741,19.877Z" transform="translate(6.241 6.241)" fill="none" stroke="#fff" stroke-miterlimit="10" stroke-width="2"/>
        </g>
      </g>
    </g>
    <g id="Group_14174" data-name="Group 14174" transform="translate(140 1065.622)">
      <path id="Path_27872" data-name="Path 27872" d="M0,13.447H51.622V-38.174H0Z" transform="translate(0 38.175)" fill="#05596b"/>
      <g id="Group_14166" data-name="Group 14166" transform="translate(0 0)" clip-path="url(#clip-path-2)">
        <g id="Group_14165" data-name="Group 14165" transform="translate(14.255 13.393)">
          <path id="Path_27873" data-name="Path 27873" d="M0,3.01A11.557,11.557,0,1,0,11.557-8.546,11.556,11.556,0,0,0,0,3.01Zm5.022,0a6.534,6.534,0,1,0,6.534-6.534A6.534,6.534,0,0,0,5.022,3.01Z" transform="translate(0 8.546)" fill="none" stroke="#a2c6be" stroke-width="2"/>
        </g>
      </g>
      <g id="Group_14167" data-name="Group 14167" transform="translate(25.53 12.026)">
        <path id="Path_27875" data-name="Path 27875" d="M0,3.491l13.4-13.4" transform="translate(0 9.911)" fill="none" stroke="#fff" stroke-width="2"/>
      </g>
      <g id="Group_14168" data-name="Group 14168" transform="translate(35.795 6.425)">
        <path id="Path_27876" data-name="Path 27876" d="M0,1.065l.266,4.5L4.356,1.472l-.266-4.5Z" transform="translate(0 3.024)" fill="#fff"/>
      </g>
      <g id="Group_14169" data-name="Group 14169" transform="translate(35.948 10.808)">
        <path id="Path_27877" data-name="Path 27877" d="M1.171,1.135l-4.5-.266L.764-3.221l4.5.266Z" transform="translate(3.325 3.221)" fill="#fff"/>
      </g>
      <g id="Group_14173" data-name="Group 14173" transform="translate(0 0)" clip-path="url(#clip-path-2)">
        <g id="Group_14170" data-name="Group 14170" transform="translate(23.956 23.094)">
          <path id="Path_27878" data-name="Path 27878" d="M.007.563A1.855,1.855,0,1,0,1.531-1.572,1.855,1.855,0,0,0,.007.563" transform="translate(0.019 1.598)" fill="#fff"/>
        </g>
        <g id="Group_14171" data-name="Group 14171" transform="translate(14.255 13.393)">
          <path id="Path_27879" data-name="Path 27879" d="M0,3.01A11.557,11.557,0,1,0,11.557-8.546,11.556,11.556,0,0,0,0,3.01Zm5.022,0a6.534,6.534,0,1,0,6.534-6.534A6.534,6.534,0,0,0,5.022,3.01Z" transform="translate(0 8.546)" fill="none" stroke="#fff" stroke-width="2"/>
        </g>
        <g id="Group_14172" data-name="Group 14172" transform="translate(23.956 23.094)">
          <path id="Path_27880" data-name="Path 27880" d="M.007.563A1.855,1.855,0,1,0,1.531-1.572,1.855,1.855,0,0,0,.007.563Z" transform="translate(0.019 1.598)" fill="none" stroke="#fff" stroke-width="2"/>
        </g>
      </g>
    </g>
  </g>
</svg>
