<svg xmlns="http://www.w3.org/2000/svg" width="244.924" height="227.85" viewBox="0 0 244.924 227.85">
  <g id="Group_16212" data-name="Group 16212" transform="translate(1.001 2.415)" opacity="0.373">
    <path id="Path_31964" data-name="Path 31964" d="M72.524,35.737v0ZM197.725,0,189.31,9.734l-18.121,8.54V0l-9.728,9.734H143.993l-18.259,8.54-9.07,9.06V81.067L99.194,98.65H81.058V81.067l9.068-9.607H81.058l9.068-8.533,9.068-9.072V44.8l-9.068-9.066h-17.6l-9.59,18.117V71.46L54.4,81.067V89.6H44.8V98.65l-8.54,9.074H18.137v18.138h9.051v8.4L9.742,143.32V125.862H0v35.055H9.742l8.4,9.607L44.8,179.057v9.058h9.6l8.535-9.058h9.59l8.533,9.058,9.068,9.066,17.466,18.138v8.54l18.142-8.54v-44.8l18.259-9.607,27.2-8.531,8.4,8.531h36.262l8.533-26.657v-8.4l-8.533-9.066,8.533-9.072V71.46h9.6V44.8l8.54-9.066-8.54-8.4-9.6,8.4h-8.533V0Z" fill="none" stroke="#96b93c" stroke-width="2"/>
    <path id="Path_31965" data-name="Path 31965" d="M72.524,35.737v0ZM197.725,0,189.31,9.734l-18.121,8.54V0l-9.728,9.734H143.993l-18.259,8.54-9.07,9.06V81.067L99.194,98.65H81.058V81.067l9.068-9.607H81.058l9.068-8.533,9.068-9.072V44.8l-9.068-9.066h-17.6l-9.59,18.117V71.46L54.4,81.067V89.6H44.8V98.65l-8.54,9.074H18.137v18.138h9.051v8.4L9.742,143.32V125.862H0v35.055H9.742l8.4,9.607L44.8,179.057v9.058h9.6l8.535-9.058h9.59l8.533,9.058,9.068,9.066,17.466,18.138v8.54l18.142-8.54v-44.8l18.259-9.607,27.2-8.531,8.4,8.531h36.262l8.533-26.657v-8.4l-8.533-9.066,8.533-9.072V71.46h9.6V44.8l8.54-9.066-8.54-8.4-9.6,8.4h-8.533V0Z" fill="none" stroke="#96b93c" stroke-width="2"/>
  </g>
</svg>
