<svg xmlns="http://www.w3.org/2000/svg" width="344.948" height="370.125" viewBox="0 0 344.948 370.125">
  <g id="Group_16209" data-name="Group 16209" transform="translate(1.191 1.287)" opacity="0.369">
    <path id="Path_31924" data-name="Path 31924" d="M306.7,0l-5.468,5.433V7.991L295.8,10.7V21.571l-2.711-2.717V16.138l-2.518-2.717V5.433h-2.718V10.7l-2.713,5.434-2.718,5.434L279.7,26.84v-10.7l5.434-2.717V10.7l2.713-5.27,2.718-2.717L287.849,0,279.7,5.433l-2.718-2.717-2.548,2.717V7.991L279.7,10.7l-7.986,2.717L269,10.7l-2.716,2.717v5.434h-2.718l2.718,2.717-5.429,5.269-2.718-5.269-2.514,2.713v5.272l-2.758,2.718-2.712-2.718h-2.716v2.718l-2.717-2.718H242l-2.516,2.718V34.79h-2.717L234.048,37.7v5.233l2.718,2.556v5.593l-2.718-2.877-2.712-2.715h-2.718l-2.556,5.593-2.877-5.593-2.557,2.715v5.435l2.557,5.429V61.59l-2.557-2.517-2.712-5.429v5.429L215.2,64.306l-2.717-2.716V56.517l-2.717,2.556v7.951h-5.429l-2.515,2.558,2.515,2.913-2.515,2.718-2.759,2.514v2.717L201.821,83l-2.759,2.872h-8.147V83L188.2,85.872V96.378l-2.514,5.43V88.429l-2.718,2.879h-5.428l-2.717,2.556h2.717l2.712,2.515v2.914l-2.712-2.914-2.717,2.914L172.1,96.378h-2.717v5.43l-2.558,2.919,7.993-2.919,2.717,2.919v2.514h-8.151l-2.558,2.718v2.712H172.1v5.273h-5.274l-2.711,2.718-2.717,2.716-5.435-2.716-2.713,2.716v5.27h-2.515l-2.758,2.52,2.758,2.915-2.758,2.716h-5.434l2.717,2.712,2.717,2.718,2.758-2.718v5.238h-8.191v2.713l2.717,2.556-2.717,2.718h-2.714l-2.717,2.876-2.716,2.552,2.716,2.877V163.4l-2.716,2.717-2.517-2.717v-2.356l-2.912,5.073v2.717h2.912v5.429l-2.912,2.718h-2.521v5.275l-2.712,2.717H121.02v2.556h2.717v5.59l-2.717,2.557-5.274-2.557V190.4l-2.718-2.874-2.71,2.874-2.717,2.716h-5.435v5.274L99.251,200.9,96.9,206.333H91.462v7.992l-2.717-2.558-2.711,2.558L83.316,217.2,80.6,214.325,78.084,217.2l-2.915,2.555h-2.52v5.436l-2.712-2.717H67.219l2.718,2.717V227.9H67.219L64.5,225.188,61.946,227.9H53.8v2.712l2.558,5.233H50.881l-5.429-2.712H43.1l-2.717,2.712,2.717,2.76v2.717H34.945l-2.872,5.427v-5.427H29.516L26.8,244.038l-2.516-2.712H18.85v5.427l2.52,2.515h2.914v2.717H21.37L18.85,254.7H13.218v2.557l2.919,2.872v2.558L10.7,260.133v5.274l2.516,5.233H18.85v2.915H16.138L10.7,270.639v5.434l2.516,5.27,2.919,2.714-2.919,2.72-2.516-2.72-2.717,2.72v2.715l5.233,2.713H7.986v2.717L10.7,297.64l2.516,2.558H18.85l5.434-2.558-5.434,5.274-2.712,2.516-2.919,2.913,5.631,5.434H13.218L10.7,316.292l-2.717-2.515H5.43l-2.873,5.072v2.873L0,327l2.558,2.879,5.428-8.153h5.233v8.153H10.7v5.267l-2.717,2.521v-2.521L5.43,337.663v10.9l5.272,5.233,8.148,2.719-5.631,5.272,5.631,2.872,2.52-2.872v5.43H34.945l5.436-2.558v2.558l5.071-2.558,2.914-2.872,2.515-5.272,2.918-2.719,8.148-2.716v-2.517l2.556-2.753h5.434v2.753l2.712,2.517,5.435-2.517v-5.468l5.233-5.43v-5.434L80.6,329.875l5.434-5.6,2.711-2.557,2.717-2.873h2.717v5.43L91.462,327H88.744v5.232h2.717l7.79,5.434-4.876,5.43h2.718v2.715l2.359,2.753,2.914-2.753v-5.434l-2.914-2.712,5.428-5.434v-2.354L107.8,327v-2.717l2.516-2.557h5.429l2.717-7.945V300.2l-2.717-5.274v-2.717l8.151-5.429v-10.7l-2.718-2.519-2.717-2.915v-5.233l2.717-5.274v-8.148l-2.717-2.717v-7.943l2.717-2.717V222.471L123.9,217.2l2.712-2.872,5.435-2.558v2.558H134.6l2.713-2.558,2.518-2.514h8.349l2.712-2.92-2.712-5.429v-5.233l-2.717-5.273,2.717-2.874,5.269-2.556v-2.717l2.717-7.993V163.4l2.515-2.356,2.913-5.429v-5.594l5.435-2.556,5.233-2.713,2.717-2.519v-8.146l5.429-2.915,5.434-5.077v-2.713l2.556-2.716-2.556-5.435-2.879-2.556,2.879-2.712,2.556-2.718,8.146-5.433V99.292l2.719-5.429h2.711l5.274,2.515h2.717V88.429l5.434-2.557,2.714,2.557h2.716V85.872l2.517-8.146,5.432,2.717V69.581h5.429V64.306l2.717-5.233h2.717L242.2,61.59l5.429,2.716v2.718l2.72,5.471h5.431l2.56,2.718h7.943l2.917-2.718h2.713l2.718,5.232,5.234-2.514h2.715V72.494l2.718-5.471,2.709-2.718V56.517l2.561-5.431V40.224l2.716-2.519h5.434l5.43-2.915,2.718-2.515h2.716l-2.716,5.43,7.986,2.519h2.717l2.717,2.713L323,45.494v2.715l-2.717,2.877V64.306H323l1.238-9.584,3.636-5.993,5.79-3.434,6.189-1.278,2.317-9.585-.519.357H333.5l2.718-2.515V26.84L333.5,24.285h2.718l2.716-2.713V16.138H336.22V13.42h-5.434l-5.268,2.717V10.7h-5.436L317.37,7.991l-5.434,5.429v2.717l-2.513,2.717L306.7,13.42V10.7l2.72-2.712V0Z" fill="none" stroke="#96b93c" stroke-width="2"/>
    <path id="Path_31925" data-name="Path 31925" d="M306.7,0l-5.468,5.433V7.991L295.8,10.7V21.571l-2.711-2.717V16.138l-2.518-2.717V5.433h-2.718V10.7l-2.713,5.434-2.718,5.434L279.7,26.84v-10.7l5.434-2.717V10.7l2.713-5.27,2.718-2.717L287.849,0,279.7,5.433l-2.718-2.717-2.548,2.717V7.991L279.7,10.7l-7.986,2.717L269,10.7l-2.716,2.717v5.434h-2.718l2.718,2.717-5.429,5.269-2.718-5.269-2.514,2.713v5.272l-2.758,2.718-2.712-2.718h-2.716v2.718l-2.717-2.718H242l-2.516,2.718V34.79h-2.717L234.048,37.7v5.233l2.718,2.556v5.593l-2.718-2.877-2.712-2.715h-2.718l-2.556,5.593-2.877-5.593-2.557,2.715v5.435l2.557,5.429V61.59l-2.557-2.517-2.712-5.429v5.429L215.2,64.306l-2.717-2.716V56.517l-2.717,2.556v7.951h-5.429l-2.515,2.558,2.515,2.913-2.515,2.718-2.759,2.514v2.717L201.821,83l-2.759,2.872h-8.147V83L188.2,85.872V96.378l-2.514,5.43V88.429l-2.718,2.879h-5.428l-2.717,2.556h2.717l2.712,2.515v2.914l-2.712-2.914-2.717,2.914L172.1,96.378h-2.717v5.43l-2.558,2.919,7.993-2.919,2.717,2.919v2.514h-8.151l-2.558,2.718v2.712H172.1v5.273h-5.274l-2.711,2.718-2.717,2.716-5.435-2.716-2.713,2.716v5.27h-2.515l-2.758,2.52,2.758,2.915-2.758,2.716h-5.434l2.717,2.712,2.717,2.718,2.758-2.718v5.238h-8.191v2.713l2.717,2.556-2.717,2.718h-2.714l-2.717,2.876-2.716,2.552,2.716,2.877V163.4l-2.716,2.717-2.517-2.717v-2.356l-2.912,5.073v2.717h2.912v5.429l-2.912,2.718h-2.521v5.275l-2.712,2.717H121.02v2.556h2.717v5.59l-2.717,2.557-5.274-2.557V190.4l-2.718-2.874-2.71,2.874-2.717,2.716h-5.435v5.274L99.251,200.9,96.9,206.333H91.462v7.992l-2.717-2.558-2.711,2.558L83.316,217.2,80.6,214.325,78.084,217.2l-2.915,2.555h-2.52v5.436l-2.712-2.717H67.219l2.718,2.717V227.9H67.219L64.5,225.188,61.946,227.9H53.8v2.712l2.558,5.233H50.881l-5.429-2.712H43.1l-2.717,2.712,2.717,2.76v2.717H34.945l-2.872,5.427v-5.427H29.516L26.8,244.038l-2.516-2.712H18.85v5.427l2.52,2.515h2.914v2.717H21.37L18.85,254.7H13.218v2.557l2.919,2.872v2.558L10.7,260.133v5.274l2.516,5.233H18.85v2.915H16.138L10.7,270.639v5.434l2.516,5.27,2.919,2.714-2.919,2.72-2.516-2.72-2.717,2.72v2.715l5.233,2.713H7.986v2.717L10.7,297.64l2.516,2.558H18.85l5.434-2.558-5.434,5.274-2.712,2.516-2.919,2.913,5.631,5.434H13.218L10.7,316.292l-2.717-2.515H5.43l-2.873,5.072v2.873L0,327l2.558,2.879,5.428-8.153h5.233v8.153H10.7v5.267l-2.717,2.521v-2.521L5.43,337.663v10.9l5.272,5.233,8.148,2.719-5.631,5.272,5.631,2.872,2.52-2.872v5.43H34.945l5.436-2.558v2.558l5.071-2.558,2.914-2.872,2.515-5.272,2.918-2.719,8.148-2.716v-2.517l2.556-2.753h5.434v2.753l2.712,2.517,5.435-2.517v-5.468l5.233-5.43v-5.434L80.6,329.875l5.434-5.6,2.711-2.557,2.717-2.873h2.717v5.43L91.462,327H88.744v5.232h2.717l7.79,5.434-4.876,5.43h2.718v2.715l2.359,2.753,2.914-2.753v-5.434l-2.914-2.712,5.428-5.434v-2.354L107.8,327v-2.717l2.516-2.557h5.429l2.717-7.945V300.2l-2.717-5.274v-2.717l8.151-5.429v-10.7l-2.718-2.519-2.717-2.915v-5.233l2.717-5.274v-8.148l-2.717-2.717v-7.943l2.717-2.717V222.471L123.9,217.2l2.712-2.872,5.435-2.558v2.558H134.6l2.713-2.558,2.518-2.514h8.349l2.712-2.92-2.712-5.429v-5.233l-2.717-5.273,2.717-2.874,5.269-2.556v-2.717l2.717-7.993V163.4l2.515-2.356,2.913-5.429v-5.594l5.435-2.556,5.233-2.713,2.717-2.519v-8.146l5.429-2.915,5.434-5.077v-2.713l2.556-2.716-2.556-5.435-2.879-2.556,2.879-2.712,2.556-2.718,8.146-5.433V99.292l2.719-5.429h2.711l5.274,2.515h2.717V88.429l5.434-2.557,2.714,2.557h2.716V85.872l2.517-8.146,5.432,2.717V69.581h5.429V64.306l2.717-5.233h2.717L242.2,61.59l5.429,2.716v2.718l2.72,5.471h5.431l2.56,2.718h7.943l2.917-2.718h2.713l2.718,5.232,5.234-2.514h2.715V72.494l2.718-5.471,2.709-2.718V56.517l2.561-5.431V40.224l2.716-2.519h5.434l5.43-2.915,2.718-2.515h2.716l-2.716,5.43,7.986,2.519h2.717l2.717,2.713L323,45.494v2.715l-2.717,2.877V64.306H323l1.238-9.584,3.636-5.993,5.79-3.434,6.189-1.278,2.317-9.585-.519.357H333.5l2.718-2.515V26.84L333.5,24.285h2.718l2.716-2.713V16.138H336.22V13.42h-5.434l-5.268,2.717V10.7h-5.436L317.37,7.991l-5.434,5.429v2.717l-2.513,2.717L306.7,13.42V10.7l2.72-2.712V0Z" fill="none" stroke="#96b93c" stroke-width="2"/>
  </g>
</svg>
