<svg xmlns="http://www.w3.org/2000/svg" width="28.148" height="28.148" viewBox="0 0 28.148 28.148">
  <path id="Icon_awesome-phone-alt" data-name="Icon awesome-phone-alt" d="M27.345,19.891l-6.158-2.639a1.319,1.319,0,0,0-1.539.379l-2.727,3.332A20.378,20.378,0,0,1,7.18,11.222l3.332-2.727a1.316,1.316,0,0,0,.379-1.539L8.252.8A1.328,1.328,0,0,0,6.74.034L1.023,1.353A1.319,1.319,0,0,0,0,2.639a25.507,25.507,0,0,0,25.51,25.51A1.319,1.319,0,0,0,26.8,27.126l1.319-5.718a1.335,1.335,0,0,0-.77-1.517Z" transform="translate(0 0)" fill="#045a6b"/>
</svg>
