<svg xmlns="http://www.w3.org/2000/svg" width="23.69" height="19.248" viewBox="0 0 23.69 19.248">
  <path id="Icon_metro-camera" data-name="Icon metro-camera" d="M9.6,16.889a4.812,4.812,0,1,0,4.812-4.812A4.812,4.812,0,0,0,9.6,16.889ZM24.78,8.745H19.6c-.37-1.481-.74-2.961-2.221-2.961H11.454c-1.481,0-1.851,1.481-2.221,2.961H4.051a1.485,1.485,0,0,0-1.481,1.481V23.552a1.485,1.485,0,0,0,1.481,1.481H24.78a1.485,1.485,0,0,0,1.481-1.481V10.226A1.485,1.485,0,0,0,24.78,8.745ZM14.416,23.459a6.57,6.57,0,1,1,6.57-6.57A6.57,6.57,0,0,1,14.416,23.459ZM24.78,13.187H21.819V11.707H24.78Z" transform="translate(-2.571 -5.784)" fill="#383838"/>
</svg>
