<svg xmlns="http://www.w3.org/2000/svg" xmlns:xlink="http://www.w3.org/1999/xlink" width="323.486" height="263.866" viewBox="0 0 323.486 263.866">
  <defs>
    <clipPath id="clip-path">
      <rect id="Rectangle_4360" data-name="Rectangle 4360" width="322.486" height="262.866" fill="none" stroke="#96b93c" stroke-width="1"/>
    </clipPath>
  </defs>
  <g id="Group_16142" data-name="Group 16142" transform="translate(0.5 0.5)" opacity="0.371">
    <path id="Path_31451" data-name="Path 31451" d="M299.127,75.7,282.7,112.424l32.98,8.8-16.549,18.691H274.489v9.355l-32.252,9.357v44.812l-8.213,18.715h-6.635v9.351l-8.226-9.351-16.9,9.351H186.925l-8.213,18.144-8.219,8.67H154.079v-8.67H138.132L121.706,231.51,97.55,222.159v-10.6H89.937v-8.117l7.613-9.894V175.4l-7.613-7.43v-9.336l-7.73-9.357H73.993v9.357H49.973l-8.83-9.357H33.534l-7.125-9.355v-8.112H9.375V103.74L1.162,75.7V30.182H2.24l25.246-9.5h14.25l9.32-9.355H98.64l15.936-9.894h24.639l24.162,9.894,16.437-9.894,8.194,9.894,15.33,9.355,24.639,9.5h7.144L243.344,48.2l24.625,18.693,7.6,8.806h23.556Z" transform="translate(1.511 1.869)" fill="none" stroke="#96b93c" stroke-width="2"/>
    <g id="Group_16139" data-name="Group 16139">
      <g id="Group_16138" data-name="Group 16138" clip-path="url(#clip-path)">
        <path id="Path_31452" data-name="Path 31452" d="M300.441,75.806l-16.5,36.779,33.126,8.817L300.441,140.12H275.694v9.369L243.3,158.859v44.877l-8.249,18.742h-6.664v9.365l-8.262-9.365-16.977,9.365h-15.4l-8.249,18.17L171.24,258.7H154.753v-8.683H138.736l-16.5-18.17-24.263-9.365V211.865H90.328v-8.128l7.647-9.908V175.649l-7.647-7.44v-9.349l-7.765-9.371H74.315v9.371H50.189l-8.869-9.371H33.677l-7.156-9.369V132H9.411V103.889L1.162,75.806V30.223H2.245L27.6,20.714H41.915l9.361-9.369H99.069l16.006-9.908h24.747l24.268,9.908L180.6,1.437l8.23,9.908,15.4,9.369,24.747,9.509h7.175l8.26,18.043,24.734,18.721,7.635,8.819h23.66Z" transform="translate(1.046 1.663)" fill="none" stroke="#96b93c" stroke-miterlimit="10" stroke-width="1"/>
      </g>
    </g>
  </g>
</svg>
