<svg xmlns="http://www.w3.org/2000/svg" width="457.634" height="250.385" viewBox="0 0 457.634 250.385">
  <g id="Group_16188" data-name="Group 16188" transform="translate(1.123 -0.265)" opacity="0.37">
    <path id="Path_31919" data-name="Path 31919" d="M165.091,1.63l-12,25.49L141.65,16.339,128.379,2.2,112.9,16.837V29.913l-11.477,23.66L77.016,65.791H51.2L38.354,79.7V92.322l-24.84,24.1L0,142.286l13.968,27.966,27.776-12.882,11.542-24.913H67.608V119.741H76.3l11.928,23.031v11.217H63.744v14.481l9.294,10H63.744V193.9l12.335,12.531L89.55,220.7l50.116-13.456L152.9,220.473h38.4l14.185-26.456.228-12.818,11.58-11.553H228.4L239.982,181.2v24.626l12.563,14.118,12.607,11.872,15.139,16.29V231.373l13.158-11.565,11.182-12.789h14.685V169.646h9.935l10.713,11.507v13.892h39.244l12.683,12.7,16.369-14.589L394.787,180.4l11.981-11.308,10.637-10.5,11.919,11.053h15.411V132.456h10.775V128.59H406.177l-12.8-12.107-12.525-13.321H369.23V91.2H356.515V81.255L369.23,68.522V53.783l-25.4-11.957V28.417H319.316V15.736H216.94L188.213,1.859V12.73Z" fill="none" stroke="#96b93c" stroke-width="2"/>
  </g>
</svg>
