<svg xmlns="http://www.w3.org/2000/svg" width="30.506" height="24.833" viewBox="0 0 30.506 24.833">
  <g id="Group_14435" data-name="Group 14435" transform="translate(-868.217 -3208.973)">
    <g id="Group_285" data-name="Group 285" transform="translate(868.217 3208.973)">
      <g id="Group_64" data-name="Group 64">
        <g id="Group_63" data-name="Group 63">
          <g id="Group_62" data-name="Group 62">
            <path id="Path_531" data-name="Path 531" d="M25.823,2.893a12.379,12.379,0,0,0,3.672-1.4.228.228,0,0,1,.155-.049A6.415,6.415,0,0,1,27,4.846a12.307,12.307,0,0,0,3.507-.952c-.049.078-.078.117-.107.155a12.453,12.453,0,0,1-2.9,2.992.265.265,0,0,0-.126.253,17.56,17.56,0,0,1-.049,2.147,18.308,18.308,0,0,1-.359,2.3,18.631,18.631,0,0,1-2.38,5.829,17.461,17.461,0,0,1-4.372,4.8,16.814,16.814,0,0,1-5.683,2.769,17.988,17.988,0,0,1-3.993.622c-.029,0-.078-.01-.1.029h-.35a.175.175,0,0,0-.117-.029H9.162a.175.175,0,0,0-.117.029H8.724a2.212,2.212,0,0,0-.563-.049c-.777-.087-1.554-.185-2.322-.34A18.289,18.289,0,0,1,.35,23.218c-.117-.078-.233-.155-.35-.223a13.151,13.151,0,0,0,4.848-.408,12.435,12.435,0,0,0,4.333-2.2c-.243-.01-.486-.039-.719-.068a6.114,6.114,0,0,1-2.283-.806A6.278,6.278,0,0,1,3.42,16.155c-.029-.087-.049-.146.087-.117a6.161,6.161,0,0,0,2.458-.068c.058-.019.117-.01.175-.068-.039-.01-.078-.019-.107-.029a6.2,6.2,0,0,1-3.507-2.235A6.067,6.067,0,0,1,1.195,9.82c0-.1.01-.136.117-.078a6.581,6.581,0,0,0,2.526.729c.039,0,.1.019.107-.019s-.039-.058-.068-.087a6.545,6.545,0,0,1-.923-.8A6.3,6.3,0,0,1,1.37,3.894a6.4,6.4,0,0,1,.641-1.681c.058-.107.087-.1.155-.01A16.747,16.747,0,0,0,4.343,4.419,17.778,17.778,0,0,0,11,7.994a19.174,19.174,0,0,0,2.672.554c.389.058.777.078,1.166.107.126.01.146-.01.126-.146a6.64,6.64,0,0,1-.117-.748,7.3,7.3,0,0,1,.117-1.836,6.281,6.281,0,0,1,5-4.867,2.853,2.853,0,0,0,.563-.1H21.6a3.106,3.106,0,0,0,.6.087A6.214,6.214,0,0,1,25.58,2.835a.229.229,0,0,0,.243.058" transform="translate(0 -0.96)" fill="#fff"/>
          </g>
        </g>
      </g>
    </g>
  </g>
</svg>
