<svg id="Group_285" data-name="Group 285" xmlns="http://www.w3.org/2000/svg" width="48.54" height="39.513" viewBox="0 0 48.54 39.513">
  <g id="Group_64" data-name="Group 64">
    <g id="Group_63" data-name="Group 63">
      <g id="Group_62" data-name="Group 62">
        <path id="Path_531" data-name="Path 531" d="M41.089,4.036A19.7,19.7,0,0,0,46.933,1.81a.363.363,0,0,1,.247-.077,10.208,10.208,0,0,1-4.22,5.411A19.583,19.583,0,0,0,48.54,5.629c-.077.124-.124.186-.17.247a19.815,19.815,0,0,1-4.607,4.761.422.422,0,0,0-.2.4,27.94,27.94,0,0,1-.077,3.416,29.131,29.131,0,0,1-.572,3.664,29.645,29.645,0,0,1-3.787,9.275,27.784,27.784,0,0,1-6.956,7.637,26.753,26.753,0,0,1-9.043,4.406,28.622,28.622,0,0,1-6.354.989c-.046,0-.124-.015-.155.046h-.557a.279.279,0,0,0-.186-.046h-1.3a.279.279,0,0,0-.186.046h-.51a3.52,3.52,0,0,0-.9-.077c-1.237-.139-2.473-.294-3.695-.541A29.1,29.1,0,0,1,.557,36.376c-.186-.124-.371-.247-.557-.356a20.926,20.926,0,0,0,7.714-.649,19.786,19.786,0,0,0,6.895-3.494c-.386-.015-.773-.062-1.144-.108a9.729,9.729,0,0,1-3.633-1.283,9.989,9.989,0,0,1-4.39-5.349c-.046-.139-.077-.232.139-.186a9.8,9.8,0,0,0,3.911-.108c.093-.031.186-.015.278-.108-.062-.015-.124-.031-.17-.046a9.872,9.872,0,0,1-5.581-3.556A9.653,9.653,0,0,1,1.9,15.058c0-.155.015-.216.186-.124a10.471,10.471,0,0,0,4.019,1.159c.062,0,.155.031.17-.031.031-.077-.062-.093-.108-.139A10.415,10.415,0,0,1,4.7,14.657,10.03,10.03,0,0,1,2.18,5.629,10.178,10.178,0,0,1,3.2,2.954c.093-.17.139-.155.247-.015A26.647,26.647,0,0,0,6.91,6.463,28.288,28.288,0,0,0,17.5,12.152a30.51,30.51,0,0,0,4.251.881c.618.093,1.237.124,1.855.17.2.015.232-.015.2-.232a10.565,10.565,0,0,1-.186-1.19,11.62,11.62,0,0,1,.186-2.922,9.994,9.994,0,0,1,7.961-7.745,4.539,4.539,0,0,0,.9-.155h1.7a4.942,4.942,0,0,0,.958.139A9.888,9.888,0,0,1,40.7,3.944a.364.364,0,0,0,.386.093" transform="translate(0 -0.96)" fill="#2f2f2f"/>
      </g>
    </g>
  </g>
</svg>
