<svg xmlns="http://www.w3.org/2000/svg" width="46" height="46" viewBox="0 0 46 46">
  <g id="Group_16219" data-name="Group 16219" transform="translate(672 -5798)">
    <rect id="Rectangle_4301" data-name="Rectangle 4301" width="46" height="46" transform="translate(-672 5798)" fill="#045a6b"/>
    <g id="Group_16071" data-name="Group 16071" transform="translate(-659 5810)">
      <path id="Path_31421" data-name="Path 31421" d="M-11.567-7.247a.457.457,0,0,0-.582,0l-4.185,3.365a.474.474,0,0,0-.169.361V5.093a.47.47,0,0,0,.468.472h2.786a.47.47,0,0,0,.472-.468V1.839h1.863V5.093a.47.47,0,0,0,.468.472h2.786A.47.47,0,0,0-7.19,5.1V-3.528A.492.492,0,0,0-7.364-3.9ZM-12.778-.023h-1.863V-1.886h1.863Zm3.726,0h-1.863V-1.886h1.863ZM-20.77-17.132a.466.466,0,0,0-.644-.136.47.47,0,0,0-.136.136L-27.6-9.454a.493.493,0,0,0-.076.256V5.093a.47.47,0,0,0,.134.332.476.476,0,0,0,.332.14h4.657a.472.472,0,0,0,.466-.472V1.839h1.863V5.093a.47.47,0,0,0,.468.472h1.395V-5.612a.924.924,0,0,1,.349-.728l3.376-3c0-.093-6.13-7.794-6.13-7.794M-23.954-1.886h-1.863V-3.749h1.863Zm0-5.588h-1.863V-9.337h1.863Zm3.726,5.588h-1.863V-3.749h1.863Zm0-5.588h-1.863V-9.337h1.863Z" transform="translate(27.68 17.343)" fill="#96b93c"/>
    </g>
  </g>
</svg>
