<svg xmlns="http://www.w3.org/2000/svg" xmlns:xlink="http://www.w3.org/1999/xlink" width="69" height="69" viewBox="0 0 69 69">
  <defs>
    <clipPath id="clip-path">
      <rect id="Rectangle_3235" data-name="Rectangle 3235" width="68.213" height="68.213" fill="none" stroke="#707070" stroke-width="2"/>
    </clipPath>
  </defs>
  <g id="Group_14589" data-name="Group 14589" transform="translate(-344 -1166)">
    <rect id="Rectangle_3218" data-name="Rectangle 3218" width="69" height="69" transform="translate(344 1166)" fill="#045a6b"/>
    <g id="Group_14137" data-name="Group 14137" transform="translate(344 1166.787)">
      <g id="Group_14136" data-name="Group 14136" transform="translate(0 0)" clip-path="url(#clip-path)">
        <path id="Path_27634" data-name="Path 27634" d="M17.177,25.174a8.634,8.634,0,1,0,8.634-8.634A8.633,8.633,0,0,0,17.177,25.174Zm-6.636,0A15.27,15.27,0,1,0,25.811,9.9,15.27,15.27,0,0,0,10.541,25.174Z" transform="translate(8.294 7.793)" fill="none" stroke="#fff" stroke-miterlimit="10" stroke-width="2"/>
        <path id="Path_27635" data-name="Path 27635" d="M17.749,19.933a2.451,2.451,0,1,0,2.014-2.821,2.452,2.452,0,0,0-2.014,2.821" transform="translate(13.939 13.438)" fill="#fff" stroke="#707070" stroke-width="2"/>
        <path id="Path_27636" data-name="Path 27636" d="M10.541,25.174c0,4.769,6.836,8.634,15.27,8.634s15.27-3.865,15.27-8.634-6.836-8.634-15.27-8.634S10.541,20.405,10.541,25.174Zm0,0A15.27,15.27,0,1,0,25.811,9.9,15.27,15.27,0,0,0,10.541,25.174Z" transform="translate(8.294 7.793)" fill="none" stroke="#fff" stroke-miterlimit="10" stroke-width="2"/>
        <path id="Path_27637" data-name="Path 27637" d="M17.749,19.933a2.451,2.451,0,1,0,2.014-2.821A2.452,2.452,0,0,0,17.749,19.933Z" transform="translate(13.939 13.438)" fill="none" stroke="#fff" stroke-miterlimit="10" stroke-width="2"/>
      </g>
    </g>
  </g>
</svg>
