<svg xmlns="http://www.w3.org/2000/svg" width="46" height="46" viewBox="0 0 46 46">
  <g id="Group_16218" data-name="Group 16218" transform="translate(608 -5798)">
    <rect id="Rectangle_4302" data-name="Rectangle 4302" width="46" height="46" transform="translate(-608 5798)" fill="#045a6b"/>
    <g id="Group_16072" data-name="Group 16072" transform="translate(-597 5810)">
      <path id="Path_31422" data-name="Path 31422" d="M-.834-2.98a3.687,3.687,0,0,1,2.569-.846A3.992,3.992,0,0,1,5.965-.442L7.287,7.477A3.879,3.879,0,0,0,3.9,7.562l-1.353-8A3.738,3.738,0,0,0-.834-2.98M9.317,8.423a5.68,5.68,0,0,1,2.2-1.1L13.578-5.518a3.736,3.736,0,0,1,3.384-2.537A3.666,3.666,0,0,0,14.424-8.9a3.992,3.992,0,0,0-4.23,3.383l-2.2,13.18a5.9,5.9,0,0,1,1.322.761m7.306-.846h0A6.129,6.129,0,0,1,17.469,7L18.653-.442A3.738,3.738,0,0,1,22.037-2.98,3.665,3.665,0,0,0,19.5-3.826,3.991,3.991,0,0,0,15.27-.442L14.138,6.325a5.771,5.771,0,0,1,2.485,1.253m3.722,2.131h0a3.04,3.04,0,0,0-2.014.709l-.793.7a1.273,1.273,0,0,1-1.691,0c-.254-.206-.492-.444-.746-.661a3.214,3.214,0,0,0-4.145,0c-.27.217-.523.471-.793.693a1.275,1.275,0,0,1-1.692,0c-.275-.222-.529-.476-.8-.693a3.218,3.218,0,0,0-4.129,0c-.254.217-.487.455-.74.661a1.672,1.672,0,0,1-.508.27,1.42,1.42,0,0,1-1.353-.423A10.441,10.441,0,0,0-.4,9.978a2.088,2.088,0,0,0-1.152-.27h-.1a.846.846,0,0,0-.846.846.846.846,0,0,0,.846.846,1.585,1.585,0,0,1,1.084.524l.608.439a3.225,3.225,0,0,0,3.944.106c.317-.238.608-.544.93-.8a1.275,1.275,0,0,1,1.692,0l.656.592a3.238,3.238,0,0,0,4.166.122c.254-.19.455-.423.708-.63a1.3,1.3,0,0,1,1.835-.021l.005.005a.092.092,0,0,1,.021.015l.661.592a3.2,3.2,0,0,0,2.976.629A3.686,3.686,0,0,0,19.33,11.96a1.714,1.714,0,0,1,1.015-.56.846.846,0,1,0,0-1.692" transform="translate(2.494 8.911)" fill="#96b93c"/>
    </g>
  </g>
</svg>
